LibertineSuper-Thin.ufo
<glyph name="exclam" format="2">
  <advance width="148"/>
  <unicode hex="0021"/>
  <outline>
    <contour>
      <point x="64" y="732" type="curve" smooth="yes"/>
      <point x="64" y="142" type="line" smooth="yes"/>
      <point x="64" y="136.477"/>
      <point x="68.477" y="132"/>
      <point x="74" y="132" type="curve" smooth="yes"/>
      <point x="79.523" y="132"/>
      <point x="84" y="136.477"/>
      <point x="84" y="142" type="curve" smooth="yes"/>
      <point x="84" y="732" type="line" smooth="yes"/>
      <point x="84" y="737.523"/>
      <point x="79.523" y="742"/>
      <point x="74" y="742" type="curve" smooth="yes"/>
      <point x="68.477" y="742"/>
      <point x="64" y="737.523"/>
    </contour>
    <component base="period"/>
  </outline>
</glyph>
<glyph name="numbersign" format="2">
  <advance width="490"/>
  <unicode hex="0023"/>
  <outline>
    <contour>
      <point x="209" y="668" type="curve" smooth="yes"/>
      <point x="66" y="12" type="line" smooth="yes"/>
      <point x="65.917" y="11.5"/>
      <point x="65.875" y="11"/>
      <point x="65.872" y="10.503" type="curve" smooth="yes"/>
      <point x="65.841" y="5.041"/>
      <point x="70.5" y="0"/>
      <point x="76" y="0" type="curve" smooth="yes"/>
      <point x="81" y="0"/>
      <point x="85" y="3"/>
      <point x="86" y="8" type="curve" smooth="yes"/>
      <point x="229" y="664" type="line" smooth="yes"/>
      <point x="229.111" y="664.667"/>
      <point x="229.148" y="665.334"/>
      <point x="229.118" y="665.992" type="curve" smooth="yes"/>
      <point x="228.876" y="671.259"/>
      <point x="224.333" y="676"/>
      <point x="219" y="676" type="curve" smooth="yes"/>
      <point x="214" y="676"/>
      <point x="210" y="673"/>
    </contour>
    <contour>
      <point x="410" y="668" type="curve" smooth="yes"/>
      <point x="266" y="12" type="line" smooth="yes"/>
      <point x="265.875" y="11.432"/>
      <point x="265.817" y="10.862"/>
      <point x="265.817" y="10.295" type="curve" smooth="yes"/>
      <point x="265.821" y="5.008"/>
      <point x="270.977" y="0"/>
      <point x="276" y="0" type="curve" smooth="yes"/>
      <point x="281" y="0"/>
      <point x="285" y="3"/>
      <point x="286" y="8" type="curve" smooth="yes"/>
      <point x="429" y="664" type="line" smooth="yes"/>
      <point x="429.09" y="664.539"/>
      <point x="429.131" y="665.079"/>
      <point x="429.128" y="665.614" type="curve" smooth="yes"/>
      <point x="429.093" y="671.03"/>
      <point x="424.461" y="676"/>
      <point x="419" y="676" type="curve" smooth="yes"/>
      <point x="415" y="676"/>
      <point x="411" y="673"/>
    </contour>
    <contour>
      <point x="460" y="460" type="curve" smooth="yes"/>
      <point x="70" y="460" type="line" smooth="yes"/>
      <point x="64" y="460"/>
      <point x="60" y="456"/>
      <point x="60" y="450" type="curve" smooth="yes"/>
      <point x="60" y="444"/>
      <point x="64" y="440"/>
      <point x="70" y="440" type="curve" smooth="yes"/>
      <point x="460" y="440" type="line" smooth="yes"/>
      <point x="466" y="440"/>
      <point x="470" y="444"/>
      <point x="470" y="450" type="curve" smooth="yes"/>
      <point x="470" y="456"/>
      <point x="466" y="460"/>
    </contour>
    <contour>
      <point x="419" y="237" type="curve" smooth="yes"/>
      <point x="30" y="237" type="line" smooth="yes"/>
      <point x="24" y="237"/>
      <point x="20" y="233"/>
      <point x="20" y="227" type="curve" smooth="yes"/>
      <point x="20" y="221"/>
      <point x="24" y="217"/>
      <point x="30" y="217" type="curve" smooth="yes"/>
      <point x="419" y="217" type="line" smooth="yes"/>
      <point x="425" y="217"/>
      <point x="429" y="221"/>
      <point x="429" y="227" type="curve" smooth="yes"/>
      <point x="429" y="233"/>
      <point x="425" y="237"/>
    </contour>
  </outline>
</glyph>
<glyph name="dollar" format="2">
  <advance width="465"/>
  <unicode hex="0024"/>
  <outline>
    <contour>
      <point x="216" y="860" type="curve" smooth="yes"/>
      <point x="216" y="742" type="line" smooth="yes"/>
      <point x="216" y="736"/>
      <point x="220" y="732"/>
      <point x="226" y="732" type="curve" smooth="yes"/>
      <point x="232" y="732"/>
      <point x="236" y="736"/>
      <point x="236" y="742" type="curve" smooth="yes"/>
      <point x="236" y="860" type="line" smooth="yes"/>
      <point x="236" y="866"/>
      <point x="232" y="870"/>
      <point x="226" y="870" type="curve" smooth="yes"/>
      <point x="220" y="870"/>
      <point x="216" y="866"/>
    </contour>
    <contour>
      <point x="216" y="5" type="curve" smooth="yes"/>
      <point x="216" y="-112" type="line" smooth="yes"/>
      <point x="216" y="-117"/>
      <point x="220" y="-121"/>
      <point x="226" y="-121" type="curve" smooth="yes"/>
      <point x="232" y="-121"/>
      <point x="236" y="-117"/>
      <point x="236" y="-112" type="curve" smooth="yes"/>
      <point x="236" y="5" type="line" smooth="yes"/>
      <point x="236" y="11"/>
      <point x="232" y="15"/>
      <point x="226" y="15" type="curve" smooth="yes"/>
      <point x="220" y="15"/>
      <point x="216" y="11"/>
    </contour>
    <contour>
      <point x="41" y="106" type="curve" smooth="yes"/>
      <point x="70" y="40"/>
      <point x="136" y="-5"/>
      <point x="226" y="-5" type="curve" smooth="yes"/>
      <point x="329" y="-5"/>
      <point x="415" y="81"/>
      <point x="415" y="186" type="curve" smooth="yes"/>
      <point x="415" y="298"/>
      <point x="322" y="347"/>
      <point x="236" y="394" type="curve" smooth="yes"/>
      <point x="153" y="438"/>
      <point x="77" y="479"/>
      <point x="77" y="569" type="curve" smooth="yes"/>
      <point x="77" y="660"/>
      <point x="144" y="732"/>
      <point x="234" y="732" type="curve" smooth="yes"/>
      <point x="297" y="732"/>
      <point x="350" y="697"/>
      <point x="378" y="644" type="curve" smooth="yes"/>
      <point x="380" y="641"/>
      <point x="383" y="639"/>
      <point x="387" y="639" type="curve" smooth="yes"/>
      <point x="393.199" y="639"/>
      <point x="396.996" y="643.803"/>
      <point x="396.996" y="648.757" type="curve" smooth="yes"/>
      <point x="396.996" y="650.197"/>
      <point x="396.675" y="651.649"/>
      <point x="396" y="653" type="curve" smooth="yes"/>
      <point x="365" y="712"/>
      <point x="304" y="752"/>
      <point x="234" y="752" type="curve" smooth="yes"/>
      <point x="134" y="752"/>
      <point x="57" y="669"/>
      <point x="57" y="569" type="curve" smooth="yes"/>
      <point x="57" y="467"/>
      <point x="144" y="420"/>
      <point x="227" y="376" type="curve" smooth="yes"/>
      <point x="313" y="331"/>
      <point x="395" y="286"/>
      <point x="395" y="186" type="curve" smooth="yes"/>
      <point x="395" y="90"/>
      <point x="320" y="15"/>
      <point x="226" y="15" type="curve" smooth="yes"/>
      <point x="143" y="15"/>
      <point x="86" y="54"/>
      <point x="59" y="114" type="curve"/>
      <point x="58" y="117"/>
      <point x="54" y="119"/>
      <point x="50" y="119" type="curve" smooth="yes"/>
      <point x="44.421" y="119"/>
      <point x="40.112" y="114.553"/>
      <point x="40.112" y="109.71" type="curve" smooth="yes"/>
      <point x="40.112" y="108.477"/>
      <point x="40.391" y="107.218"/>
    </contour>
  </outline>
</glyph>
<glyph name="quotesingle" format="2">
  <advance width="217"/>
  <unicode hex="0027"/>
  <outline>
    <contour>
      <point x="99" y="792" type="curve" smooth="yes"/>
      <point x="99" y="539" type="line" smooth="yes"/>
      <point x="99" y="533"/>
      <point x="103" y="529"/>
      <point x="109" y="529" type="curve" smooth="yes"/>
      <point x="114" y="529"/>
      <point x="118" y="533"/>
      <point x="118" y="539" type="curve" smooth="yes"/>
      <point x="118" y="792" type="line" smooth="yes"/>
      <point x="118" y="797"/>
      <point x="114" y="801"/>
      <point x="109" y="801" type="curve" smooth="yes"/>
      <point x="103" y="801"/>
      <point x="99" y="797"/>
    </contour>
  </outline>
</glyph>
<glyph name="parenleft" format="2">
  <advance width="247"/>
  <unicode hex="0028"/>
  <outline>
    <contour>
      <point x="215" y="-96" type="curve"/>
      <point x="153" y="2"/>
      <point x="72" y="148"/>
      <point x="69" y="347" type="curve" smooth="yes"/>
      <point x="72" y="558"/>
      <point x="150" y="700"/>
      <point x="214" y="789" type="curve" smooth="yes"/>
      <point x="215" y="791"/>
      <point x="216" y="793"/>
      <point x="216" y="795" type="curve" smooth="yes"/>
      <point x="216" y="800"/>
      <point x="212" y="804"/>
      <point x="206" y="804" type="curve" smooth="yes"/>
      <point x="203" y="804"/>
      <point x="200" y="802"/>
      <point x="198" y="800" type="curve"/>
      <point x="134" y="710"/>
      <point x="52" y="564"/>
      <point x="49" y="347" type="curve" smooth="yes"/>
      <point x="52" y="142"/>
      <point x="135" y="-8"/>
      <point x="199" y="-106" type="curve"/>
      <point x="200" y="-109"/>
      <point x="203" y="-111"/>
      <point x="207" y="-111" type="curve" smooth="yes"/>
      <point x="213.374" y="-111"/>
      <point x="216.738" y="-105.984"/>
      <point x="216.738" y="-101.281" type="curve" smooth="yes"/>
      <point x="216.738" y="-99.344"/>
      <point x="216.167" y="-97.459"/>
    </contour>
  </outline>
</glyph>
<glyph name="asterisk" format="2">
  <advance width="414"/>
  <unicode hex="002A"/>
  <outline>
    <contour>
      <point x="216" y="424" type="curve" smooth="yes"/>
      <point x="216" y="759" type="line" smooth="yes"/>
      <point x="216" y="765"/>
      <point x="212" y="769"/>
      <point x="206" y="769" type="curve" smooth="yes"/>
      <point x="200" y="769"/>
      <point x="196" y="765"/>
      <point x="196" y="759" type="curve" smooth="yes"/>
      <point x="196" y="424" type="line" smooth="yes"/>
      <point x="196" y="418"/>
      <point x="200" y="415"/>
      <point x="206" y="415" type="curve" smooth="yes"/>
      <point x="212" y="415"/>
      <point x="216" y="418"/>
    </contour>
    <contour>
      <point x="124" y="467" type="curve" smooth="yes"/>
      <point x="305" y="704" type="line"/>
      <point x="306" y="706"/>
      <point x="307" y="708"/>
      <point x="307" y="710" type="curve" smooth="yes"/>
      <point x="307" y="716"/>
      <point x="303" y="720"/>
      <point x="297" y="720" type="curve" smooth="yes"/>
      <point x="294" y="720"/>
      <point x="291" y="718"/>
      <point x="289" y="716" type="curve" smooth="yes"/>
      <point x="109" y="479" type="line"/>
      <point x="108" y="477"/>
      <point x="107" y="475"/>
      <point x="107" y="473" type="curve" smooth="yes"/>
      <point x="107" y="467"/>
      <point x="111" y="463"/>
      <point x="116" y="463" type="curve" smooth="yes"/>
      <point x="119" y="463"/>
      <point x="122" y="465"/>
    </contour>
    <contour>
      <point x="79" y="581" type="curve" smooth="yes"/>
      <point x="335" y="581" type="line" smooth="yes"/>
      <point x="341" y="581"/>
      <point x="344" y="585"/>
      <point x="344" y="591" type="curve" smooth="yes"/>
      <point x="344" y="597"/>
      <point x="341" y="601"/>
      <point x="335" y="601" type="curve" smooth="yes"/>
      <point x="79" y="601" type="line" smooth="yes"/>
      <point x="73" y="601"/>
      <point x="69" y="597"/>
      <point x="69" y="591" type="curve" smooth="yes"/>
      <point x="69" y="585"/>
      <point x="73" y="581"/>
    </contour>
    <contour>
      <point x="109" y="704" type="curve"/>
      <point x="289" y="467" type="line" smooth="yes"/>
      <point x="291" y="465"/>
      <point x="294" y="463"/>
      <point x="297" y="463" type="curve" smooth="yes"/>
      <point x="303" y="463"/>
      <point x="307" y="467"/>
      <point x="307" y="473" type="curve" smooth="yes"/>
      <point x="307" y="475"/>
      <point x="306" y="477"/>
      <point x="305" y="479" type="curve"/>
      <point x="124" y="716" type="line" smooth="yes"/>
      <point x="122" y="718"/>
      <point x="119" y="720"/>
      <point x="116" y="720" type="curve" smooth="yes"/>
      <point x="111" y="720"/>
      <point x="107" y="716"/>
      <point x="107" y="710" type="curve" smooth="yes"/>
      <point x="107" y="708"/>
      <point x="108" y="706"/>
    </contour>
  </outline>
</glyph>
<glyph name="plus" format="2">
  <advance width="493"/>
  <unicode hex="002B"/>
  <outline>
    <contour>
      <point x="237" y="561" type="curve" smooth="yes"/>
      <point x="237" y="15" type="line" smooth="yes"/>
      <point x="237" y="9"/>
      <point x="241" y="5"/>
      <point x="247" y="5" type="curve" smooth="yes"/>
      <point x="253" y="5"/>
      <point x="257" y="9"/>
      <point x="257" y="15" type="curve" smooth="yes"/>
      <point x="257" y="561" type="line" smooth="yes"/>
      <point x="257" y="567"/>
      <point x="253" y="570"/>
      <point x="247" y="570" type="curve" smooth="yes"/>
      <point x="241" y="570"/>
      <point x="237" y="567"/>
    </contour>
    <contour>
      <point x="451" y="298" type="curve" smooth="yes"/>
      <point x="42" y="298" type="line" smooth="yes"/>
      <point x="37" y="298"/>
      <point x="33" y="294"/>
      <point x="33" y="288" type="curve" smooth="yes"/>
      <point x="33" y="282"/>
      <point x="37" y="278"/>
      <point x="42" y="278" type="curve" smooth="yes"/>
      <point x="451" y="278" type="line" smooth="yes"/>
      <point x="457" y="278"/>
      <point x="461" y="282"/>
      <point x="461" y="288" type="curve" smooth="yes"/>
      <point x="461" y="294"/>
      <point x="457" y="298"/>
    </contour>
  </outline>
</glyph>
<glyph name="comma" format="2">
  <advance width="149"/>
  <unicode hex="002C"/>
  <outline>
    <contour>
      <point x="51.226" y="-93.912" type="curve" smooth="yes"/>
      <point x="73.547" y="-70.577"/>
      <point x="99" y="-49.394"/>
      <point x="99" y="13.09" type="curve"/>
      <point x="99" y="19.787" type="line"/>
      <point x="79" y="0.463" type="line"/>
      <point x="79" y="-39.803"/>
      <point x="58.453" y="-57.423"/>
      <point x="36.774" y="-80.088" type="curve" smooth="yes"/>
      <point x="35.055" y="-81.883"/>
      <point x="34" y="-84.318"/>
      <point x="34" y="-87" type="curve" smooth="yes"/>
      <point x="34" y="-92.523"/>
      <point x="38.477" y="-97"/>
      <point x="44" y="-97" type="curve" smooth="yes"/>
      <point x="46.841" y="-97"/>
      <point x="49.406" y="-95.815"/>
    </contour>
    <component base="period"/>
  </outline>
</glyph>
<glyph name="hyphen" format="2">
  <advance width="365"/>
  <unicode hex="002D"/>
  <outline>
    <contour>
      <point x="326" y="341" type="curve" smooth="yes"/>
      <point x="39" y="341" type="line" smooth="yes"/>
      <point x="34" y="341"/>
      <point x="30" y="337"/>
      <point x="30" y="331" type="curve" smooth="yes"/>
      <point x="30" y="325"/>
      <point x="34" y="321"/>
      <point x="39" y="321" type="curve" smooth="yes"/>
      <point x="326" y="321" type="line" smooth="yes"/>
      <point x="332" y="321"/>
      <point x="336" y="325"/>
      <point x="336" y="331" type="curve" smooth="yes"/>
      <point x="336" y="337"/>
      <point x="332" y="341"/>
    </contour>
  </outline>
</glyph>
<glyph name="period" format="2">
  <advance width="148.96"/>
  <unicode hex="002E"/>
  <outline>
    <contour>
      <point x="74" y="-5" type="curve" smooth="yes"/>
      <point x="87.312" y="-5"/>
      <point x="98.96" y="6.648"/>
      <point x="98.96" y="19.96" type="curve" smooth="yes"/>
      <point x="98.96" y="33.273"/>
      <point x="87.312" y="44.089"/>
      <point x="74" y="44.089" type="curve" smooth="yes"/>
      <point x="60.688" y="44.089"/>
      <point x="49.04" y="33.273"/>
      <point x="49.04" y="19.96" type="curve" smooth="yes"/>
      <point x="49.04" y="6.648"/>
      <point x="60.688" y="-5"/>
    </contour>
  </outline>
</glyph>
<glyph name="slash" format="2">
  <advance width="331"/>
  <unicode hex="002F"/>
  <outline>
    <contour>
      <point x="307" y="741" type="curve" smooth="yes"/>
      <point x="6" y="14" type="line" smooth="yes"/>
      <point x="5.367" y="12.522"/>
      <point x="5.08" y="11.052"/>
      <point x="5.086" y="9.651" type="curve" smooth="yes"/>
      <point x="5.112" y="4.329"/>
      <point x="9.377" y="0"/>
      <point x="15" y="0" type="curve" smooth="yes"/>
      <point x="19" y="0"/>
      <point x="23" y="3"/>
      <point x="24" y="6" type="curve" smooth="yes"/>
      <point x="325" y="733" type="line" smooth="yes"/>
      <point x="325.526" y="734.421"/>
      <point x="325.759" y="735.829"/>
      <point x="325.744" y="737.173" type="curve" smooth="yes"/>
      <point x="325.68" y="742.687"/>
      <point x="321.426" y="747.128"/>
      <point x="316" y="747" type="curve" smooth="yes"/>
      <point x="312" y="747"/>
      <point x="308" y="744"/>
    </contour>
  </outline>
</glyph>
<glyph name="zero" format="2">
  <advance width="497"/>
  <unicode hex="0030"/>
  <outline>
    <contour>
      <point x="49" y="403" type="curve" smooth="yes"/>
      <point x="49" y="344" type="line" smooth="yes"/>
      <point x="49" y="174"/>
      <point x="98" y="-5"/>
      <point x="248" y="-5" type="curve" smooth="yes"/>
      <point x="250" y="-5" type="line" smooth="yes"/>
      <point x="400" y="-5"/>
      <point x="448" y="174"/>
      <point x="448" y="344" type="curve" smooth="yes"/>
      <point x="448" y="403" type="line" smooth="yes"/>
      <point x="448" y="574"/>
      <point x="400" y="752"/>
      <point x="250" y="752" type="curve" smooth="yes"/>
      <point x="248" y="752" type="line" smooth="yes"/>
      <point x="98" y="752"/>
      <point x="49" y="574"/>
    </contour>
    <contour>
      <point x="69" y="403" type="line" smooth="yes"/>
      <point x="69" y="571"/>
      <point x="114" y="732"/>
      <point x="248" y="732" type="curve" smooth="yes"/>
      <point x="250" y="732" type="line" smooth="yes"/>
      <point x="383" y="732"/>
      <point x="428" y="571"/>
      <point x="428" y="403" type="curve" smooth="yes"/>
      <point x="428" y="344" type="line" smooth="yes"/>
      <point x="428" y="177"/>
      <point x="383" y="15"/>
      <point x="250" y="15" type="curve" smooth="yes"/>
      <point x="248" y="15" type="line" smooth="yes"/>
      <point x="114" y="15"/>
      <point x="69" y="177"/>
      <point x="69" y="344" type="curve" smooth="yes"/>
    </contour>
    <contour>
      <point x="165" y="36" type="curve" smooth="yes"/>
      <point x="342" y="716" type="line"/>
      <point x="342" y="722"/>
      <point x="338" y="728"/>
      <point x="332" y="728" type="curve" smooth="yes"/>
      <point x="327" y="728"/>
      <point x="323" y="725"/>
      <point x="322" y="721" type="curve" smooth="yes"/>
      <point x="145" y="41" type="line"/>
      <point x="144" y="35"/>
      <point x="149" y="29"/>
      <point x="155" y="29" type="curve" smooth="yes"/>
      <point x="160" y="29"/>
      <point x="164" y="32"/>
    </contour>
  </outline>
</glyph>
<glyph name="one" format="2">
  <advance width="229"/>
  <unicode hex="0031"/>
  <outline>
    <contour>
      <point x="53" y="662" type="curve" smooth="yes"/>
      <point x="187" y="722" type="line"/>
      <point x="187" y="10" type="line" smooth="yes"/>
      <point x="187" y="4"/>
      <point x="190" y="0"/>
      <point x="196" y="0" type="curve" smooth="yes"/>
      <point x="202" y="0"/>
      <point x="206" y="4"/>
      <point x="206" y="10" type="curve" smooth="yes"/>
      <point x="206" y="730.188" type="line" smooth="yes"/>
      <point x="206" y="743.162"/>
      <point x="197.932" y="748.392"/>
      <point x="186.088" y="743.095" type="curve" smooth="yes"/>
      <point x="45" y="680" type="line"/>
      <point x="41" y="679"/>
      <point x="39" y="675"/>
      <point x="39" y="671" type="curve" smooth="yes"/>
      <point x="39" y="665.421"/>
      <point x="44.082" y="661.112"/>
      <point x="49.183" y="661.112" type="curve" smooth="yes"/>
      <point x="50.482" y="661.112"/>
      <point x="51.782" y="661.391"/>
    </contour>
    <contour>
      <point x="53" y="546" type="curve" smooth="yes"/>
      <point x="200" y="612" type="line"/>
      <point x="204" y="613"/>
      <point x="206" y="617"/>
      <point x="206" y="621" type="curve" smooth="yes"/>
      <point x="206" y="626.579"/>
      <point x="200.918" y="630.888"/>
      <point x="195.817" y="630.888" type="curve" smooth="yes"/>
      <point x="194.518" y="630.888"/>
      <point x="193.218" y="630.609"/>
      <point x="192" y="630" type="curve" smooth="yes"/>
      <point x="45" y="564" type="line"/>
      <point x="41" y="563"/>
      <point x="39" y="559"/>
      <point x="39" y="555" type="curve" smooth="yes"/>
      <point x="39" y="549.421"/>
      <point x="44.082" y="545.112"/>
      <point x="49.183" y="545.112" type="curve" smooth="yes"/>
      <point x="50.482" y="545.112"/>
      <point x="51.782" y="545.391"/>
    </contour>
  </outline>
</glyph>
<glyph name="three" format="2">
  <advance width="450"/>
  <unicode hex="0033"/>
  <outline>
    <contour>
      <point x="141" y="417" type="curve" smooth="yes"/>
      <point x="205" y="417" type="line" smooth="yes"/>
      <point x="317" y="417"/>
      <point x="400" y="330"/>
      <point x="401" y="217" type="curve"/>
      <point x="401" y="217"/>
      <point x="401" y="215"/>
      <point x="401" y="215" type="curve"/>
      <point x="401" y="102"/>
      <point x="317" y="15"/>
      <point x="206" y="15" type="curve"/>
      <point x="206" y="15"/>
      <point x="204" y="15"/>
      <point x="204" y="15" type="curve"/>
      <point x="133" y="15"/>
      <point x="72" y="60"/>
      <point x="42" y="132" type="curve" smooth="yes"/>
      <point x="41" y="135"/>
      <point x="38" y="138"/>
      <point x="34" y="138" type="curve" smooth="yes"/>
      <point x="28.421" y="138"/>
      <point x="24.112" y="133.553"/>
      <point x="24.112" y="128.203" type="curve" smooth="yes"/>
      <point x="24.112" y="126.841"/>
      <point x="24.391" y="125.421"/>
      <point x="25" y="124" type="curve" smooth="yes"/>
      <point x="56" y="47"/>
      <point x="126" y="-5"/>
      <point x="204" y="-5" type="curve"/>
      <point x="204" y="-5"/>
      <point x="206" y="-5"/>
      <point x="206" y="-5" type="curve"/>
      <point x="326" y="-5"/>
      <point x="420" y="93"/>
      <point x="420" y="215" type="curve"/>
      <point x="420" y="215"/>
      <point x="420" y="217"/>
      <point x="420" y="217" type="curve"/>
      <point x="419" y="339"/>
      <point x="326" y="436"/>
      <point x="205" y="436" type="curve" smooth="yes"/>
      <point x="141" y="436" type="line" smooth="yes"/>
      <point x="135" y="436"/>
      <point x="131" y="432"/>
      <point x="131" y="426" type="curve" smooth="yes"/>
      <point x="131" y="420"/>
      <point x="135" y="417"/>
    </contour>
    <contour>
      <point x="84" y="611" type="curve" smooth="yes"/>
      <point x="97" y="682"/>
      <point x="151" y="732"/>
      <point x="212" y="732" type="curve"/>
      <point x="212" y="732"/>
      <point x="214" y="732"/>
      <point x="214" y="732" type="curve"/>
      <point x="296" y="731"/>
      <point x="357" y="668"/>
      <point x="357" y="585" type="curve"/>
      <point x="357" y="585"/>
      <point x="357" y="583"/>
      <point x="357" y="583" type="curve"/>
      <point x="356" y="497"/>
      <point x="295" y="436"/>
      <point x="213" y="436" type="curve" smooth="yes"/>
      <point x="207" y="436"/>
      <point x="203" y="432"/>
      <point x="203" y="426" type="curve" smooth="yes"/>
      <point x="203" y="420"/>
      <point x="207" y="417"/>
      <point x="213" y="417" type="curve" smooth="yes"/>
      <point x="304" y="417"/>
      <point x="376" y="489"/>
      <point x="377" y="583" type="curve"/>
      <point x="377" y="583"/>
      <point x="377" y="585"/>
      <point x="377" y="585" type="curve"/>
      <point x="377" y="677"/>
      <point x="305" y="751"/>
      <point x="214" y="752" type="curve"/>
      <point x="214" y="752"/>
      <point x="212" y="752"/>
      <point x="212" y="752" type="curve"/>
      <point x="142" y="752"/>
      <point x="79" y="693"/>
      <point x="64" y="615" type="curve" smooth="yes"/>
      <point x="63" y="609"/>
      <point x="68" y="603"/>
      <point x="74" y="603" type="curve" smooth="yes"/>
      <point x="79" y="603"/>
      <point x="83" y="607"/>
    </contour>
    <contour>
      <point x="141" y="263" type="curve" smooth="yes"/>
      <point x="403" y="263" type="line" smooth="yes"/>
      <point x="409" y="263"/>
      <point x="413" y="266"/>
      <point x="413" y="272" type="curve" smooth="yes"/>
      <point x="413" y="278"/>
      <point x="409" y="282"/>
      <point x="403" y="282" type="curve" smooth="yes"/>
      <point x="141" y="282" type="line" smooth="yes"/>
      <point x="135" y="282"/>
      <point x="131" y="278"/>
      <point x="131" y="272" type="curve" smooth="yes"/>
      <point x="131" y="266"/>
      <point x="135" y="263"/>
    </contour>
  </outline>
</glyph>
<glyph name="eight" format="2">
  <advance width="444"/>
  <unicode hex="0038"/>
  <anchor x="220" y="-5" name="bottom"/>
  <anchor x="220" y="753" name="top"/>
  <outline>
    <contour>
      <point x="219" y="752" type="line" smooth="yes"/>
      <point x="119" y="752"/>
      <point x="42" y="669"/>
      <point x="42" y="569" type="curve" smooth="yes"/>
      <point x="42" y="467"/>
      <point x="132" y="420"/>
      <point x="219" y="376" type="curve" smooth="yes"/>
      <point x="280" y="344"/>
      <point x="395" y="296"/>
      <point x="395" y="186" type="curve" smooth="yes"/>
      <point x="395" y="90"/>
      <point x="320" y="15"/>
      <point x="226" y="15" type="curve" smooth="yes"/>
      <point x="214" y="15" type="line" smooth="yes"/>
      <point x="120" y="15"/>
      <point x="45" y="90"/>
      <point x="45" y="186" type="curve" smooth="yes"/>
      <point x="45" y="296"/>
      <point x="160" y="344"/>
      <point x="221" y="376" type="curve" smooth="yes"/>
      <point x="308" y="420"/>
      <point x="398" y="467"/>
      <point x="398" y="569" type="curve" smooth="yes"/>
      <point x="398" y="669"/>
      <point x="321" y="752"/>
      <point x="221" y="752" type="curve" smooth="yes"/>
    </contour>
    <contour>
      <point x="219" y="732" type="curve" smooth="yes"/>
      <point x="221" y="732" type="line" smooth="yes"/>
      <point x="311" y="732"/>
      <point x="378" y="660"/>
      <point x="378" y="569" type="curve" smooth="yes"/>
      <point x="378" y="479"/>
      <point x="298" y="438"/>
      <point x="212" y="394" type="curve" smooth="yes"/>
      <point x="89" y="331"/>
      <point x="26" y="298"/>
      <point x="26" y="186" type="curve" smooth="yes"/>
      <point x="26" y="81"/>
      <point x="112" y="-5"/>
      <point x="214" y="-5" type="curve" smooth="yes"/>
      <point x="226" y="-5" type="line" smooth="yes"/>
      <point x="329" y="-5"/>
      <point x="415" y="81"/>
      <point x="415" y="186" type="curve" smooth="yes"/>
      <point x="415" y="298"/>
      <point x="351" y="331"/>
      <point x="228" y="394" type="curve" smooth="yes"/>
      <point x="142" y="438"/>
      <point x="62" y="479"/>
      <point x="62" y="569" type="curve" smooth="yes"/>
      <point x="62" y="660"/>
      <point x="129" y="732"/>
    </contour>
  </outline>
</glyph>
<glyph name="equal" format="2">
  <advance width="493"/>
  <unicode hex="003D"/>
  <outline>
    <contour>
      <point x="451" y="198" type="curve" smooth="yes"/>
      <point x="42" y="198" type="line" smooth="yes"/>
      <point x="37" y="198"/>
      <point x="33" y="194"/>
      <point x="33" y="189" type="curve" smooth="yes"/>
      <point x="33" y="183"/>
      <point x="37" y="179"/>
      <point x="42" y="179" type="curve" smooth="yes"/>
      <point x="451" y="179" type="line" smooth="yes"/>
      <point x="457" y="179"/>
      <point x="461" y="183"/>
      <point x="461" y="189" type="curve" smooth="yes"/>
      <point x="461" y="194"/>
      <point x="457" y="198"/>
    </contour>
    <contour>
      <point x="451" y="397" type="curve" smooth="yes"/>
      <point x="42" y="397" type="line" smooth="yes"/>
      <point x="37" y="397"/>
      <point x="33" y="393"/>
      <point x="33" y="387" type="curve" smooth="yes"/>
      <point x="33" y="381"/>
      <point x="37" y="377"/>
      <point x="42" y="377" type="curve" smooth="yes"/>
      <point x="451" y="377" type="line" smooth="yes"/>
      <point x="457" y="377"/>
      <point x="461" y="381"/>
      <point x="461" y="387" type="curve" smooth="yes"/>
      <point x="461" y="393"/>
      <point x="457" y="397"/>
    </contour>
  </outline>
</glyph>
<glyph name="greater" format="2">
  <advance width="493"/>
  <unicode hex="003E"/>
  <outline>
    <contour>
      <point x="72" y="485" type="curve" smooth="yes"/>
      <point x="397" y="302" type="line"/>
      <point x="74" y="118" type="line" smooth="yes"/>
      <point x="71" y="116"/>
      <point x="69" y="114"/>
      <point x="69" y="110" type="curve" smooth="yes"/>
      <point x="69" y="103.25"/>
      <point x="74.062" y="99.875"/>
      <point x="79.125" y="99.875" type="curve" smooth="yes"/>
      <point x="80.812" y="99.875"/>
      <point x="82.5" y="100.25"/>
      <point x="84" y="101" type="curve" smooth="yes"/>
      <point x="415.358" y="290.213" type="line" smooth="yes"/>
      <point x="427.203" y="296.977"/>
      <point x="427.18" y="306.983"/>
      <point x="415.305" y="313.692" type="curve" smooth="yes"/>
      <point x="82" y="502" type="line" smooth="yes"/>
      <point x="80.245" y="502.877"/>
      <point x="78.234" y="503.242"/>
      <point x="76.266" y="503.093" type="curve" smooth="yes"/>
      <point x="71.505" y="502.732"/>
      <point x="67" y="499.368"/>
      <point x="67" y="493" type="curve" smooth="yes"/>
      <point x="67" y="490"/>
      <point x="69" y="487"/>
    </contour>
  </outline>
</glyph>
<glyph name="question" format="2">
  <advance width="296"/>
  <unicode hex="003F"/>
  <outline>
    <contour>
      <point x="138.725" y="144.334" type="curve" smooth="yes"/>
      <point x="132.866" y="168.741"/>
      <point x="129" y="202.57"/>
      <point x="129" y="233" type="curve" smooth="yes"/>
      <point x="129" y="332.223"/>
      <point x="170.857" y="391.502"/>
      <point x="211.389" y="448.905" type="curve" smooth="yes"/>
      <point x="246.46" y="498.574"/>
      <point x="281" y="547.49"/>
      <point x="281" y="617" type="curve" smooth="yes"/>
      <point x="281" y="699.476"/>
      <point x="231.21" y="747"/>
      <point x="147" y="747" type="curve" smooth="yes"/>
      <point x="97.87" y="747"/>
      <point x="57.569" y="725.19"/>
      <point x="27.876" y="683.832" type="curve" smooth="yes"/>
      <point x="26.695" y="682.191"/>
      <point x="26" y="680.177"/>
      <point x="26" y="678" type="curve" smooth="yes"/>
      <point x="26" y="672.477"/>
      <point x="30.477" y="668"/>
      <point x="36" y="668" type="curve" smooth="yes"/>
      <point x="47.801" y="668"/>
      <point x="63.87" y="727"/>
      <point x="147" y="727" type="curve" smooth="yes"/>
      <point x="221.99" y="727"/>
      <point x="261" y="689.724"/>
      <point x="261" y="617" type="curve" smooth="yes"/>
      <point x="261" y="553.839"/>
      <point x="230.122" y="510.11"/>
      <point x="195.051" y="460.441" type="curve" smooth="yes"/>
      <point x="154.519" y="403.038"/>
      <point x="109" y="338.573"/>
      <point x="109" y="233" type="curve" smooth="yes"/>
      <point x="109" y="201.43"/>
      <point x="113.134" y="165.259"/>
      <point x="119.275" y="139.666" type="curve" smooth="yes"/>
      <point x="120.325" y="135.269"/>
      <point x="124.281" y="132"/>
      <point x="129" y="132" type="curve" smooth="yes"/>
      <point x="135.376" y="132"/>
      <point x="140.209" y="138.133"/>
    </contour>
    <component base="period" xOffset="63"/>
  </outline>
</glyph>
<glyph name="at" format="2">
  <advance width="663"/>
  <unicode hex="0040"/>
  <outline>
    <contour>
      <point x="191" y="342" type="curve" smooth="yes"/>
      <point x="191" y="300" type="line" smooth="yes"/>
      <point x="191" y="191"/>
      <point x="246" y="118"/>
      <point x="328" y="118" type="curve" smooth="yes"/>
      <point x="336" y="118" type="line" smooth="yes"/>
      <point x="418" y="118"/>
      <point x="472" y="192"/>
      <point x="472" y="300" type="curve" smooth="yes"/>
      <point x="472" y="342" type="line" smooth="yes"/>
      <point x="472" y="454"/>
      <point x="418" y="525"/>
      <point x="336" y="525" type="curve" smooth="yes"/>
      <point x="328" y="525" type="line" smooth="yes"/>
      <point x="246" y="525"/>
      <point x="191" y="454"/>
    </contour>
    <contour>
      <point x="211" y="342" type="line" smooth="yes"/>
      <point x="211" y="446"/>
      <point x="257" y="505"/>
      <point x="328" y="505" type="curve" smooth="yes"/>
      <point x="336" y="505" type="line" smooth="yes"/>
      <point x="408" y="505"/>
      <point x="452" y="446"/>
      <point x="452" y="342" type="curve" smooth="yes"/>
      <point x="452" y="300" type="line" smooth="yes"/>
      <point x="452" y="199"/>
      <point x="408" y="138"/>
      <point x="336" y="138" type="curve" smooth="yes"/>
      <point x="328" y="138" type="line" smooth="yes"/>
      <point x="257" y="138"/>
      <point x="211" y="199"/>
      <point x="211" y="300" type="curve" smooth="yes"/>
    </contour>
    <contour>
      <point x="482" y="-4" type="curve"/>
      <point x="443" y="-38"/>
      <point x="396" y="-57"/>
      <point x="340" y="-57" type="curve" smooth="yes"/>
      <point x="324" y="-57" type="line" smooth="yes"/>
      <point x="176" y="-57"/>
      <point x="79" y="73"/>
      <point x="79" y="278" type="curve" smooth="yes"/>
      <point x="79" y="364" type="line" smooth="yes"/>
      <point x="79" y="575"/>
      <point x="176" y="701"/>
      <point x="324" y="701" type="curve" smooth="yes"/>
      <point x="340" y="701" type="line" smooth="yes"/>
      <point x="490" y="701"/>
      <point x="584" y="575"/>
      <point x="584" y="364" type="curve" smooth="yes"/>
      <point x="584" y="203" type="line" smooth="yes"/>
      <point x="584" y="155"/>
      <point x="565" y="126"/>
      <point x="531" y="126" type="curve" smooth="yes"/>
      <point x="526" y="126" type="line" smooth="yes"/>
      <point x="493" y="126"/>
      <point x="472" y="155"/>
      <point x="472" y="203" type="curve" smooth="yes"/>
      <point x="472" y="226" type="line"/>
      <point x="472" y="516" type="line" smooth="yes"/>
      <point x="472" y="522"/>
      <point x="468" y="526"/>
      <point x="462" y="526" type="curve" smooth="yes"/>
      <point x="456" y="526"/>
      <point x="452" y="522"/>
      <point x="452" y="516" type="curve" smooth="yes"/>
      <point x="452" y="226" type="line"/>
      <point x="452" y="203" type="line" smooth="yes"/>
      <point x="452" y="148"/>
      <point x="482" y="107"/>
      <point x="526" y="107" type="curve" smooth="yes"/>
      <point x="531" y="107" type="line" smooth="yes"/>
      <point x="575" y="107"/>
      <point x="604" y="148"/>
      <point x="604" y="203" type="curve" smooth="yes"/>
      <point x="604" y="364" type="line" smooth="yes"/>
      <point x="604" y="583"/>
      <point x="500" y="721"/>
      <point x="340" y="721" type="curve" smooth="yes"/>
      <point x="324" y="721" type="line" smooth="yes"/>
      <point x="165" y="721"/>
      <point x="59" y="583"/>
      <point x="59" y="364" type="curve" smooth="yes"/>
      <point x="59" y="278" type="line" smooth="yes"/>
      <point x="59" y="65"/>
      <point x="165" y="-77"/>
      <point x="324" y="-77" type="curve" smooth="yes"/>
      <point x="340" y="-77" type="line" smooth="yes"/>
      <point x="400" y="-77"/>
      <point x="453" y="-56"/>
      <point x="495" y="-20" type="curve" smooth="yes"/>
      <point x="497" y="-18"/>
      <point x="498" y="-15"/>
      <point x="498" y="-12" type="curve" smooth="yes"/>
      <point x="498" y="-6"/>
      <point x="494" y="-2"/>
      <point x="489" y="-2" type="curve" smooth="yes"/>
      <point x="486" y="-2"/>
      <point x="484" y="-3"/>
    </contour>
  </outline>
</glyph>
<glyph name="B" format="2">
  <advance width="468"/>
  <unicode hex="0042"/>
  <anchor x="234" y="-5" name="bottom"/>
  <anchor x="234" y="374" name="center"/>
  <anchor x="234" y="753" name="top"/>
  <outline>
    <contour>
      <point x="87" y="0" type="curve" smooth="yes"/>
      <point x="232" y="0" type="line" smooth="yes"/>
      <point x="343" y="0"/>
      <point x="418" y="89"/>
      <point x="418" y="196" type="curve" smooth="yes"/>
      <point x="418" y="212" type="line" smooth="yes"/>
      <point x="418" y="321"/>
      <point x="343" y="409"/>
      <point x="232" y="409" type="curve" smooth="yes"/>
      <point x="80" y="409" type="line"/>
      <point x="80" y="389" type="line"/>
      <point x="216" y="389" type="line" smooth="yes"/>
      <point x="317" y="389"/>
      <point x="384" y="469"/>
      <point x="384" y="563" type="curve" smooth="yes"/>
      <point x="384" y="573" type="line" smooth="yes"/>
      <point x="384" y="668"/>
      <point x="317" y="747"/>
      <point x="216" y="747" type="curve" smooth="yes"/>
      <point x="87" y="747" type="line" smooth="yes"/>
      <point x="75.95" y="747"/>
      <point x="70" y="741.05"/>
      <point x="70" y="730" type="curve" smooth="yes"/>
      <point x="70" y="17" type="line" smooth="yes"/>
      <point x="70" y="5.95"/>
      <point x="75.95" y="0"/>
    </contour>
    <contour>
      <point x="232" y="20" type="curve" smooth="yes"/>
      <point x="90" y="20" type="line"/>
      <point x="90" y="727" type="line"/>
      <point x="216" y="727" type="line" smooth="yes"/>
      <point x="306" y="727"/>
      <point x="364" y="659"/>
      <point x="364" y="573" type="curve" smooth="yes"/>
      <point x="364" y="563" type="line" smooth="yes"/>
      <point x="364" y="478"/>
      <point x="306" y="409"/>
      <point x="216" y="409" type="curve" smooth="yes"/>
      <point x="80" y="409" type="line"/>
      <point x="80" y="389" type="line"/>
      <point x="232" y="389" type="line" smooth="yes"/>
      <point x="333" y="389"/>
      <point x="398" y="312"/>
      <point x="398" y="212" type="curve" smooth="yes"/>
      <point x="398" y="196" type="line" smooth="yes"/>
      <point x="398" y="98"/>
      <point x="333" y="20"/>
    </contour>
    <contour>
      <point x="146" y="727" type="curve" smooth="yes"/>
      <point x="236" y="727"/>
      <point x="294" y="659"/>
      <point x="294" y="573" type="curve" smooth="yes"/>
      <point x="294" y="563" type="line" smooth="yes"/>
      <point x="294" y="478"/>
      <point x="236" y="409"/>
      <point x="146" y="409" type="curve" smooth="yes"/>
      <point x="140" y="409"/>
      <point x="136" y="405"/>
      <point x="136" y="399" type="curve" smooth="yes"/>
      <point x="136" y="393"/>
      <point x="140" y="389"/>
      <point x="146" y="389" type="curve" smooth="yes"/>
      <point x="247" y="389"/>
      <point x="314" y="469"/>
      <point x="314" y="563" type="curve" smooth="yes"/>
      <point x="314" y="573" type="line" smooth="yes"/>
      <point x="314" y="668"/>
      <point x="247" y="747"/>
      <point x="146" y="747" type="curve" smooth="yes"/>
      <point x="140" y="747"/>
      <point x="136" y="743"/>
      <point x="136" y="737" type="curve" smooth="yes"/>
      <point x="136" y="731"/>
      <point x="140" y="727"/>
    </contour>
  </outline>
</glyph>
<glyph name="D" format="2">
  <advance width="513"/>
  <unicode hex="0044"/>
  <anchor x="237" y="-5" name="bottom"/>
  <anchor x="252" y="374" name="center"/>
  <anchor x="237" y="753" name="top"/>
  <outline>
    <contour>
      <point x="231" y="747" type="curve" smooth="yes"/>
      <point x="87" y="747" type="line" smooth="yes"/>
      <point x="75.95" y="747"/>
      <point x="70" y="741.05"/>
      <point x="70" y="730" type="curve" smooth="yes"/>
      <point x="70" y="17" type="line" smooth="yes"/>
      <point x="70" y="5.95"/>
      <point x="75.95" y="0"/>
      <point x="87" y="0" type="curve" smooth="yes"/>
      <point x="231" y="0" type="line" smooth="yes"/>
      <point x="365" y="0"/>
      <point x="453" y="135"/>
      <point x="453" y="330" type="curve" smooth="yes"/>
      <point x="453" y="418" type="line" smooth="yes"/>
      <point x="453" y="614"/>
      <point x="365" y="747"/>
    </contour>
    <contour>
      <point x="90" y="727" type="line"/>
      <point x="231" y="727" type="line" smooth="yes"/>
      <point x="353" y="727"/>
      <point x="433" y="608"/>
      <point x="433" y="418" type="curve" smooth="yes"/>
      <point x="433" y="330" type="line" smooth="yes"/>
      <point x="433" y="141"/>
      <point x="353" y="20"/>
      <point x="231" y="20" type="curve" smooth="yes"/>
      <point x="90" y="20" type="line"/>
    </contour>
    <contour>
      <point x="139" y="727" type="curve" smooth="yes"/>
      <point x="262" y="727"/>
      <point x="342" y="608"/>
      <point x="342" y="418" type="curve" smooth="yes"/>
      <point x="342" y="330" type="line" smooth="yes"/>
      <point x="342" y="141"/>
      <point x="262" y="20"/>
      <point x="139" y="20" type="curve" smooth="yes"/>
      <point x="133" y="20"/>
      <point x="129" y="16"/>
      <point x="129" y="10" type="curve" smooth="yes"/>
      <point x="129" y="4"/>
      <point x="133" y="0"/>
      <point x="139" y="0" type="curve" smooth="yes"/>
      <point x="273" y="0"/>
      <point x="361" y="135"/>
      <point x="361" y="330" type="curve" smooth="yes"/>
      <point x="361" y="418" type="line" smooth="yes"/>
      <point x="361" y="614"/>
      <point x="273" y="747"/>
      <point x="139" y="747" type="curve" smooth="yes"/>
      <point x="133" y="747"/>
      <point x="129" y="743"/>
      <point x="129" y="737" type="curve" smooth="yes"/>
      <point x="129" y="731"/>
      <point x="133" y="727"/>
    </contour>
  </outline>
</glyph>
<glyph name="E" format="2">
  <advance width="431"/>
  <unicode hex="0045"/>
  <anchor x="218" y="-5" name="bottom"/>
  <anchor x="347" y="5" name="ogonek"/>
  <anchor x="218" y="753" name="top"/>
  <anchor x="21" y="753" name="topleft"/>
  <outline>
    <contour>
      <point x="366" y="20" type="curve" smooth="yes"/>
      <point x="90" y="20" type="line"/>
      <point x="90" y="727" type="line"/>
      <point x="366" y="727" type="line" smooth="yes"/>
      <point x="372" y="727"/>
      <point x="376" y="731"/>
      <point x="376" y="737" type="curve" smooth="yes"/>
      <point x="376" y="743"/>
      <point x="372" y="747"/>
      <point x="366" y="747" type="curve" smooth="yes"/>
      <point x="87" y="747" type="line" smooth="yes"/>
      <point x="75.95" y="747"/>
      <point x="70" y="741.05"/>
      <point x="70" y="730" type="curve" smooth="yes"/>
      <point x="70" y="17" type="line" smooth="yes"/>
      <point x="70" y="5.95"/>
      <point x="75.95" y="0"/>
      <point x="87" y="0" type="curve" smooth="yes"/>
      <point x="366" y="0" type="line" smooth="yes"/>
      <point x="372" y="0"/>
      <point x="376" y="4"/>
      <point x="376" y="10" type="curve" smooth="yes"/>
      <point x="376" y="16"/>
      <point x="372" y="20"/>
    </contour>
    <contour>
      <point x="342" y="392" type="curve" smooth="yes"/>
      <point x="80" y="392" type="line" smooth="yes"/>
      <point x="74" y="392"/>
      <point x="70" y="388"/>
      <point x="70" y="382" type="curve" smooth="yes"/>
      <point x="70" y="376"/>
      <point x="74" y="372"/>
      <point x="80" y="372" type="curve" smooth="yes"/>
      <point x="342" y="372" type="line" smooth="yes"/>
      <point x="347" y="372"/>
      <point x="351" y="376"/>
      <point x="351" y="382" type="curve" smooth="yes"/>
      <point x="351" y="388"/>
      <point x="347" y="392"/>
    </contour>
    <contour>
      <point x="342" y="516" type="curve" smooth="yes"/>
      <point x="80" y="516" type="line" smooth="yes"/>
      <point x="74" y="516"/>
      <point x="70" y="512"/>
      <point x="70" y="506" type="curve" smooth="yes"/>
      <point x="70" y="500"/>
      <point x="74" y="496"/>
      <point x="80" y="496" type="curve" smooth="yes"/>
      <point x="342" y="496" type="line" smooth="yes"/>
      <point x="347" y="496"/>
      <point x="351" y="500"/>
      <point x="351" y="506" type="curve" smooth="yes"/>
      <point x="351" y="512"/>
      <point x="347" y="516"/>
    </contour>
  </outline>
</glyph>
<glyph name="H" format="2">
  <advance width="466"/>
  <unicode hex="0048"/>
  <anchor x="233" y="-5" name="bottom"/>
  <anchor x="233" y="374" name="center"/>
  <anchor x="233" y="753" name="top"/>
  <anchor x="21" y="753" name="topleft"/>
  <outline>
    <contour>
      <point x="70" y="737" type="curve" smooth="yes"/>
      <point x="70" y="10" type="line" smooth="yes"/>
      <point x="70" y="4"/>
      <point x="74" y="0"/>
      <point x="80" y="0" type="curve" smooth="yes"/>
      <point x="86" y="0"/>
      <point x="90" y="4"/>
      <point x="90" y="10" type="curve" smooth="yes"/>
      <point x="90" y="737" type="line" smooth="yes"/>
      <point x="90" y="743"/>
      <point x="86" y="747"/>
      <point x="80" y="747" type="curve" smooth="yes"/>
      <point x="74" y="747"/>
      <point x="70" y="743"/>
    </contour>
    <contour>
      <point x="376" y="737" type="curve" smooth="yes"/>
      <point x="376" y="10" type="line" smooth="yes"/>
      <point x="376" y="4"/>
      <point x="380" y="0"/>
      <point x="386" y="0" type="curve" smooth="yes"/>
      <point x="392" y="0"/>
      <point x="396" y="4"/>
      <point x="396" y="10" type="curve" smooth="yes"/>
      <point x="396" y="737" type="line" smooth="yes"/>
      <point x="396" y="743"/>
      <point x="392" y="747"/>
      <point x="386" y="747" type="curve" smooth="yes"/>
      <point x="380" y="747"/>
      <point x="376" y="743"/>
    </contour>
    <contour>
      <point x="386" y="396" type="curve" smooth="yes"/>
      <point x="80" y="396" type="line" smooth="yes"/>
      <point x="74" y="396"/>
      <point x="70" y="392"/>
      <point x="70" y="386" type="curve" smooth="yes"/>
      <point x="70" y="380"/>
      <point x="74" y="376"/>
      <point x="80" y="376" type="curve" smooth="yes"/>
      <point x="386" y="376" type="line" smooth="yes"/>
      <point x="392" y="376"/>
      <point x="396" y="380"/>
      <point x="396" y="386" type="curve" smooth="yes"/>
      <point x="396" y="392"/>
      <point x="392" y="396"/>
    </contour>
    <contour>
      <point x="386" y="257" type="curve" smooth="yes"/>
      <point x="80" y="257" type="line" smooth="yes"/>
      <point x="74" y="257"/>
      <point x="70" y="253"/>
      <point x="70" y="247" type="curve" smooth="yes"/>
      <point x="70" y="241"/>
      <point x="74" y="237"/>
      <point x="80" y="237" type="curve" smooth="yes"/>
      <point x="386" y="237" type="line" smooth="yes"/>
      <point x="392" y="237"/>
      <point x="396" y="241"/>
      <point x="396" y="247" type="curve" smooth="yes"/>
      <point x="396" y="253"/>
      <point x="392" y="257"/>
    </contour>
  </outline>
</glyph>
<glyph name="J" format="2">
  <advance width="461.13"/>
  <unicode hex="004A"/>
  <anchor x="230.13" y="-5" name="bottom"/>
  <anchor x="230.13" y="753" name="top"/>
  <outline>
    <contour>
      <point x="160.13" y="727" type="curve" smooth="yes"/>
      <point x="371.13" y="727" type="line"/>
      <point x="371.13" y="268" type="line" smooth="yes"/>
      <point x="371.13" y="103"/>
      <point x="305.13" y="15"/>
      <point x="184.13" y="15" type="curve" smooth="yes"/>
      <point x="170.13" y="15" type="line" smooth="yes"/>
      <point x="106.13" y="15"/>
      <point x="63.13" y="40"/>
      <point x="38.13" y="87" type="curve"/>
      <point x="37.13" y="90"/>
      <point x="34.13" y="92"/>
      <point x="30.13" y="92" type="curve" smooth="yes"/>
      <point x="23.818" y="91.841"/>
      <point x="20.023" y="86.648"/>
      <point x="20.003" y="81.572" type="curve" smooth="yes"/>
      <point x="19.997" y="79.984"/>
      <point x="20.359" y="78.408"/>
      <point x="21.13" y="77" type="curve" smooth="yes"/>
      <point x="49.13" y="26"/>
      <point x="99.13" y="-5"/>
      <point x="170.13" y="-5" type="curve" smooth="yes"/>
      <point x="184.13" y="-5" type="line" smooth="yes"/>
      <point x="316.13" y="-5"/>
      <point x="391.13" y="95"/>
      <point x="391.13" y="268" type="curve" smooth="yes"/>
      <point x="391.13" y="730" type="line" smooth="yes"/>
      <point x="391.13" y="741.05"/>
      <point x="385.18" y="747"/>
      <point x="374.13" y="747" type="curve" smooth="yes"/>
      <point x="160.13" y="747" type="line" smooth="yes"/>
      <point x="154.13" y="747"/>
      <point x="150.13" y="743"/>
      <point x="150.13" y="737" type="curve" smooth="yes"/>
      <point x="150.13" y="731"/>
      <point x="154.13" y="727"/>
    </contour>
    <contour>
      <point x="283.13" y="27" type="curve" smooth="yes"/>
      <point x="283.13" y="737" type="line" smooth="yes"/>
      <point x="283.13" y="743"/>
      <point x="279.13" y="747"/>
      <point x="273.13" y="747" type="curve" smooth="yes"/>
      <point x="267.13" y="747"/>
      <point x="264.13" y="743"/>
      <point x="264.13" y="737" type="curve" smooth="yes"/>
      <point x="264.13" y="27" type="line" smooth="yes"/>
      <point x="264.13" y="21"/>
      <point x="267.13" y="17"/>
      <point x="273.13" y="17" type="curve" smooth="yes"/>
      <point x="279.13" y="17"/>
      <point x="283.13" y="21"/>
    </contour>
  </outline>
</glyph>
<glyph name="K" format="2">
  <advance width="405.85"/>
  <unicode hex="004B"/>
  <anchor x="218" y="-5" name="bottom"/>
  <anchor x="218" y="753" name="top"/>
  <outline>
    <contour>
      <point x="90" y="10" type="curve" smooth="yes"/>
      <point x="90" y="737" type="line" smooth="yes"/>
      <point x="90" y="743"/>
      <point x="86" y="747"/>
      <point x="80" y="747" type="curve" smooth="yes"/>
      <point x="74" y="747"/>
      <point x="70" y="743"/>
      <point x="70" y="737" type="curve" smooth="yes"/>
      <point x="70" y="10" type="line" smooth="yes"/>
      <point x="70" y="4"/>
      <point x="74" y="0"/>
      <point x="80" y="0" type="curve" smooth="yes"/>
      <point x="86" y="0"/>
      <point x="90" y="4"/>
    </contour>
    <contour>
      <point x="88" y="346" type="curve"/>
      <point x="367" y="731" type="line" smooth="yes"/>
      <point x="368" y="733"/>
      <point x="369" y="735"/>
      <point x="369" y="737" type="curve" smooth="yes"/>
      <point x="369" y="743"/>
      <point x="365" y="747"/>
      <point x="359" y="747" type="curve" smooth="yes"/>
      <point x="356" y="747"/>
      <point x="352.66" y="745.29"/>
      <point x="351" y="743" type="curve" smooth="yes"/>
      <point x="72" y="358" type="line" smooth="yes"/>
      <point x="71" y="356"/>
      <point x="70" y="354"/>
      <point x="70" y="352" type="curve" smooth="yes"/>
      <point x="70" y="346"/>
      <point x="74" y="342"/>
      <point x="80" y="342" type="curve" smooth="yes"/>
      <point x="83" y="342"/>
      <point x="86" y="344"/>
    </contour>
    <contour>
      <point x="170" y="484" type="curve" smooth="yes"/>
      <point x="367" y="6" type="line" smooth="yes"/>
      <point x="368" y="3"/>
      <point x="372" y="0"/>
      <point x="376" y="0" type="curve" smooth="yes"/>
      <point x="381.536" y="0"/>
      <point x="385.788" y="4.359"/>
      <point x="385.848" y="9.707" type="curve" smooth="yes"/>
      <point x="385.863" y="11.091"/>
      <point x="385.597" y="12.542"/>
      <point x="385" y="14" type="curve" smooth="yes"/>
      <point x="188" y="492" type="line" smooth="yes"/>
      <point x="187" y="494"/>
      <point x="183" y="497"/>
      <point x="179" y="497" type="curve" smooth="yes"/>
      <point x="173.288" y="497.353"/>
      <point x="169.013" y="493.139"/>
      <point x="169.014" y="488.136" type="curve" smooth="yes"/>
      <point x="169.015" y="486.79"/>
      <point x="169.325" y="485.387"/>
    </contour>
    <contour>
      <point x="117" y="409" type="curve" smooth="yes"/>
      <point x="285" y="6" type="line" smooth="yes"/>
      <point x="286" y="3"/>
      <point x="290" y="0"/>
      <point x="294" y="0" type="curve" smooth="yes"/>
      <point x="299.584" y="0"/>
      <point x="303.841" y="4.336"/>
      <point x="303.886" y="9.664" type="curve" smooth="yes"/>
      <point x="303.898" y="11.061"/>
      <point x="303.62" y="12.527"/>
      <point x="303" y="14" type="curve" smooth="yes"/>
      <point x="135" y="417" type="line" smooth="yes"/>
      <point x="134" y="419"/>
      <point x="130" y="422"/>
      <point x="126" y="422" type="curve" smooth="yes"/>
      <point x="120.622" y="422.357"/>
      <point x="116.336" y="417.778"/>
      <point x="116.341" y="412.52" type="curve" smooth="yes"/>
      <point x="116.342" y="411.365"/>
      <point x="116.55" y="410.176"/>
    </contour>
  </outline>
</glyph>
<glyph name="L" format="2">
  <advance width="396"/>
  <unicode hex="004C"/>
  <anchor x="239.42" y="-5" name="bottom"/>
  <anchor x="198" y="374" name="center"/>
  <anchor x="198" y="753" name="top"/>
  <anchor x="376" y="753" name="topright"/>
  <outline>
    <contour>
      <point x="366" y="20" type="curve" smooth="yes"/>
      <point x="90" y="20" type="line"/>
      <point x="90" y="737" type="line" smooth="yes"/>
      <point x="90" y="743"/>
      <point x="86" y="747"/>
      <point x="80" y="747" type="curve" smooth="yes"/>
      <point x="74" y="747"/>
      <point x="70" y="743"/>
      <point x="70" y="737" type="curve" smooth="yes"/>
      <point x="70" y="17" type="line" smooth="yes"/>
      <point x="70" y="5.95"/>
      <point x="75.95" y="0"/>
      <point x="87" y="0" type="curve" smooth="yes"/>
      <point x="366" y="0" type="line" smooth="yes"/>
      <point x="372" y="0"/>
      <point x="376" y="4"/>
      <point x="376" y="10" type="curve" smooth="yes"/>
      <point x="376" y="16"/>
      <point x="372" y="20"/>
    </contour>
    <contour>
      <point x="366" y="144" type="curve" smooth="yes"/>
      <point x="80" y="144" type="line" smooth="yes"/>
      <point x="74" y="144"/>
      <point x="70" y="140"/>
      <point x="70" y="134" type="curve" smooth="yes"/>
      <point x="70" y="128"/>
      <point x="74" y="124"/>
      <point x="80" y="124" type="curve" smooth="yes"/>
      <point x="366" y="124" type="line" smooth="yes"/>
      <point x="372" y="124"/>
      <point x="376" y="128"/>
      <point x="376" y="134" type="curve" smooth="yes"/>
      <point x="376" y="140"/>
      <point x="372" y="144"/>
    </contour>
  </outline>
</glyph>
<glyph name="M" format="2">
  <advance width="531"/>
  <unicode hex="004D"/>
  <anchor x="266" y="-5" name="bottom"/>
  <anchor x="266" y="753" name="top"/>
  <outline>
    <contour>
      <point x="70" y="737" type="curve" smooth="yes"/>
      <point x="70" y="10" type="line" smooth="yes"/>
      <point x="70" y="4"/>
      <point x="74" y="0"/>
      <point x="80" y="0" type="curve" smooth="yes"/>
      <point x="86" y="0"/>
      <point x="90" y="4"/>
      <point x="90" y="10" type="curve" smooth="yes"/>
      <point x="90" y="722" type="line" smooth="yes"/>
      <point x="90" y="728"/>
      <point x="86" y="747"/>
      <point x="80" y="747" type="curve" smooth="yes"/>
      <point x="74" y="747"/>
      <point x="70" y="743"/>
    </contour>
    <contour>
      <point x="275" y="10" type="curve" smooth="yes"/>
      <point x="275" y="339" type="line" smooth="yes"/>
      <point x="275" y="344"/>
      <point x="271" y="348"/>
      <point x="266" y="348" type="curve" smooth="yes"/>
      <point x="260" y="348"/>
      <point x="256" y="344"/>
      <point x="256" y="339" type="curve" smooth="yes"/>
      <point x="256" y="10" type="line" smooth="yes"/>
      <point x="256" y="4"/>
      <point x="260" y="0"/>
      <point x="266" y="0" type="curve" smooth="yes"/>
      <point x="271" y="0"/>
      <point x="275" y="4"/>
    </contour>
    <contour>
      <point x="461" y="10" type="curve" smooth="yes"/>
      <point x="461" y="737" type="line" smooth="yes"/>
      <point x="461" y="743"/>
      <point x="457" y="747"/>
      <point x="451" y="747" type="curve" smooth="yes"/>
      <point x="445" y="747"/>
      <point x="441" y="728"/>
      <point x="441" y="722" type="curve" smooth="yes"/>
      <point x="441" y="10" type="line" smooth="yes"/>
      <point x="441" y="4"/>
      <point x="445" y="0"/>
      <point x="451" y="0" type="curve" smooth="yes"/>
      <point x="457" y="0"/>
      <point x="461" y="4"/>
    </contour>
    <contour>
      <point x="441.547" y="741.096" type="curve" smooth="yes"/>
      <point x="266" y="362" type="line"/>
      <point x="89" y="741" type="line" smooth="yes"/>
      <point x="87.108" y="745.052"/>
      <point x="84" y="747"/>
      <point x="80" y="747" type="curve" smooth="yes"/>
      <point x="73.734" y="747"/>
      <point x="70.922" y="742.092"/>
      <point x="71.005" y="737.082" type="curve" smooth="yes"/>
      <point x="71.028" y="735.695"/>
      <point x="70.385" y="734.318"/>
      <point x="71" y="733" type="curve" smooth="yes"/>
      <point x="266" y="315" type="line"/>
      <point x="460" y="733" type="line" smooth="yes"/>
      <point x="460.602" y="734.297"/>
      <point x="459.961" y="735.648"/>
      <point x="459.993" y="737.011" type="curve" smooth="yes"/>
      <point x="460.114" y="742.046"/>
      <point x="457.295" y="747"/>
      <point x="451" y="747" type="curve" smooth="yes"/>
      <point x="447" y="747"/>
      <point x="443.431" y="745.152"/>
    </contour>
  </outline>
</glyph>
<glyph name="N" format="2">
  <advance width="448.93"/>
  <unicode hex="004E"/>
  <anchor x="224.91" y="-5" name="bottom"/>
  <anchor x="224.91" y="753" name="top"/>
  <outline>
    <contour>
      <point x="70" y="737.289" type="curve" smooth="yes"/>
      <point x="70" y="9.87" type="line" smooth="yes"/>
      <point x="70" y="4"/>
      <point x="73.948" y="0"/>
      <point x="79.87" y="0" type="curve" smooth="yes"/>
      <point x="85.792" y="0"/>
      <point x="89.74" y="3.998"/>
      <point x="89.74" y="9.87" type="curve" smooth="yes"/>
      <point x="89.74" y="737.289" type="line" smooth="yes"/>
      <point x="89.74" y="743.003"/>
      <point x="85.792" y="747.159"/>
      <point x="79.87" y="747.159" type="curve" smooth="yes"/>
      <point x="73.948" y="747.159"/>
      <point x="70" y="743"/>
    </contour>
    <contour>
      <point x="268.91" y="14" type="curve" smooth="yes"/>
      <point x="89.139" y="455.438" type="line" smooth="yes"/>
      <point x="87.946" y="458.367"/>
      <point x="84.139" y="461.438"/>
      <point x="80.139" y="461.438" type="curve" smooth="yes"/>
      <point x="74.56" y="461.438"/>
      <point x="70.252" y="456.993"/>
      <point x="70.251" y="451.644" type="curve" smooth="yes"/>
      <point x="70.25" y="450.281"/>
      <point x="70.553" y="448.87"/>
      <point x="71.139" y="447.438" type="curve" smooth="yes"/>
      <point x="251.91" y="6" type="line" smooth="yes"/>
      <point x="253.11" y="3.074"/>
      <point x="256.91" y="0"/>
      <point x="260.91" y="0" type="curve" smooth="yes"/>
      <point x="265.674" y="0"/>
      <point x="269.807" y="4.412"/>
      <point x="269.807" y="9.734" type="curve" smooth="yes"/>
      <point x="269.807" y="11.115"/>
      <point x="269.503" y="12.547"/>
    </contour>
    <contour>
      <point x="359.191" y="737.289" type="curve" smooth="yes"/>
      <point x="359.191" y="9.87" type="line" smooth="yes"/>
      <point x="359.191" y="3.993"/>
      <point x="363.139" y="0"/>
      <point x="369.061" y="0" type="curve" smooth="yes"/>
      <point x="374.983" y="0"/>
      <point x="378.931" y="4"/>
      <point x="378.931" y="9.87" type="curve" smooth="yes"/>
      <point x="378.931" y="737.289" type="line" smooth="yes"/>
      <point x="378.931" y="743"/>
      <point x="374.983" y="747.159"/>
      <point x="369.061" y="747.159" type="curve" smooth="yes"/>
      <point x="363.139" y="747.159"/>
      <point x="359.191" y="743.007"/>
    </contour>
    <contour>
      <point x="377.944" y="13.818" type="curve" smooth="yes"/>
      <point x="88.753" y="741.237" type="line" smooth="yes"/>
      <point x="87.687" y="743.918"/>
      <point x="83.818" y="747.159"/>
      <point x="79.87" y="747.159" type="curve" smooth="yes"/>
      <point x="74.299" y="747"/>
      <point x="70.094" y="742.553"/>
      <point x="70.094" y="737.143" type="curve" smooth="yes"/>
      <point x="70.094" y="735.803"/>
      <point x="70.529" y="734.492"/>
      <point x="70.987" y="733.341" type="curve" smooth="yes"/>
      <point x="360.178" y="5.922" type="line" smooth="yes"/>
      <point x="361.286" y="3.135"/>
      <point x="365.113" y="0"/>
      <point x="369.061" y="0" type="curve" smooth="yes"/>
      <point x="374.521" y="0"/>
      <point x="378.726" y="4.447"/>
      <point x="378.726" y="9.857" type="curve" smooth="yes"/>
      <point x="378.726" y="11.197"/>
      <point x="378.436" y="12.582"/>
    </contour>
  </outline>
</glyph>
<glyph name="O" format="2">
  <advance width="549"/>
  <unicode hex="004F"/>
  <anchor x="274" y="-5" name="bottom"/>
  <anchor x="274" y="374" name="center"/>
  <anchor x="293.829" y="2" name="ogonek"/>
  <anchor x="274" y="753" name="top"/>
  <anchor x="21" y="753" name="topleft"/>
  <anchor x="528" y="753" name="topright"/>
  <outline>
    <contour>
      <point x="60" y="479" type="curve" smooth="yes"/>
      <point x="60" y="268" type="line" smooth="yes"/>
      <point x="60" y="95"/>
      <point x="135" y="-5"/>
      <point x="267" y="-5" type="curve" smooth="yes"/>
      <point x="281" y="-5" type="line" smooth="yes"/>
      <point x="414" y="-5"/>
      <point x="489" y="95"/>
      <point x="489" y="268" type="curve" smooth="yes"/>
      <point x="489" y="479" type="line" smooth="yes"/>
      <point x="489" y="653"/>
      <point x="414" y="752"/>
      <point x="281" y="752" type="curve" smooth="yes"/>
      <point x="267" y="752" type="line" smooth="yes"/>
      <point x="135" y="752"/>
      <point x="60" y="653"/>
    </contour>
    <contour>
      <point x="80" y="479" type="line" smooth="yes"/>
      <point x="80" y="645"/>
      <point x="146" y="732"/>
      <point x="267" y="732" type="curve" smooth="yes"/>
      <point x="281" y="732" type="line" smooth="yes"/>
      <point x="403" y="732"/>
      <point x="469" y="645"/>
      <point x="469" y="479" type="curve" smooth="yes"/>
      <point x="469" y="268" type="line" smooth="yes"/>
      <point x="469" y="103"/>
      <point x="403" y="15"/>
      <point x="281" y="15" type="curve" smooth="yes"/>
      <point x="267" y="15" type="line" smooth="yes"/>
      <point x="146" y="15"/>
      <point x="80" y="103"/>
      <point x="80" y="268" type="curve" smooth="yes"/>
    </contour>
    <contour>
      <point x="223" y="728" type="curve" smooth="yes"/>
      <point x="319" y="711"/>
      <point x="370" y="625"/>
      <point x="370" y="479" type="curve" smooth="yes"/>
      <point x="370" y="268" type="line" smooth="yes"/>
      <point x="370" y="122"/>
      <point x="319" y="38"/>
      <point x="224" y="19" type="curve" smooth="yes"/>
      <point x="219" y="18"/>
      <point x="216" y="14"/>
      <point x="216" y="9" type="curve" smooth="yes"/>
      <point x="216" y="3"/>
      <point x="222" y="-2"/>
      <point x="228" y="-1" type="curve" smooth="yes"/>
      <point x="332" y="20"/>
      <point x="390" y="115"/>
      <point x="390" y="268" type="curve" smooth="yes"/>
      <point x="390" y="479" type="line" smooth="yes"/>
      <point x="390" y="632"/>
      <point x="332" y="728"/>
      <point x="227" y="748" type="curve" smooth="yes"/>
      <point x="221" y="749"/>
      <point x="215" y="744"/>
      <point x="215" y="738" type="curve" smooth="yes"/>
      <point x="215" y="733"/>
      <point x="219" y="729"/>
    </contour>
  </outline>
</glyph>
<glyph name="P" format="2">
  <advance width="424"/>
  <unicode hex="0050"/>
  <anchor x="212" y="-5" name="bottom"/>
  <anchor x="212" y="753" name="top"/>
  <outline>
    <contour>
      <point x="90" y="10" type="curve" smooth="yes"/>
      <point x="90" y="727" type="line"/>
      <point x="216" y="727" type="line" smooth="yes"/>
      <point x="306" y="727"/>
      <point x="364" y="653"/>
      <point x="364" y="556" type="curve" smooth="yes"/>
      <point x="364" y="545" type="line" smooth="yes"/>
      <point x="364" y="449"/>
      <point x="306" y="374"/>
      <point x="216" y="374" type="curve" smooth="yes"/>
      <point x="80" y="374" type="line" smooth="yes"/>
      <point x="74" y="374"/>
      <point x="70" y="370"/>
      <point x="70" y="364" type="curve" smooth="yes"/>
      <point x="70" y="358"/>
      <point x="74" y="354"/>
      <point x="80" y="354" type="curve" smooth="yes"/>
      <point x="216" y="354" type="line" smooth="yes"/>
      <point x="317" y="354"/>
      <point x="384" y="441"/>
      <point x="384" y="545" type="curve" smooth="yes"/>
      <point x="384" y="556" type="line" smooth="yes"/>
      <point x="384" y="661"/>
      <point x="317" y="747"/>
      <point x="216" y="747" type="curve" smooth="yes"/>
      <point x="87" y="747" type="line" smooth="yes"/>
      <point x="75.95" y="747"/>
      <point x="70" y="741.05"/>
      <point x="70" y="730" type="curve" smooth="yes"/>
      <point x="70" y="10" type="line" smooth="yes"/>
      <point x="70" y="4"/>
      <point x="74" y="0"/>
      <point x="80" y="0" type="curve" smooth="yes"/>
      <point x="86" y="0"/>
      <point x="90" y="4"/>
    </contour>
    <contour>
      <point x="146" y="727" type="curve" smooth="yes"/>
      <point x="236" y="727"/>
      <point x="294" y="653"/>
      <point x="294" y="556" type="curve" smooth="yes"/>
      <point x="294" y="545" type="line" smooth="yes"/>
      <point x="294" y="449"/>
      <point x="236" y="374"/>
      <point x="146" y="374" type="curve" smooth="yes"/>
      <point x="140" y="374"/>
      <point x="136" y="370"/>
      <point x="136" y="364" type="curve" smooth="yes"/>
      <point x="136" y="358"/>
      <point x="140" y="354"/>
      <point x="146" y="354" type="curve" smooth="yes"/>
      <point x="247" y="354"/>
      <point x="314" y="441"/>
      <point x="314" y="545" type="curve" smooth="yes"/>
      <point x="314" y="556" type="line" smooth="yes"/>
      <point x="314" y="661"/>
      <point x="247" y="747"/>
      <point x="146" y="747" type="curve" smooth="yes"/>
      <point x="140" y="747"/>
      <point x="136" y="743"/>
      <point x="136" y="737" type="curve" smooth="yes"/>
      <point x="136" y="731"/>
      <point x="140" y="727"/>
    </contour>
  </outline>
</glyph>
<glyph name="R" format="2">
  <advance width="447"/>
  <unicode hex="0052"/>
  <anchor x="224" y="-5" name="bottom"/>
  <anchor x="224" y="753" name="top"/>
  <outline>
    <contour>
      <point x="90" y="10" type="curve" smooth="yes"/>
      <point x="90" y="727" type="line"/>
      <point x="241" y="727" type="line" smooth="yes"/>
      <point x="331" y="727"/>
      <point x="389" y="658"/>
      <point x="389" y="570" type="curve" smooth="yes"/>
      <point x="389" y="560" type="line" smooth="yes"/>
      <point x="389" y="474"/>
      <point x="331" y="404"/>
      <point x="241" y="404" type="curve" smooth="yes"/>
      <point x="80" y="404" type="line" smooth="yes"/>
      <point x="74" y="404"/>
      <point x="70" y="400"/>
      <point x="70" y="394" type="curve" smooth="yes"/>
      <point x="70" y="388"/>
      <point x="74" y="384"/>
      <point x="80" y="384" type="curve" smooth="yes"/>
      <point x="241" y="384" type="line" smooth="yes"/>
      <point x="342" y="384"/>
      <point x="409" y="465"/>
      <point x="409" y="560" type="curve" smooth="yes"/>
      <point x="409" y="570" type="line" smooth="yes"/>
      <point x="409" y="667"/>
      <point x="342" y="747"/>
      <point x="241" y="747" type="curve" smooth="yes"/>
      <point x="80" y="747" type="line" smooth="yes"/>
      <point x="73.5" y="747"/>
      <point x="70" y="743.5"/>
      <point x="70" y="737" type="curve" smooth="yes"/>
      <point x="70" y="10" type="line" smooth="yes"/>
      <point x="70" y="4"/>
      <point x="74" y="0"/>
      <point x="80" y="0" type="curve" smooth="yes"/>
      <point x="86" y="0"/>
      <point x="90" y="4"/>
    </contour>
    <contour>
      <point x="216.031" y="386.751" type="curve" smooth="yes"/>
      <point x="398" y="6" type="line" smooth="yes"/>
      <point x="399.928" y="1.965"/>
      <point x="403" y="0"/>
      <point x="407" y="0" type="curve" smooth="yes"/>
      <point x="413.199" y="0"/>
      <point x="416.996" y="5.404"/>
      <point x="416.996" y="10.163" type="curve" smooth="yes"/>
      <point x="416.996" y="11.546"/>
      <point x="416.566" y="12.816"/>
      <point x="416" y="14" type="curve" smooth="yes"/>
      <point x="234.031" y="394.751" type="line" smooth="yes"/>
      <point x="232.103" y="398.786"/>
      <point x="229.031" y="400.751"/>
      <point x="225.031" y="400.751" type="curve" smooth="yes"/>
      <point x="218.832" y="400.751"/>
      <point x="215.035" y="395.347"/>
      <point x="215.035" y="390.588" type="curve" smooth="yes"/>
      <point x="215.035" y="389.205"/>
      <point x="215.465" y="387.935"/>
    </contour>
    <contour>
      <point x="275" y="290" type="curve" smooth="yes"/>
      <point x="83" y="290" type="line" smooth="yes"/>
      <point x="77" y="290"/>
      <point x="73" y="286"/>
      <point x="73" y="280" type="curve" smooth="yes"/>
      <point x="73" y="274"/>
      <point x="77" y="270"/>
      <point x="83" y="270" type="curve" smooth="yes"/>
      <point x="275" y="270" type="line" smooth="yes"/>
      <point x="281" y="270"/>
      <point x="285" y="274"/>
      <point x="285" y="280" type="curve" smooth="yes"/>
      <point x="285" y="286"/>
      <point x="281" y="290"/>
    </contour>
  </outline>
</glyph>
<glyph name="S" format="2">
  <advance width="445"/>
  <unicode hex="0053"/>
  <anchor x="222" y="-5" name="bottom"/>
  <anchor x="222" y="753" name="top"/>
  <outline>
    <contour>
      <point x="41" y="106" type="curve" smooth="yes"/>
      <point x="70" y="40"/>
      <point x="136" y="-5"/>
      <point x="226" y="-5" type="curve" smooth="yes"/>
      <point x="329" y="-5"/>
      <point x="415" y="81"/>
      <point x="415" y="186" type="curve" smooth="yes"/>
      <point x="415" y="298"/>
      <point x="322" y="347"/>
      <point x="236" y="394" type="curve" smooth="yes"/>
      <point x="153" y="438"/>
      <point x="77" y="479"/>
      <point x="77" y="569" type="curve" smooth="yes"/>
      <point x="77" y="660"/>
      <point x="144" y="732"/>
      <point x="234" y="732" type="curve" smooth="yes"/>
      <point x="297" y="732"/>
      <point x="350" y="697"/>
      <point x="378" y="644" type="curve" smooth="yes"/>
      <point x="380" y="641"/>
      <point x="383" y="639"/>
      <point x="387" y="639" type="curve" smooth="yes"/>
      <point x="393.199" y="639"/>
      <point x="396.996" y="643.803"/>
      <point x="396.996" y="648.757" type="curve" smooth="yes"/>
      <point x="396.996" y="650.197"/>
      <point x="396.675" y="651.649"/>
      <point x="396" y="653" type="curve" smooth="yes"/>
      <point x="365" y="712"/>
      <point x="304" y="752"/>
      <point x="234" y="752" type="curve" smooth="yes"/>
      <point x="134" y="752"/>
      <point x="57" y="669"/>
      <point x="57" y="569" type="curve" smooth="yes"/>
      <point x="57" y="467"/>
      <point x="144" y="420"/>
      <point x="227" y="376" type="curve" smooth="yes"/>
      <point x="313" y="331"/>
      <point x="395" y="286"/>
      <point x="395" y="186" type="curve" smooth="yes"/>
      <point x="395" y="90"/>
      <point x="320" y="15"/>
      <point x="226" y="15" type="curve" smooth="yes"/>
      <point x="143" y="15"/>
      <point x="86" y="54"/>
      <point x="59" y="114" type="curve"/>
      <point x="58" y="117"/>
      <point x="54" y="119"/>
      <point x="50" y="119" type="curve" smooth="yes"/>
      <point x="44.421" y="119"/>
      <point x="40.112" y="114.553"/>
      <point x="40.112" y="109.71" type="curve" smooth="yes"/>
      <point x="40.112" y="108.477"/>
      <point x="40.391" y="107.218"/>
    </contour>
    <contour>
      <point x="367" y="90" type="curve"/>
      <point x="385.959" y="111.678" type="line"/>
      <point x="376.408" y="207.831"/>
      <point x="302.21" y="248.63"/>
      <point x="208" y="299" type="curve" smooth="yes"/>
      <point x="101" y="356"/>
      <point x="49" y="384"/>
      <point x="49" y="473" type="curve" smooth="yes"/>
      <point x="49" y="566"/>
      <point x="116" y="638"/>
      <point x="206" y="638" type="curve" smooth="yes"/>
      <point x="269" y="638"/>
      <point x="323" y="602"/>
      <point x="350" y="548" type="curve" smooth="yes"/>
      <point x="352" y="545"/>
      <point x="355" y="543"/>
      <point x="359" y="543" type="curve" smooth="yes"/>
      <point x="365.199" y="543"/>
      <point x="368.996" y="548.404"/>
      <point x="368.996" y="553.628" type="curve" smooth="yes"/>
      <point x="368.996" y="555.146"/>
      <point x="368.675" y="556.649"/>
      <point x="368" y="558" type="curve" smooth="yes"/>
      <point x="338" y="617"/>
      <point x="276" y="657"/>
      <point x="206" y="657" type="curve" smooth="yes"/>
      <point x="107" y="657"/>
      <point x="30" y="574"/>
      <point x="30" y="473" type="curve" smooth="yes"/>
      <point x="30" y="364"/>
      <point x="135" y="316"/>
      <point x="198" y="281" type="curve" smooth="yes"/>
      <point x="270" y="243"/>
      <point x="367" y="195"/>
    </contour>
  </outline>
</glyph>
<glyph name="U" format="2">
  <advance width="539"/>
  <unicode hex="0055"/>
  <anchor x="269" y="-5" name="bottom"/>
  <anchor x="282" y="3" name="ogonek"/>
  <anchor x="269" y="753" name="top"/>
  <anchor x="518" y="753" name="topright"/>
  <outline>
    <contour>
      <point x="449" y="737" type="curve" smooth="yes"/>
      <point x="449" y="192" type="line" smooth="yes"/>
      <point x="449" y="85"/>
      <point x="381" y="15"/>
      <point x="276" y="15" type="curve" smooth="yes"/>
      <point x="263" y="15" type="line" smooth="yes"/>
      <point x="158" y="15"/>
      <point x="90" y="85"/>
      <point x="90" y="192" type="curve" smooth="yes"/>
      <point x="90" y="737" type="line" smooth="yes"/>
      <point x="90" y="743"/>
      <point x="86" y="747"/>
      <point x="80" y="747" type="curve" smooth="yes"/>
      <point x="74" y="747"/>
      <point x="70" y="743"/>
      <point x="70" y="737" type="curve" smooth="yes"/>
      <point x="70" y="192" type="line" smooth="yes"/>
      <point x="70" y="76"/>
      <point x="149" y="-5"/>
      <point x="263" y="-5" type="curve" smooth="yes"/>
      <point x="276" y="-5" type="line" smooth="yes"/>
      <point x="390" y="-5"/>
      <point x="469" y="76"/>
      <point x="469" y="192" type="curve" smooth="yes"/>
      <point x="469" y="737" type="line" smooth="yes"/>
      <point x="469" y="743"/>
      <point x="465" y="747"/>
      <point x="459" y="747" type="curve" smooth="yes"/>
      <point x="453" y="747"/>
      <point x="449" y="743"/>
    </contour>
    <contour>
      <point x="80" y="176" type="curve" smooth="yes"/>
      <point x="459" y="176" type="line" smooth="yes"/>
      <point x="465" y="176"/>
      <point x="469" y="180"/>
      <point x="469" y="186" type="curve" smooth="yes"/>
      <point x="469" y="191"/>
      <point x="465" y="195"/>
      <point x="459" y="195" type="curve" smooth="yes"/>
      <point x="80" y="195" type="line" smooth="yes"/>
      <point x="74" y="195"/>
      <point x="70" y="191"/>
      <point x="70" y="186" type="curve" smooth="yes"/>
      <point x="70" y="180"/>
      <point x="74" y="176"/>
    </contour>
  </outline>
</glyph>
<glyph name="W" format="2">
  <advance width="526.24"/>
  <unicode hex="0057"/>
  <anchor x="262.71" y="-5" name="bottom"/>
  <anchor x="262.71" y="753" name="top"/>
  <outline>
    <contour>
      <point x="466.444" y="738.276" type="curve" smooth="yes"/>
      <point x="389.139" y="16.476" type="line" smooth="yes"/>
      <point x="388.355" y="9.082"/>
      <point x="391.998" y="3.451"/>
      <point x="397.21" y="4" type="curve" smooth="yes"/>
      <point x="402.399" y="4.546"/>
      <point x="404.714" y="10.947"/>
      <point x="402.233" y="18.08" type="curve" smooth="yes"/>
      <point x="273.556" y="387.017" type="line" smooth="yes"/>
      <point x="269.834" y="397.718"/>
      <point x="256.418" y="397.716"/>
      <point x="252.699" y="387.013" type="curve" smooth="yes"/>
      <point x="124.18" y="18.075" type="line" smooth="yes"/>
      <point x="121.702" y="10.944"/>
      <point x="124.02" y="4.546"/>
      <point x="129.21" y="4" type="curve" smooth="yes"/>
      <point x="134.422" y="3.451"/>
      <point x="138.063" y="9.084"/>
      <point x="137.277" y="16.48" type="curve" smooth="yes"/>
      <point x="59.8" y="738.276" type="line" smooth="yes"/>
      <point x="59.268" y="743.281"/>
      <point x="54.865" y="747.159"/>
      <point x="49.93" y="747.159" type="curve" smooth="yes"/>
      <point x="44.008" y="747.159"/>
      <point x="39.427" y="742.272"/>
      <point x="40.06" y="736.302" type="curve" smooth="yes"/>
      <point x="117.894" y="8.706" type="line" smooth="yes"/>
      <point x="118.388" y="4.039"/>
      <point x="121.749" y="0.68"/>
      <point x="130.165" y="-0.206" type="curve" smooth="yes"/>
      <point x="134.748" y="-0.688"/>
      <point x="138.657" y="1.824"/>
      <point x="140.179" y="6.173" type="curve" smooth="yes"/>
      <point x="263.122" y="356.307" type="line"/>
      <point x="386.239" y="6.168" type="line" smooth="yes"/>
      <point x="387.763" y="1.822"/>
      <point x="391.67" y="-0.688"/>
      <point x="400.002" y="0.189" type="curve" smooth="yes"/>
      <point x="404.67" y="0.68"/>
      <point x="408.031" y="4.04"/>
      <point x="408.525" y="8.708" type="curve" smooth="yes"/>
      <point x="486.184" y="736.302" type="line" smooth="yes"/>
      <point x="486.815" y="742.272"/>
      <point x="482.236" y="747.159"/>
      <point x="476.314" y="747.159" type="curve" smooth="yes"/>
      <point x="471.379" y="747.159"/>
      <point x="466.975" y="743.281"/>
    </contour>
    <contour>
      <point x="90.449" y="377.034" type="curve" smooth="yes"/>
      <point x="434.795" y="377.034" type="line" smooth="yes"/>
      <point x="440.717" y="377.034"/>
      <point x="444.665" y="380.982"/>
      <point x="444.665" y="386.904" type="curve" smooth="yes"/>
      <point x="444.665" y="392.826"/>
      <point x="440.717" y="396.774"/>
      <point x="434.795" y="396.774" type="curve" smooth="yes"/>
      <point x="90.449" y="396.774" type="line" smooth="yes"/>
      <point x="84.527" y="396.774"/>
      <point x="80.579" y="392.826"/>
      <point x="80.579" y="386.904" type="curve" smooth="yes"/>
      <point x="80.579" y="380.982"/>
      <point x="84.527" y="377.034"/>
    </contour>
  </outline>
</glyph>
<glyph name="X" format="2">
  <advance width="456.03"/>
  <unicode hex="0058"/>
  <anchor x="229" y="-5" name="bottom"/>
  <anchor x="229" y="753" name="top"/>
  <outline>
    <contour>
      <point x="408" y="742" type="curve" smooth="yes"/>
      <point x="31" y="15" type="line" smooth="yes"/>
      <point x="30.351" y="13.748"/>
      <point x="30.041" y="12.309"/>
      <point x="30.04" y="10.827" type="curve" smooth="yes"/>
      <point x="30.036" y="5.666"/>
      <point x="33.784" y="0"/>
      <point x="40" y="0" type="curve" smooth="yes"/>
      <point x="44" y="0"/>
      <point x="47.344" y="1.797"/>
      <point x="49" y="5" type="curve" smooth="yes"/>
      <point x="425" y="732" type="line" smooth="yes"/>
      <point x="425.684" y="733.322"/>
      <point x="426.015" y="734.795"/>
      <point x="426.029" y="736.288" type="curve" smooth="yes"/>
      <point x="426.078" y="741.525"/>
      <point x="422.226" y="747"/>
      <point x="416" y="747" type="curve" smooth="yes"/>
      <point x="412" y="747"/>
      <point x="409.456" y="744.807"/>
    </contour>
    <contour>
      <point x="425" y="15" type="curve" smooth="yes"/>
      <point x="49" y="742" type="line" smooth="yes"/>
      <point x="47.344" y="745.203"/>
      <point x="44" y="747"/>
      <point x="40" y="747" type="curve" smooth="yes"/>
      <point x="34" y="747"/>
      <point x="30" y="743"/>
      <point x="30" y="737" type="curve" smooth="yes"/>
      <point x="30" y="735.656"/>
      <point x="30.418" y="733.123"/>
      <point x="31" y="732" type="curve" smooth="yes"/>
      <point x="408" y="5" type="line" smooth="yes"/>
      <point x="409.456" y="2.193"/>
      <point x="412" y="0"/>
      <point x="416" y="0" type="curve" smooth="yes"/>
      <point x="422.199" y="0"/>
      <point x="425.996" y="5.404"/>
      <point x="425.996" y="10.628" type="curve" smooth="yes"/>
      <point x="425.996" y="12.146"/>
      <point x="425.694" y="13.658"/>
    </contour>
    <contour>
      <point x="42" y="727" type="curve" smooth="yes"/>
      <point x="416" y="727" type="line" smooth="yes"/>
      <point x="422" y="727"/>
      <point x="425" y="731"/>
      <point x="425" y="737" type="curve" smooth="yes"/>
      <point x="425" y="743"/>
      <point x="422" y="747"/>
      <point x="416" y="747" type="curve" smooth="yes"/>
      <point x="40" y="747" type="line" smooth="yes"/>
      <point x="34" y="747"/>
      <point x="30" y="743"/>
      <point x="30" y="737" type="curve" smooth="yes"/>
      <point x="30" y="731"/>
      <point x="36" y="727"/>
    </contour>
  </outline>
</glyph>
<glyph name="bracketleft" format="2">
  <advance width="272"/>
  <unicode hex="005B"/>
  <outline>
    <contour>
      <point x="233" y="-91" type="curve" smooth="yes"/>
      <point x="69" y="-91" type="line"/>
      <point x="69" y="785" type="line"/>
      <point x="233" y="785" type="line" smooth="yes"/>
      <point x="239" y="785"/>
      <point x="243" y="789"/>
      <point x="243" y="795" type="curve" smooth="yes"/>
      <point x="243" y="800"/>
      <point x="239" y="804"/>
      <point x="233" y="804" type="curve" smooth="yes"/>
      <point x="66" y="804" type="line" smooth="yes"/>
      <point x="54.95" y="804"/>
      <point x="49" y="798.05"/>
      <point x="49" y="787" type="curve" smooth="yes"/>
      <point x="49" y="-94" type="line" smooth="yes"/>
      <point x="49" y="-105.05"/>
      <point x="54.95" y="-111"/>
      <point x="66" y="-111" type="curve" smooth="yes"/>
      <point x="233" y="-111" type="line" smooth="yes"/>
      <point x="239" y="-111"/>
      <point x="243" y="-107"/>
      <point x="243" y="-101" type="curve" smooth="yes"/>
      <point x="243" y="-95"/>
      <point x="239" y="-91"/>
    </contour>
  </outline>
</glyph>
<glyph name="asciicircum" format="2">
  <advance width="493"/>
  <unicode hex="005E"/>
  <outline>
    <contour>
      <point x="238" y="695" type="curve" smooth="yes"/>
      <point x="87" y="408" type="line" smooth="yes"/>
      <point x="86.328" y="406.731"/>
      <point x="86.037" y="405.295"/>
      <point x="86.006" y="403.853" type="curve" smooth="yes"/>
      <point x="85.895" y="398.56"/>
      <point x="89.712" y="393"/>
      <point x="96" y="393" type="curve" smooth="yes"/>
      <point x="100" y="393"/>
      <point x="103.321" y="394.809"/>
      <point x="105" y="398" type="curve" smooth="yes"/>
      <point x="256" y="685" type="line" smooth="yes"/>
      <point x="256.692" y="686.316"/>
      <point x="256.849" y="687.881"/>
      <point x="256.786" y="689.417" type="curve" smooth="yes"/>
      <point x="256.576" y="694.537"/>
      <point x="252.882" y="699.833"/>
      <point x="247" y="700" type="curve" smooth="yes"/>
      <point x="243" y="700"/>
      <point x="239.688" y="698.186"/>
    </contour>
    <contour>
      <point x="238" y="685" type="curve" smooth="yes"/>
      <point x="389" y="398" type="line" smooth="yes"/>
      <point x="390.679" y="394.809"/>
      <point x="394" y="393"/>
      <point x="398" y="393" type="curve" smooth="yes"/>
      <point x="404.199" y="393"/>
      <point x="407.996" y="398.404"/>
      <point x="407.996" y="403.628" type="curve" smooth="yes"/>
      <point x="407.996" y="405.146"/>
      <point x="407.703" y="406.663"/>
      <point x="407" y="408" type="curve" smooth="yes"/>
      <point x="256" y="695" type="line" smooth="yes"/>
      <point x="254.321" y="698.191"/>
      <point x="251" y="700"/>
      <point x="247" y="700" type="curve" smooth="yes"/>
      <point x="240.801" y="700"/>
      <point x="237.004" y="694.596"/>
      <point x="237.004" y="689.372" type="curve" smooth="yes"/>
      <point x="237.004" y="687.854"/>
      <point x="237.297" y="686.337"/>
    </contour>
  </outline>
</glyph>
<glyph name="underscore" format="2">
  <advance width="447"/>
  <unicode hex="005F"/>
  <outline>
    <contour>
      <point x="432" y="-11" type="curve" smooth="yes"/>
      <point x="15" y="-11" type="line" smooth="yes"/>
      <point x="9" y="-11"/>
      <point x="5" y="-15"/>
      <point x="5" y="-21" type="curve" smooth="yes"/>
      <point x="5" y="-27"/>
      <point x="9" y="-31"/>
      <point x="15" y="-31" type="curve" smooth="yes"/>
      <point x="432" y="-31" type="line" smooth="yes"/>
      <point x="438" y="-31"/>
      <point x="442" y="-27"/>
      <point x="442" y="-21" type="curve" smooth="yes"/>
      <point x="442" y="-15"/>
      <point x="438" y="-11"/>
    </contour>
  </outline>
</glyph>
<glyph name="b" format="2">
  <advance width="475"/>
  <unicode hex="0062"/>
  <anchor x="238" y="-5" name="bottom"/>
  <anchor x="238" y="284" name="center"/>
  <anchor x="238" y="573" name="top"/>
  <outline>
    <contour>
      <point x="425" y="254" type="curve" smooth="yes"/>
      <point x="425" y="315" type="line" smooth="yes"/>
      <point x="425" y="472"/>
      <point x="351" y="572"/>
      <point x="235" y="572" type="curve" smooth="yes"/>
      <point x="222" y="572" type="line" smooth="yes"/>
      <point x="113" y="572"/>
      <point x="60" y="478"/>
      <point x="60" y="315" type="curve" smooth="yes"/>
      <point x="60" y="95.752" type="line" smooth="yes"/>
      <point x="60" y="85.862"/>
      <point x="62.052" y="78.873"/>
      <point x="68.355" y="71.091" type="curve" smooth="yes"/>
      <point x="105.728" y="25.941"/>
      <point x="167.302" y="-5"/>
      <point x="222" y="-5" type="curve" smooth="yes"/>
      <point x="235" y="-5" type="line" smooth="yes"/>
      <point x="352" y="-5"/>
      <point x="425" y="97"/>
    </contour>
    <contour>
      <point x="406" y="254" type="line" smooth="yes"/>
      <point x="406" y="105"/>
      <point x="341" y="15"/>
      <point x="235" y="15" type="curve" smooth="yes"/>
      <point x="222" y="15" type="line" smooth="yes"/>
      <point x="170" y="15"/>
      <point x="114" y="44"/>
      <point x="80" y="88" type="curve"/>
      <point x="80" y="315" type="line" smooth="yes"/>
      <point x="80" y="471"/>
      <point x="125" y="553"/>
      <point x="222" y="553" type="curve" smooth="yes"/>
      <point x="235" y="553" type="line" smooth="yes"/>
      <point x="341" y="553"/>
      <point x="406" y="464"/>
      <point x="406" y="315" type="curve" smooth="yes"/>
    </contour>
    <contour>
      <point x="80" y="315" type="curve" smooth="yes"/>
      <point x="80" y="737" type="line" smooth="yes"/>
      <point x="80" y="743"/>
      <point x="76" y="747"/>
      <point x="70" y="747" type="curve" smooth="yes"/>
      <point x="64" y="747"/>
      <point x="60" y="743"/>
      <point x="60" y="737" type="curve" smooth="yes"/>
      <point x="60" y="315" type="line" smooth="yes"/>
      <point x="60" y="309"/>
      <point x="64" y="305"/>
      <point x="70" y="305" type="curve" smooth="yes"/>
      <point x="76" y="305"/>
      <point x="80" y="309"/>
    </contour>
    <contour>
      <point x="187" y="16" type="curve" smooth="yes"/>
      <point x="187" y="551" type="line" smooth="yes"/>
      <point x="187" y="557"/>
      <point x="183" y="561"/>
      <point x="177" y="561" type="curve" smooth="yes"/>
      <point x="171" y="561"/>
      <point x="167" y="557"/>
      <point x="167" y="551" type="curve" smooth="yes"/>
      <point x="167" y="16" type="line" smooth="yes"/>
      <point x="167" y="10"/>
      <point x="171" y="6"/>
      <point x="177" y="6" type="curve" smooth="yes"/>
      <point x="183" y="6"/>
      <point x="187" y="10"/>
    </contour>
  </outline>
</glyph>
<glyph name="c" format="2">
  <advance width="447.89"/>
  <unicode hex="0063"/>
  <anchor x="224" y="-5" name="bottom"/>
  <anchor x="224" y="573" name="top"/>
  <outline>
    <contour>
      <point x="407" y="471" type="curve" smooth="yes"/>
      <point x="381" y="539"/>
      <point x="330" y="572"/>
      <point x="254" y="572" type="curve" smooth="yes"/>
      <point x="241" y="572" type="line" smooth="yes"/>
      <point x="124" y="572"/>
      <point x="50" y="472"/>
      <point x="50" y="315" type="curve" smooth="yes"/>
      <point x="50" y="254" type="line" smooth="yes"/>
      <point x="50" y="97"/>
      <point x="123" y="-5"/>
      <point x="241" y="-5" type="curve" smooth="yes"/>
      <point x="254" y="-5" type="line" smooth="yes"/>
      <point x="319" y="-5"/>
      <point x="372" y="27"/>
      <point x="406" y="85" type="curve" smooth="yes"/>
      <point x="406.603" y="86.331"/>
      <point x="406.913" y="87.824"/>
      <point x="406.926" y="89.338" type="curve" smooth="yes"/>
      <point x="406.973" y="94.427"/>
      <point x="403.682" y="99.759"/>
      <point x="397" y="100" type="curve" smooth="yes"/>
      <point x="393" y="100"/>
      <point x="390" y="98"/>
      <point x="388" y="95" type="curve" smooth="yes"/>
      <point x="358" y="41"/>
      <point x="313" y="15"/>
      <point x="254" y="15" type="curve" smooth="yes"/>
      <point x="241" y="15" type="line" smooth="yes"/>
      <point x="135" y="15"/>
      <point x="70" y="105"/>
      <point x="70" y="254" type="curve" smooth="yes"/>
      <point x="70" y="315" type="line" smooth="yes"/>
      <point x="70" y="464"/>
      <point x="135" y="553"/>
      <point x="241" y="553" type="curve" smooth="yes"/>
      <point x="254" y="553" type="line" smooth="yes"/>
      <point x="323" y="553"/>
      <point x="365" y="525"/>
      <point x="389" y="463" type="curve" smooth="yes"/>
      <point x="390" y="460"/>
      <point x="394" y="457"/>
      <point x="398" y="457" type="curve" smooth="yes"/>
      <point x="403.579" y="457"/>
      <point x="407.888" y="461.447"/>
      <point x="407.888" y="466.797" type="curve" smooth="yes"/>
      <point x="407.888" y="468.159"/>
      <point x="407.609" y="469.579"/>
    </contour>
    <contour>
      <point x="70" y="323" type="curve"/>
      <point x="52.103" y="294.967" type="line"/>
      <point x="66.049" y="167.347"/>
      <point x="137.413" y="82"/>
      <point x="241" y="82" type="curve" smooth="yes"/>
      <point x="254" y="82" type="line" smooth="yes"/>
      <point x="319" y="82"/>
      <point x="372" y="114"/>
      <point x="406" y="173" type="curve" smooth="yes"/>
      <point x="406.761" y="174.521"/>
      <point x="407.136" y="176.236"/>
      <point x="407.125" y="177.947" type="curve" smooth="yes"/>
      <point x="407.093" y="182.985"/>
      <point x="403.718" y="188"/>
      <point x="397" y="188" type="curve" smooth="yes"/>
      <point x="393" y="188"/>
      <point x="390" y="186"/>
      <point x="388" y="183" type="curve" smooth="yes"/>
      <point x="358" y="128"/>
      <point x="313" y="102"/>
      <point x="254" y="102" type="curve" smooth="yes"/>
      <point x="241" y="102" type="line" smooth="yes"/>
      <point x="141" y="102"/>
      <point x="76" y="189"/>
    </contour>
  </outline>
</glyph>
<glyph name="e" format="2">
  <advance width="469"/>
  <unicode hex="0065"/>
  <anchor x="235" y="-5" name="bottom"/>
  <anchor x="270" y="3" name="ogonek"/>
  <anchor x="245" y="573" name="top"/>
  <outline>
    <contour>
      <point x="60" y="305" type="curve" smooth="yes"/>
      <point x="409" y="305" type="line" smooth="yes"/>
      <point x="421.993" y="305"/>
      <point x="429" y="312"/>
      <point x="429" y="326" type="curve" smooth="yes"/>
      <point x="427" y="493"/>
      <point x="370" y="572"/>
      <point x="254" y="572" type="curve" smooth="yes"/>
      <point x="241" y="572" type="line" smooth="yes"/>
      <point x="124" y="572"/>
      <point x="50" y="472"/>
      <point x="50" y="315" type="curve" smooth="yes"/>
      <point x="50" y="254" type="line" smooth="yes"/>
      <point x="50" y="97"/>
      <point x="123" y="-5"/>
      <point x="241" y="-5" type="curve" smooth="yes"/>
      <point x="254" y="-5" type="line" smooth="yes"/>
      <point x="319" y="-5"/>
      <point x="372" y="26"/>
      <point x="406" y="85" type="curve" smooth="yes"/>
      <point x="406.706" y="86.225"/>
      <point x="407" y="88"/>
      <point x="407" y="90" type="curve" smooth="yes"/>
      <point x="407" y="95"/>
      <point x="404" y="100"/>
      <point x="397" y="100" type="curve" smooth="yes"/>
      <point x="393" y="100"/>
      <point x="390" y="98"/>
      <point x="388" y="95" type="curve" smooth="yes"/>
      <point x="358" y="41"/>
      <point x="313" y="15"/>
      <point x="254" y="15" type="curve" smooth="yes"/>
      <point x="241" y="15" type="line" smooth="yes"/>
      <point x="135" y="15"/>
      <point x="70" y="105"/>
      <point x="70" y="254" type="curve" smooth="yes"/>
      <point x="70" y="315" type="line" smooth="yes"/>
      <point x="70" y="464"/>
      <point x="135" y="553"/>
      <point x="241" y="553" type="curve" smooth="yes"/>
      <point x="254" y="553" type="line" smooth="yes"/>
      <point x="359" y="553"/>
      <point x="408" y="485"/>
      <point x="410" y="325" type="curve"/>
      <point x="60" y="325" type="line" smooth="yes"/>
      <point x="54" y="325"/>
      <point x="52" y="321"/>
      <point x="52" y="315" type="curve" smooth="yes"/>
      <point x="52" y="309"/>
      <point x="54" y="305"/>
    </contour>
    <contour>
      <point x="292.95" y="319.857" type="curve" smooth="yes"/>
      <point x="292.95" y="554.568" type="line" smooth="yes"/>
      <point x="292.95" y="560.091"/>
      <point x="288.473" y="564.568"/>
      <point x="282.95" y="564.568" type="curve" smooth="yes"/>
      <point x="277.427" y="564.568"/>
      <point x="272.95" y="560.091"/>
      <point x="272.95" y="554.568" type="curve" smooth="yes"/>
      <point x="272.95" y="319.857" type="line" smooth="yes"/>
      <point x="272.95" y="314.334"/>
      <point x="277.427" y="309.857"/>
      <point x="282.95" y="309.857" type="curve" smooth="yes"/>
      <point x="288.473" y="309.857"/>
      <point x="292.95" y="314.334"/>
    </contour>
  </outline>
</glyph>
<glyph name="f" format="2">
  <advance width="330"/>
  <unicode hex="0066"/>
  <anchor x="165" y="-5" name="bottom"/>
  <anchor x="165" y="806" name="top"/>
  <outline>
    <contour>
      <point x="140" y="12" type="curve" smooth="yes"/>
      <point x="140" y="550" type="line" smooth="yes"/>
      <point x="140" y="687"/>
      <point x="212" y="727"/>
      <point x="311" y="727" type="curve" smooth="yes"/>
      <point x="324" y="727" type="line" smooth="yes"/>
      <point x="339" y="727"/>
      <point x="352" y="725"/>
      <point x="366" y="721" type="curve" smooth="yes"/>
      <point x="373" y="721"/>
      <point x="379" y="725"/>
      <point x="379" y="731" type="curve" smooth="yes"/>
      <point x="379" y="736"/>
      <point x="376" y="740"/>
      <point x="372" y="741" type="curve" smooth="yes"/>
      <point x="356" y="745"/>
      <point x="341" y="747"/>
      <point x="324" y="747" type="curve" smooth="yes"/>
      <point x="311" y="747" type="line" smooth="yes"/>
      <point x="205" y="747"/>
      <point x="120" y="700"/>
      <point x="120" y="550" type="curve" smooth="yes"/>
      <point x="120" y="12" type="line" smooth="yes"/>
      <point x="120" y="6"/>
      <point x="124" y="2"/>
      <point x="130" y="2" type="curve" smooth="yes"/>
      <point x="136" y="2"/>
      <point x="140" y="6"/>
    </contour>
    <contour>
      <point x="30" y="548" type="curve" smooth="yes"/>
      <point x="309" y="548" type="line" smooth="yes"/>
      <point x="315" y="548"/>
      <point x="319" y="552"/>
      <point x="319" y="558" type="curve" smooth="yes"/>
      <point x="319" y="564"/>
      <point x="315" y="568"/>
      <point x="309" y="568" type="curve" smooth="yes"/>
      <point x="30" y="568" type="line" smooth="yes"/>
      <point x="24" y="568"/>
      <point x="20" y="564"/>
      <point x="20" y="558" type="curve" smooth="yes"/>
      <point x="20" y="552"/>
      <point x="24" y="548"/>
    </contour>
    <contour>
      <point x="30" y="431" type="curve" smooth="yes"/>
      <point x="309" y="431" type="line" smooth="yes"/>
      <point x="315" y="431"/>
      <point x="319" y="435"/>
      <point x="319" y="441" type="curve" smooth="yes"/>
      <point x="319" y="447"/>
      <point x="315" y="451"/>
      <point x="309" y="451" type="curve" smooth="yes"/>
      <point x="30" y="451" type="line" smooth="yes"/>
      <point x="24" y="451"/>
      <point x="20" y="447"/>
      <point x="20" y="441" type="curve" smooth="yes"/>
      <point x="20" y="435"/>
      <point x="24" y="431"/>
    </contour>
  </outline>
</glyph>
<glyph name="l" format="2">
  <advance width="267"/>
  <unicode hex="006C"/>
  <anchor x="197" y="-5" name="bottom"/>
  <anchor x="134" y="401" name="center"/>
  <anchor x="197" y="806" name="top"/>
  <anchor x="247" y="806" name="topright"/>
  <outline>
    <contour>
      <point x="50" y="727" type="curve" smooth="yes"/>
      <point x="188" y="727" type="line"/>
      <point x="188" y="10" type="line" smooth="yes"/>
      <point x="188" y="4"/>
      <point x="191" y="0"/>
      <point x="197" y="0" type="curve" smooth="yes"/>
      <point x="203" y="0"/>
      <point x="207" y="4"/>
      <point x="207" y="10" type="curve" smooth="yes"/>
      <point x="207" y="730" type="line" smooth="yes"/>
      <point x="207" y="741.05"/>
      <point x="201.05" y="747"/>
      <point x="190" y="747" type="curve" smooth="yes"/>
      <point x="50" y="747" type="line" smooth="yes"/>
      <point x="44" y="747"/>
      <point x="40" y="743"/>
      <point x="40" y="737" type="curve" smooth="yes"/>
      <point x="40" y="731"/>
      <point x="44" y="727"/>
    </contour>
    <contour>
      <point x="50" y="611" type="curve" smooth="yes"/>
      <point x="197" y="611" type="line" smooth="yes"/>
      <point x="203" y="611"/>
      <point x="207" y="615"/>
      <point x="207" y="621" type="curve" smooth="yes"/>
      <point x="207" y="627"/>
      <point x="203" y="631"/>
      <point x="197" y="631" type="curve" smooth="yes"/>
      <point x="50" y="631" type="line" smooth="yes"/>
      <point x="44" y="631"/>
      <point x="40" y="627"/>
      <point x="40" y="621" type="curve" smooth="yes"/>
      <point x="40" y="615"/>
      <point x="44" y="611"/>
    </contour>
  </outline>
</glyph>
<glyph name="n" format="2">
  <advance width="472"/>
  <unicode hex="006E"/>
  <anchor x="242" y="-5" name="bottom"/>
  <anchor x="242" y="573" name="top"/>
  <outline>
    <contour>
      <point x="80" y="10" type="curve" smooth="yes"/>
      <point x="80" y="558" type="line" smooth="yes"/>
      <point x="80" y="564"/>
      <point x="76" y="568"/>
      <point x="70" y="568" type="curve" smooth="yes"/>
      <point x="64" y="568"/>
      <point x="60" y="564"/>
      <point x="60" y="558" type="curve" smooth="yes"/>
      <point x="60" y="10" type="line" smooth="yes"/>
      <point x="60" y="4"/>
      <point x="64" y="0"/>
      <point x="70" y="0" type="curve" smooth="yes"/>
      <point x="76" y="0"/>
      <point x="80" y="4"/>
    </contour>
    <contour>
      <point x="80" y="315" type="curve" smooth="yes"/>
      <point x="80" y="457"/>
      <point x="155" y="553"/>
      <point x="263" y="553" type="curve" smooth="yes"/>
      <point x="275" y="553" type="line" smooth="yes"/>
      <point x="356" y="553"/>
      <point x="402" y="501"/>
      <point x="402" y="406" type="curve" smooth="yes"/>
      <point x="403" y="10" type="line" smooth="yes"/>
      <point x="403" y="4"/>
      <point x="407" y="0"/>
      <point x="413" y="0" type="curve" smooth="yes"/>
      <point x="419" y="0"/>
      <point x="422" y="4"/>
      <point x="422" y="10" type="curve" smooth="yes"/>
      <point x="421" y="406" type="line" smooth="yes"/>
      <point x="421" y="510"/>
      <point x="367" y="572"/>
      <point x="275" y="572" type="curve" smooth="yes"/>
      <point x="263" y="572" type="line" smooth="yes"/>
      <point x="144" y="572"/>
      <point x="60" y="465"/>
      <point x="60" y="315" type="curve" smooth="yes"/>
      <point x="60" y="309"/>
      <point x="64" y="305"/>
      <point x="70" y="305" type="curve" smooth="yes"/>
      <point x="76" y="305"/>
      <point x="80" y="309"/>
    </contour>
    <contour>
      <point x="412" y="383" type="curve" smooth="yes"/>
      <point x="75" y="383" type="line" smooth="yes"/>
      <point x="69" y="383"/>
      <point x="65" y="379"/>
      <point x="65" y="373" type="curve" smooth="yes"/>
      <point x="65" y="367"/>
      <point x="69" y="363"/>
      <point x="75" y="363" type="curve" smooth="yes"/>
      <point x="412" y="363" type="line" smooth="yes"/>
      <point x="418" y="363"/>
      <point x="421" y="367"/>
      <point x="421" y="373" type="curve" smooth="yes"/>
      <point x="421" y="379"/>
      <point x="418" y="383"/>
    </contour>
  </outline>
</glyph>
<glyph name="o" format="2">
  <advance width="494"/>
  <unicode hex="006F"/>
  <anchor x="248" y="-5" name="bottom"/>
  <anchor x="248" y="284" name="center"/>
  <anchor x="283.111" y="5" name="ogonek"/>
  <anchor x="248" y="573" name="top"/>
  <anchor x="474" y="573" name="topright"/>
  <outline>
    <contour>
      <point x="50" y="315" type="curve" smooth="yes"/>
      <point x="50" y="254" type="line" smooth="yes"/>
      <point x="50" y="105"/>
      <point x="118" y="-5"/>
      <point x="241" y="-5" type="curve" smooth="yes"/>
      <point x="254" y="-5" type="line" smooth="yes"/>
      <point x="376" y="-5"/>
      <point x="444" y="105"/>
      <point x="444" y="254" type="curve" smooth="yes"/>
      <point x="444" y="315" type="line" smooth="yes"/>
      <point x="444" y="464"/>
      <point x="376" y="572"/>
      <point x="254" y="572" type="curve" smooth="yes"/>
      <point x="241" y="572" type="line" smooth="yes"/>
      <point x="118" y="572"/>
      <point x="50" y="464"/>
    </contour>
    <contour>
      <point x="70" y="315" type="line" smooth="yes"/>
      <point x="70" y="457"/>
      <point x="130" y="553"/>
      <point x="241" y="553" type="curve" smooth="yes"/>
      <point x="254" y="553" type="line" smooth="yes"/>
      <point x="364" y="553"/>
      <point x="424" y="457"/>
      <point x="424" y="315" type="curve" smooth="yes"/>
      <point x="424" y="254" type="line" smooth="yes"/>
      <point x="424" y="112"/>
      <point x="363" y="15"/>
      <point x="254" y="15" type="curve" smooth="yes"/>
      <point x="241" y="15" type="line" smooth="yes"/>
      <point x="131" y="15"/>
      <point x="70" y="112"/>
      <point x="70" y="254" type="curve" smooth="yes"/>
    </contour>
    <contour>
      <point x="200" y="548" type="line"/>
      <point x="286" y="534"/>
      <point x="334" y="442"/>
      <point x="334" y="315" type="curve" smooth="yes"/>
      <point x="334" y="254" type="line" smooth="yes"/>
      <point x="334" y="125"/>
      <point x="286" y="34"/>
      <point x="201" y="19" type="curve"/>
      <point x="229.209" y="5.431" type="line"/>
      <point x="309.711" y="34.449"/>
      <point x="353" y="131.737"/>
      <point x="353" y="254" type="curve" smooth="yes"/>
      <point x="353" y="315" type="line" smooth="yes"/>
      <point x="353" y="439.442"/>
      <point x="306.784" y="539.888"/>
      <point x="220.217" y="564.388" type="curve"/>
    </contour>
  </outline>
</glyph>
<glyph name="p" format="2">
  <advance width="504"/>
  <unicode hex="0070"/>
  <anchor x="253" y="-5" name="bottom"/>
  <anchor x="253" y="573" name="top"/>
  <outline>
    <contour>
      <point x="454" y="315" type="line" smooth="yes"/>
      <point x="454" y="472"/>
      <point x="380" y="572"/>
      <point x="264" y="572" type="curve" smooth="yes"/>
      <point x="251" y="572" type="line" smooth="yes"/>
      <point x="134" y="572"/>
      <point x="60" y="472"/>
      <point x="60" y="315" type="curve" smooth="yes"/>
      <point x="60" y="254" type="line" smooth="yes"/>
      <point x="60" y="97"/>
      <point x="133" y="-5"/>
      <point x="251" y="-5" type="curve" smooth="yes"/>
      <point x="264" y="-5" type="line" smooth="yes"/>
      <point x="381" y="-5"/>
      <point x="454" y="97"/>
      <point x="454" y="254" type="curve" smooth="yes"/>
    </contour>
    <contour>
      <point x="434" y="315" type="curve" smooth="yes"/>
      <point x="434" y="254" type="line" smooth="yes"/>
      <point x="434" y="105"/>
      <point x="369" y="15"/>
      <point x="264" y="15" type="curve" smooth="yes"/>
      <point x="251" y="15" type="line" smooth="yes"/>
      <point x="145" y="15"/>
      <point x="80" y="105"/>
      <point x="80" y="254" type="curve" smooth="yes"/>
      <point x="80" y="315" type="line" smooth="yes"/>
      <point x="80" y="464"/>
      <point x="145" y="553"/>
      <point x="251" y="553" type="curve" smooth="yes"/>
      <point x="264" y="553" type="line" smooth="yes"/>
      <point x="369" y="553"/>
      <point x="434" y="464"/>
    </contour>
    <contour>
      <point x="80" y="-213" type="curve" smooth="yes"/>
      <point x="80" y="573" type="line" smooth="yes"/>
      <point x="80" y="579"/>
      <point x="76" y="583"/>
      <point x="70" y="583" type="curve" smooth="yes"/>
      <point x="64" y="583"/>
      <point x="60" y="579"/>
      <point x="60" y="573" type="curve" smooth="yes"/>
      <point x="60" y="-213" type="line" smooth="yes"/>
      <point x="60" y="-219"/>
      <point x="64" y="-223"/>
      <point x="70" y="-223" type="curve" smooth="yes"/>
      <point x="76" y="-223"/>
      <point x="80" y="-219"/>
    </contour>
    <contour>
      <point x="206" y="16" type="curve" smooth="yes"/>
      <point x="206" y="552" type="line" smooth="yes"/>
      <point x="206" y="558"/>
      <point x="202" y="562"/>
      <point x="197" y="562" type="curve" smooth="yes"/>
      <point x="191" y="562"/>
      <point x="187" y="558"/>
      <point x="187" y="552" type="curve" smooth="yes"/>
      <point x="187" y="16" type="line" smooth="yes"/>
      <point x="187" y="10"/>
      <point x="191" y="6"/>
      <point x="197" y="6" type="curve" smooth="yes"/>
      <point x="202" y="6"/>
      <point x="206" y="10"/>
    </contour>
  </outline>
</glyph>
<glyph name="r" format="2">
  <advance width="380"/>
  <unicode hex="0072"/>
  <anchor x="70" y="0" name="bottom"/>
  <anchor x="186" y="573" name="top"/>
  <outline>
    <contour>
      <point x="80" y="10" type="curve" smooth="yes"/>
      <point x="80" y="558" type="line" smooth="yes"/>
      <point x="80" y="564"/>
      <point x="76" y="568"/>
      <point x="70" y="568" type="curve" smooth="yes"/>
      <point x="64" y="568"/>
      <point x="60" y="564"/>
      <point x="60" y="558" type="curve" smooth="yes"/>
      <point x="60" y="10" type="line" smooth="yes"/>
      <point x="60" y="4"/>
      <point x="64" y="0"/>
      <point x="70" y="0" type="curve" smooth="yes"/>
      <point x="76" y="0"/>
      <point x="80" y="4"/>
    </contour>
    <contour>
      <point x="80" y="315" type="curve" smooth="yes"/>
      <point x="80" y="457"/>
      <point x="155" y="553"/>
      <point x="263" y="553" type="curve" smooth="yes"/>
      <point x="275" y="553" type="line" smooth="yes"/>
      <point x="299" y="553"/>
      <point x="319" y="548"/>
      <point x="337" y="540" type="curve" smooth="yes"/>
      <point x="342" y="537"/>
      <point x="350" y="541"/>
      <point x="350" y="549" type="curve" smooth="yes"/>
      <point x="350" y="553"/>
      <point x="348" y="556"/>
      <point x="344" y="558" type="curve" smooth="yes"/>
      <point x="325" y="568"/>
      <point x="301" y="572"/>
      <point x="275" y="572" type="curve" smooth="yes"/>
      <point x="263" y="572" type="line" smooth="yes"/>
      <point x="144" y="572"/>
      <point x="60" y="465"/>
      <point x="60" y="315" type="curve" smooth="yes"/>
      <point x="60" y="309"/>
      <point x="64" y="305"/>
      <point x="70" y="305" type="curve" smooth="yes"/>
      <point x="76" y="305"/>
      <point x="80" y="309"/>
    </contour>
    <contour>
      <point x="80" y="197" type="curve" smooth="yes"/>
      <point x="80" y="340"/>
      <point x="155" y="436"/>
      <point x="263" y="436" type="curve" smooth="yes"/>
      <point x="275" y="436" type="line" smooth="yes"/>
      <point x="299" y="436"/>
      <point x="319" y="431"/>
      <point x="337" y="423" type="curve" smooth="yes"/>
      <point x="342" y="420"/>
      <point x="350" y="424"/>
      <point x="350" y="432" type="curve" smooth="yes"/>
      <point x="350" y="436"/>
      <point x="348" y="439"/>
      <point x="344" y="441" type="curve" smooth="yes"/>
      <point x="325" y="451"/>
      <point x="301" y="456"/>
      <point x="275" y="456" type="curve" smooth="yes"/>
      <point x="263" y="456" type="line" smooth="yes"/>
      <point x="144" y="456"/>
      <point x="60" y="347"/>
      <point x="60" y="197" type="curve" smooth="yes"/>
      <point x="60" y="191"/>
      <point x="64" y="188"/>
      <point x="70" y="188" type="curve" smooth="yes"/>
      <point x="76" y="188"/>
      <point x="80" y="191"/>
    </contour>
  </outline>
</glyph>
<glyph name="s" format="2">
  <advance width="392.3"/>
  <unicode hex="0073"/>
  <anchor x="191.3" y="-5" name="bottom"/>
  <anchor x="191.3" y="573" name="top"/>
  <outline>
    <contour>
      <point x="314.3" y="505" type="curve" smooth="yes"/>
      <point x="36.518" y="81.797" type="line" smooth="yes"/>
      <point x="35.453" y="80.171"/>
      <point x="34.943" y="78.15"/>
      <point x="35" y="76.124" type="curve" smooth="yes"/>
      <point x="35.131" y="71.475"/>
      <point x="39.032" y="67"/>
      <point x="45.3" y="67" type="curve" smooth="yes"/>
      <point x="49.3" y="67"/>
      <point x="51.568" y="69.354"/>
      <point x="53.3" y="72" type="curve" smooth="yes"/>
      <point x="330.3" y="494" type="line" smooth="yes"/>
      <point x="331.286" y="495.506"/>
      <point x="332.26" y="498.137"/>
      <point x="332.3" y="500" type="curve" smooth="yes"/>
      <point x="332.403" y="504.763"/>
      <point x="328.77" y="510"/>
      <point x="322.3" y="510" type="curve" smooth="yes"/>
      <point x="318.3" y="510"/>
      <point x="316.032" y="507.646"/>
    </contour>
    <contour>
      <point x="36.3" y="71" type="curve" smooth="yes"/>
      <point x="64.3" y="26"/>
      <point x="121.3" y="-5"/>
      <point x="185.3" y="-5" type="curve" smooth="yes"/>
      <point x="278.3" y="-5"/>
      <point x="357.3" y="42"/>
      <point x="357.3" y="140" type="curve" smooth="yes"/>
      <point x="357.3" y="237"/>
      <point x="268.3" y="270"/>
      <point x="199.3" y="299" type="curve" smooth="yes"/>
      <point x="127.3" y="329"/>
      <point x="62.3" y="355"/>
      <point x="62.3" y="427" type="curve" smooth="yes"/>
      <point x="62.3" y="508"/>
      <point x="125.3" y="548"/>
      <point x="193.3" y="548" type="curve" smooth="yes"/>
      <point x="244.3" y="548"/>
      <point x="288.3" y="527"/>
      <point x="314.3" y="494" type="curve" smooth="yes"/>
      <point x="316.3" y="492"/>
      <point x="319.3" y="491"/>
      <point x="322.3" y="491" type="curve" smooth="yes"/>
      <point x="328.3" y="491"/>
      <point x="332.3" y="494"/>
      <point x="332.3" y="500" type="curve" smooth="yes"/>
      <point x="332.3" y="502"/>
      <point x="331.3" y="505"/>
      <point x="330.3" y="506" type="curve" smooth="yes"/>
      <point x="300.3" y="544"/>
      <point x="249.3" y="568"/>
      <point x="193.3" y="568" type="curve" smooth="yes"/>
      <point x="118.3" y="568"/>
      <point x="42.3" y="521"/>
      <point x="42.3" y="427" type="curve" smooth="yes"/>
      <point x="42.3" y="342"/>
      <point x="119.3" y="311"/>
      <point x="192.3" y="280" type="curve" smooth="yes"/>
      <point x="274.3" y="247"/>
      <point x="337.3" y="221"/>
      <point x="337.3" y="140" type="curve" smooth="yes"/>
      <point x="337.3" y="55"/>
      <point x="271.3" y="15"/>
      <point x="185.3" y="15" type="curve" smooth="yes"/>
      <point x="127.3" y="15"/>
      <point x="78.3" y="41"/>
      <point x="52.3" y="81" type="curve" smooth="yes"/>
      <point x="50.577" y="83.651"/>
      <point x="48.3" y="86"/>
      <point x="44.3" y="86" type="curve" smooth="yes"/>
      <point x="37.855" y="86"/>
      <point x="35" y="80.872"/>
      <point x="35" y="76.124" type="curve" smooth="yes"/>
      <point x="35" y="74.242"/>
      <point x="35.426" y="72.405"/>
    </contour>
  </outline>
</glyph>
<glyph name="t" format="2">
  <advance width="356"/>
  <unicode hex="0074"/>
  <anchor x="237" y="0" name="bottom"/>
  <anchor x="156" y="672.893" name="top"/>
  <anchor x="360.64" y="776.863" name="topright"/>
  <outline>
    <contour>
      <point x="317" y="77" type="curve" smooth="yes"/>
      <point x="295" y="38"/>
      <point x="265" y="15"/>
      <point x="223" y="15" type="curve" smooth="yes"/>
      <point x="215" y="15" type="line" smooth="yes"/>
      <point x="167" y="15"/>
      <point x="139.883" y="49"/>
      <point x="140" y="121" type="curve" smooth="yes"/>
      <point x="141" y="737" type="line" smooth="yes"/>
      <point x="141" y="743"/>
      <point x="137" y="747"/>
      <point x="131" y="747" type="curve" smooth="yes"/>
      <point x="125" y="747"/>
      <point x="121" y="743"/>
      <point x="121" y="737" type="curve" smooth="yes"/>
      <point x="120" y="121" type="line" smooth="yes"/>
      <point x="119.87" y="41"/>
      <point x="156" y="-5"/>
      <point x="215" y="-5" type="curve" smooth="yes"/>
      <point x="223" y="-5" type="line" smooth="yes"/>
      <point x="271" y="-5"/>
      <point x="310" y="24"/>
      <point x="335" y="67" type="curve" smooth="yes"/>
      <point x="335.709" y="68.418"/>
      <point x="336.027" y="70.003"/>
      <point x="335.994" y="71.597" type="curve" smooth="yes"/>
      <point x="335.887" y="76.75"/>
      <point x="332.11" y="82"/>
      <point x="326" y="82" type="curve" smooth="yes"/>
      <point x="322" y="82"/>
      <point x="319" y="80"/>
    </contour>
    <contour>
      <point x="30" y="548" type="curve" smooth="yes"/>
      <point x="309" y="548" type="line" smooth="yes"/>
      <point x="315" y="548"/>
      <point x="319" y="552"/>
      <point x="319" y="558" type="curve" smooth="yes"/>
      <point x="319" y="564"/>
      <point x="315" y="568"/>
      <point x="309" y="568" type="curve" smooth="yes"/>
      <point x="30" y="568" type="line" smooth="yes"/>
      <point x="24" y="568"/>
      <point x="20" y="564"/>
      <point x="20" y="558" type="curve" smooth="yes"/>
      <point x="20" y="552"/>
      <point x="24" y="548"/>
    </contour>
    <contour>
      <point x="30" y="431" type="curve" smooth="yes"/>
      <point x="309" y="431" type="line" smooth="yes"/>
      <point x="315" y="431"/>
      <point x="319" y="435"/>
      <point x="319" y="441" type="curve" smooth="yes"/>
      <point x="319" y="447"/>
      <point x="315" y="451"/>
      <point x="309" y="451" type="curve" smooth="yes"/>
      <point x="30" y="451" type="line" smooth="yes"/>
      <point x="24" y="451"/>
      <point x="20" y="447"/>
      <point x="20" y="441" type="curve" smooth="yes"/>
      <point x="20" y="435"/>
      <point x="24" y="431"/>
    </contour>
  </outline>
</glyph>
<glyph name="u" format="2">
  <advance width="482"/>
  <unicode hex="0075"/>
  <anchor x="242" y="-5" name="bottom"/>
  <anchor x="415" y="5" name="ogonek"/>
  <anchor x="242" y="573" name="top"/>
  <anchor x="462" y="573" name="topright"/>
  <outline>
    <contour>
      <point x="422" y="10" type="curve" smooth="yes"/>
      <point x="422" y="558" type="line" smooth="yes"/>
      <point x="422" y="564"/>
      <point x="419" y="568"/>
      <point x="413" y="568" type="curve" smooth="yes"/>
      <point x="407" y="568"/>
      <point x="403" y="564"/>
      <point x="403" y="558" type="curve" smooth="yes"/>
      <point x="403" y="10" type="line" smooth="yes"/>
      <point x="403" y="4"/>
      <point x="407" y="0"/>
      <point x="413" y="0" type="curve" smooth="yes"/>
      <point x="419" y="0"/>
      <point x="422" y="4"/>
    </contour>
    <contour>
      <point x="403" y="254" type="curve" smooth="yes"/>
      <point x="403" y="112"/>
      <point x="328" y="15"/>
      <point x="220" y="15" type="curve" smooth="yes"/>
      <point x="207" y="15" type="line" smooth="yes"/>
      <point x="126" y="15"/>
      <point x="81.24" y="67"/>
      <point x="81" y="162" type="curve" smooth="yes"/>
      <point x="80" y="558" type="line" smooth="yes"/>
      <point x="79.985" y="564"/>
      <point x="76" y="568"/>
      <point x="70" y="568" type="curve" smooth="yes"/>
      <point x="64" y="568"/>
      <point x="59.985" y="564"/>
      <point x="60" y="558" type="curve" smooth="yes"/>
      <point x="61" y="162" type="line" smooth="yes"/>
      <point x="61.263" y="58"/>
      <point x="115" y="-5"/>
      <point x="207" y="-5" type="curve" smooth="yes"/>
      <point x="220" y="-5" type="line" smooth="yes"/>
      <point x="339" y="-5"/>
      <point x="422" y="104"/>
      <point x="422" y="254" type="curve" smooth="yes"/>
      <point x="422" y="260"/>
      <point x="419" y="264"/>
      <point x="413" y="264" type="curve" smooth="yes"/>
      <point x="407" y="264"/>
      <point x="403" y="260"/>
    </contour>
    <contour>
      <point x="71" y="185" type="curve" smooth="yes"/>
      <point x="408" y="185" type="line" smooth="yes"/>
      <point x="414" y="185"/>
      <point x="418" y="189"/>
      <point x="418" y="194" type="curve" smooth="yes"/>
      <point x="418" y="200"/>
      <point x="414" y="204"/>
      <point x="408" y="204" type="curve" smooth="yes"/>
      <point x="71" y="204" type="line" smooth="yes"/>
      <point x="65" y="204"/>
      <point x="61" y="200"/>
      <point x="61" y="194" type="curve" smooth="yes"/>
      <point x="61" y="189"/>
      <point x="65" y="185"/>
    </contour>
  </outline>
</glyph>
<glyph name="v" format="2">
  <advance width="439.21"/>
  <unicode hex="0076"/>
  <anchor x="219.71" y="-5" name="bottom"/>
  <anchor x="219.71" y="573" name="top"/>
  <outline>
    <contour>
      <point x="401.71" y="561" type="curve" smooth="yes"/>
      <point x="219.71" y="39" type="line"/>
      <point x="37.71" y="561" type="line"/>
      <point x="37.71" y="565"/>
      <point x="33.71" y="568"/>
      <point x="29.71" y="568" type="curve" smooth="yes"/>
      <point x="22.781" y="568"/>
      <point x="20.001" y="562.666"/>
      <point x="20.001" y="558.385" type="curve" smooth="yes"/>
      <point x="20.001" y="557.106"/>
      <point x="20.373" y="555.973"/>
      <point x="20.71" y="555" type="curve" smooth="yes"/>
      <point x="208.669" y="11.901" type="line" smooth="yes"/>
      <point x="213.928" y="-3.293"/>
      <point x="225.492" y="-3.293"/>
      <point x="230.751" y="11.901" type="curve" smooth="yes"/>
      <point x="418.71" y="555" type="line" smooth="yes"/>
      <point x="419.073" y="556.049"/>
      <point x="419.256" y="557.379"/>
      <point x="419.203" y="558.785" type="curve" smooth="yes"/>
      <point x="419.043" y="563.042"/>
      <point x="416.724" y="568"/>
      <point x="410.71" y="568" type="curve" smooth="yes"/>
      <point x="406.71" y="568"/>
      <point x="402.71" y="565"/>
    </contour>
    <contour>
      <point x="169.71" y="187" type="curve" smooth="yes"/>
      <point x="300.71" y="555" type="line" smooth="yes"/>
      <point x="301.188" y="556.343"/>
      <point x="301.373" y="557.701"/>
      <point x="301.3" y="559.009" type="curve" smooth="yes"/>
      <point x="301.03" y="563.857"/>
      <point x="297.223" y="568"/>
      <point x="291.71" y="568" type="curve" smooth="yes"/>
      <point x="287.71" y="568"/>
      <point x="283.71" y="565"/>
      <point x="282.71" y="561" type="curve" smooth="yes"/>
      <point x="151.71" y="192" type="line" smooth="yes"/>
      <point x="151.33" y="190.93"/>
      <point x="151.174" y="189.821"/>
      <point x="151.221" y="188.729" type="curve" smooth="yes"/>
      <point x="151.414" y="184.217"/>
      <point x="155.074" y="180"/>
      <point x="160.71" y="180" type="curve" smooth="yes"/>
      <point x="164.71" y="180"/>
      <point x="168.71" y="183"/>
    </contour>
  </outline>
</glyph>
<glyph name="w" format="2">
  <advance width="652"/>
  <unicode hex="0077"/>
  <anchor x="321.99" y="-5" name="bottom"/>
  <anchor x="321.99" y="573" name="top"/>
  <outline>
    <contour>
      <point x="612.582" y="561.366" type="curve" smooth="yes"/>
      <point x="429" y="46.713" type="line"/>
      <point x="245.418" y="561.366" type="line" smooth="yes"/>
      <point x="244.037" y="565.233"/>
      <point x="240.342" y="568"/>
      <point x="236" y="568" type="curve" smooth="yes"/>
      <point x="230.291" y="568"/>
      <point x="225.902" y="563.057"/>
      <point x="226.017" y="557.684" type="curve" smooth="yes"/>
      <point x="226.039" y="556.672"/>
      <point x="226.22" y="555.646"/>
      <point x="226.582" y="554.634" type="curve" smooth="yes"/>
      <point x="421.728" y="7.669" type="line" smooth="yes"/>
      <point x="424.376" y="0.247"/>
      <point x="433.624" y="0.247"/>
      <point x="436.272" y="7.669" type="curve" smooth="yes"/>
      <point x="631.418" y="554.634" type="line" smooth="yes"/>
      <point x="631.815" y="555.744"/>
      <point x="631.994" y="556.871"/>
      <point x="631.984" y="557.977" type="curve" smooth="yes"/>
      <point x="631.937" y="563.236"/>
      <point x="627.606" y="568"/>
      <point x="622" y="568" type="curve" smooth="yes"/>
      <point x="617.658" y="568"/>
      <point x="613.963" y="565.233"/>
    </contour>
    <contour>
      <point x="316.582" y="308.57" type="curve" smooth="yes"/>
      <point x="223" y="46.713" type="line"/>
      <point x="39.418" y="561.366" type="line" smooth="yes"/>
      <point x="38.037" y="565.233"/>
      <point x="34.342" y="568"/>
      <point x="30" y="568" type="curve" smooth="yes"/>
      <point x="24.379" y="568"/>
      <point x="20.039" y="563.21"/>
      <point x="20.015" y="557.935" type="curve" smooth="yes"/>
      <point x="20.01" y="556.842"/>
      <point x="20.19" y="555.73"/>
      <point x="20.582" y="554.634" type="curve" smooth="yes"/>
      <point x="215.738" y="7.643" type="line" smooth="yes"/>
      <point x="218.384" y="0.224"/>
      <point x="227.623" y="0.222"/>
      <point x="230.274" y="7.639" type="curve" smooth="yes"/>
      <point x="335.418" y="301.838" type="line" smooth="yes"/>
      <point x="335.824" y="302.974"/>
      <point x="336.002" y="304.128"/>
      <point x="335.983" y="305.258" type="curve" smooth="yes"/>
      <point x="335.894" y="310.486"/>
      <point x="331.578" y="315.204"/>
      <point x="326" y="315.204" type="curve" smooth="yes"/>
      <point x="321.658" y="315.204"/>
      <point x="317.962" y="312.437"/>
    </contour>
    <contour>
      <point x="30" y="548" type="curve" smooth="yes"/>
      <point x="622" y="548" type="line" smooth="yes"/>
      <point x="627.523" y="548"/>
      <point x="631" y="552.477"/>
      <point x="631" y="558" type="curve" smooth="yes"/>
      <point x="631" y="563.523"/>
      <point x="627.523" y="568"/>
      <point x="622" y="568" type="curve" smooth="yes"/>
      <point x="30" y="568" type="line" smooth="yes"/>
      <point x="24.477" y="568"/>
      <point x="21" y="563.523"/>
      <point x="21" y="558" type="curve" smooth="yes"/>
      <point x="21" y="552.477"/>
      <point x="24.477" y="548"/>
    </contour>
  </outline>
</glyph>
<glyph name="x" format="2">
  <advance width="455"/>
  <unicode hex="0078"/>
  <anchor x="228" y="-5" name="bottom"/>
  <anchor x="228" y="573" name="top"/>
  <outline>
    <contour>
      <point x="423" y="15" type="curve" smooth="yes"/>
      <point x="47" y="564" type="line"/>
      <point x="45" y="566"/>
      <point x="42" y="568"/>
      <point x="39" y="568" type="curve" smooth="yes"/>
      <point x="34" y="568"/>
      <point x="30" y="564"/>
      <point x="30" y="558" type="curve" smooth="yes"/>
      <point x="30" y="556"/>
      <point x="30.736" y="553.845"/>
      <point x="32" y="552" type="curve" smooth="yes"/>
      <point x="408" y="3" type="line"/>
      <point x="410" y="1"/>
      <point x="413" y="-1"/>
      <point x="416" y="-1" type="curve" smooth="yes"/>
      <point x="421" y="-1"/>
      <point x="425" y="3"/>
      <point x="425" y="9" type="curve" smooth="yes"/>
      <point x="425" y="11"/>
      <point x="424.264" y="13.155"/>
    </contour>
    <contour>
      <point x="39" y="-1" type="curve" smooth="yes"/>
      <point x="416" y="-1" type="line" smooth="yes"/>
      <point x="421" y="-1"/>
      <point x="424" y="3"/>
      <point x="424" y="9" type="curve" smooth="yes"/>
      <point x="424" y="15"/>
      <point x="420" y="19"/>
      <point x="415" y="19" type="curve" smooth="yes"/>
      <point x="40" y="19" type="line" smooth="yes"/>
      <point x="35" y="19"/>
      <point x="31" y="15"/>
      <point x="31" y="9" type="curve" smooth="yes"/>
      <point x="31" y="3"/>
      <point x="34" y="-1"/>
    </contour>
    <contour>
      <point x="408" y="564" type="curve"/>
      <point x="32" y="15" type="line" smooth="yes"/>
      <point x="30.736" y="13.155"/>
      <point x="30" y="11"/>
      <point x="30" y="9" type="curve" smooth="yes"/>
      <point x="30" y="3"/>
      <point x="34" y="-1"/>
      <point x="39" y="-1" type="curve" smooth="yes"/>
      <point x="42" y="-1"/>
      <point x="45" y="1"/>
      <point x="47" y="3" type="curve"/>
      <point x="423" y="552" type="line" smooth="yes"/>
      <point x="424.264" y="553.845"/>
      <point x="425" y="556"/>
      <point x="425" y="558" type="curve" smooth="yes"/>
      <point x="425" y="564"/>
      <point x="421" y="568"/>
      <point x="416" y="568" type="curve" smooth="yes"/>
      <point x="413" y="568"/>
      <point x="410" y="566"/>
    </contour>
  </outline>
</glyph>
<glyph name="z" format="2">
  <advance width="446"/>
  <unicode hex="007A"/>
  <anchor x="223" y="-5" name="bottom"/>
  <anchor x="223" y="284" name="center"/>
  <anchor x="223" y="573" name="top"/>
  <outline>
    <contour>
      <point x="400" y="568" type="curve" smooth="yes"/>
      <point x="56" y="568" type="line" smooth="yes"/>
      <point x="50" y="568"/>
      <point x="46" y="564"/>
      <point x="46" y="558" type="curve" smooth="yes"/>
      <point x="46" y="552"/>
      <point x="50" y="548"/>
      <point x="56" y="548" type="curve" smooth="yes"/>
      <point x="400" y="548" type="line" smooth="yes"/>
      <point x="406" y="548"/>
      <point x="410" y="552"/>
      <point x="410" y="558" type="curve" smooth="yes"/>
      <point x="410" y="564"/>
      <point x="406" y="568"/>
    </contour>
    <contour>
      <point x="74" y="282" type="curve" smooth="yes"/>
      <point x="381" y="282" type="line" smooth="yes"/>
      <point x="387" y="282"/>
      <point x="391" y="286"/>
      <point x="391" y="292" type="curve" smooth="yes"/>
      <point x="391" y="298"/>
      <point x="387" y="302"/>
      <point x="381" y="302" type="curve" smooth="yes"/>
      <point x="74" y="302" type="line" smooth="yes"/>
      <point x="68" y="302"/>
      <point x="64" y="298"/>
      <point x="64" y="292" type="curve" smooth="yes"/>
      <point x="64" y="286"/>
      <point x="68" y="282"/>
    </contour>
    <contour>
      <point x="47" y="5" type="curve"/>
      <point x="408.262" y="551.611" type="line" smooth="yes"/>
      <point x="409.31" y="553.2"/>
      <point x="410.021" y="556.025"/>
      <point x="410" y="558" type="curve" smooth="yes"/>
      <point x="409.949" y="562.672"/>
      <point x="406.325" y="568"/>
      <point x="400" y="568" type="curve" smooth="yes"/>
      <point x="397" y="568"/>
      <point x="393" y="566"/>
      <point x="392" y="563" type="curve"/>
      <point x="31.761" y="16.676" type="line" smooth="yes"/>
      <point x="30.665" y="15.008"/>
      <point x="29.948" y="12.075"/>
      <point x="30" y="10" type="curve" smooth="yes"/>
      <point x="30.115" y="5.415"/>
      <point x="33.492" y="0"/>
      <point x="39" y="0" type="curve" smooth="yes"/>
      <point x="42" y="0"/>
      <point x="46" y="2"/>
    </contour>
    <contour>
      <point x="406" y="20" type="curve" smooth="yes"/>
      <point x="39" y="20" type="line" smooth="yes"/>
      <point x="34" y="20"/>
      <point x="30" y="16"/>
      <point x="30" y="10" type="curve" smooth="yes"/>
      <point x="30" y="4"/>
      <point x="34" y="0"/>
      <point x="39" y="0" type="curve" smooth="yes"/>
      <point x="406" y="0" type="line" smooth="yes"/>
      <point x="412" y="0"/>
      <point x="416" y="4"/>
      <point x="416" y="10" type="curve" smooth="yes"/>
      <point x="416" y="16"/>
      <point x="412" y="20"/>
    </contour>
  </outline>
</glyph>
<glyph name="braceleft" format="2">
  <advance width="275"/>
  <unicode hex="007B"/>
  <outline>
    <contour>
      <point x="59" y="337" type="curve" smooth="yes"/>
      <point x="67" y="337" type="line" smooth="yes"/>
      <point x="116" y="337"/>
      <point x="174" y="366"/>
      <point x="174" y="432" type="curve" smooth="yes"/>
      <point x="174" y="473"/>
      <point x="157" y="508"/>
      <point x="140" y="543" type="curve" smooth="yes"/>
      <point x="122" y="580"/>
      <point x="105" y="616"/>
      <point x="105" y="660" type="curve" smooth="yes"/>
      <point x="105" y="738"/>
      <point x="136" y="785"/>
      <point x="198" y="785" type="curve" smooth="yes"/>
      <point x="211" y="785"/>
      <point x="224" y="781"/>
      <point x="231" y="777" type="curve" smooth="yes"/>
      <point x="236" y="773"/>
      <point x="246" y="776"/>
      <point x="246" y="785" type="curve" smooth="yes"/>
      <point x="246" y="789"/>
      <point x="243.828" y="791.586"/>
      <point x="241" y="793" type="curve" smooth="yes"/>
      <point x="231.791" y="797.604"/>
      <point x="215" y="804"/>
      <point x="198" y="804" type="curve" smooth="yes"/>
      <point x="125" y="804"/>
      <point x="85" y="745"/>
      <point x="85" y="660" type="curve" smooth="yes"/>
      <point x="85" y="612"/>
      <point x="105" y="571"/>
      <point x="122" y="535" type="curve" smooth="yes"/>
      <point x="139" y="499"/>
      <point x="154" y="468"/>
      <point x="154" y="432" type="curve" smooth="yes"/>
      <point x="154" y="379"/>
      <point x="112" y="356"/>
      <point x="67" y="356" type="curve" smooth="yes"/>
      <point x="59" y="356" type="line" smooth="yes"/>
      <point x="53" y="356"/>
      <point x="49" y="352"/>
      <point x="49" y="346" type="curve" smooth="yes"/>
      <point x="49" y="341"/>
      <point x="53" y="337"/>
    </contour>
    <contour>
      <point x="226.804" y="-81.262"/>
      <point x="211" y="-91"/>
      <point x="198" y="-91" type="curve" smooth="yes"/>
      <point x="136" y="-91"/>
      <point x="105" y="-44"/>
      <point x="105" y="34" type="curve" smooth="yes"/>
      <point x="105" y="78"/>
      <point x="122" y="114"/>
      <point x="140" y="151" type="curve" smooth="yes"/>
      <point x="157" y="186"/>
      <point x="174" y="221"/>
      <point x="174" y="262" type="curve" smooth="yes"/>
      <point x="174" y="328"/>
      <point x="116" y="356"/>
      <point x="67" y="356" type="curve" smooth="yes"/>
      <point x="59" y="356" type="line" smooth="yes"/>
      <point x="53" y="356"/>
      <point x="49" y="352"/>
      <point x="49" y="346" type="curve" smooth="yes"/>
      <point x="49" y="341"/>
      <point x="53" y="337"/>
      <point x="59" y="337" type="curve" smooth="yes"/>
      <point x="67" y="337" type="line" smooth="yes"/>
      <point x="112" y="337"/>
      <point x="154" y="315"/>
      <point x="154" y="262" type="curve" smooth="yes"/>
      <point x="154" y="226"/>
      <point x="139" y="194"/>
      <point x="122" y="159" type="curve" smooth="yes"/>
      <point x="105" y="122"/>
      <point x="85" y="82"/>
      <point x="85" y="34" type="curve" smooth="yes"/>
      <point x="85" y="-51"/>
      <point x="125" y="-111"/>
      <point x="198" y="-111" type="curve" smooth="yes"/>
      <point x="215" y="-111"/>
      <point x="231.657" y="-104.45"/>
      <point x="241" y="-99" type="curve" smooth="yes"/>
      <point x="243.732" y="-97.407"/>
      <point x="246" y="-95"/>
      <point x="246" y="-91" type="curve" smooth="yes"/>
      <point x="246" y="-84.626"/>
      <point x="240.984" y="-81.262"/>
      <point x="236.281" y="-81.262" type="curve" smooth="yes"/>
    </contour>
  </outline>
</glyph>
<glyph name="bar" format="2">
  <advance width="197"/>
  <unicode hex="007C"/>
  <outline>
    <contour>
      <point x="109" y="-21" type="curve" smooth="yes"/>
      <point x="109" y="792" type="line" smooth="yes"/>
      <point x="109" y="797"/>
      <point x="105" y="801"/>
      <point x="99" y="801" type="curve" smooth="yes"/>
      <point x="93" y="801"/>
      <point x="89" y="797"/>
      <point x="89" y="792" type="curve" smooth="yes"/>
      <point x="89" y="-21" type="line" smooth="yes"/>
      <point x="89" y="-27"/>
      <point x="93" y="-31"/>
      <point x="99" y="-31" type="curve" smooth="yes"/>
      <point x="105" y="-31"/>
      <point x="109" y="-27"/>
    </contour>
  </outline>
</glyph>
<glyph name="asciitilde" format="2">
  <advance width="493"/>
  <unicode hex="007E"/>
  <outline>
    <contour>
      <point x="437.501" y="302.637" type="curve" smooth="yes"/>
      <point x="437.501" y="238.507"/>
      <point x="406.398" y="218"/>
      <point x="354" y="218" type="curve" smooth="yes"/>
      <point x="304" y="218"/>
      <point x="277" y="247"/>
      <point x="248" y="278" type="curve" smooth="yes"/>
      <point x="218" y="310"/>
      <point x="185" y="345"/>
      <point x="123" y="345" type="curve" smooth="yes"/>
      <point x="65.782" y="345"/>
      <point x="36.21" y="303.838"/>
      <point x="36.21" y="251.37" type="curve" smooth="yes"/>
      <point x="36.21" y="236.898"/>
      <point x="37.86" y="221.378"/>
      <point x="43" y="206" type="curve" smooth="yes"/>
      <point x="44.418" y="201.759"/>
      <point x="49" y="199"/>
      <point x="53" y="199" type="curve" smooth="yes"/>
      <point x="58.943" y="199"/>
      <point x="63.444" y="204.046"/>
      <point x="63.444" y="209.241" type="curve" smooth="yes"/>
      <point x="63.444" y="210.165"/>
      <point x="55.774" y="241.457"/>
      <point x="55.774" y="254.707" type="curve" smooth="yes"/>
      <point x="55.774" y="296.145"/>
      <point x="79.053" y="326"/>
      <point x="123" y="326" type="curve" smooth="yes"/>
      <point x="177" y="326"/>
      <point x="203" y="296"/>
      <point x="233" y="265" type="curve" smooth="yes"/>
      <point x="263" y="233"/>
      <point x="295" y="198"/>
      <point x="354" y="198" type="curve" smooth="yes"/>
      <point x="414.733" y="198"/>
      <point x="457.39" y="227.581"/>
      <point x="457.39" y="305.362" type="curve" smooth="yes"/>
      <point x="457.39" y="313.388"/>
      <point x="456.935" y="321.927"/>
      <point x="456" y="331" type="curve" smooth="yes"/>
      <point x="455" y="336"/>
      <point x="451" y="340"/>
      <point x="446" y="340" type="curve" smooth="yes"/>
      <point x="440.519" y="340"/>
      <point x="435.872" y="335.827"/>
      <point x="435.872" y="330.531" type="curve" smooth="yes"/>
      <point x="435.872" y="325.075"/>
      <point x="437.501" y="310.717"/>
    </contour>
  </outline>
</glyph>
<glyph name="cent" format="2">
  <advance width="446"/>
  <unicode hex="00A2"/>
  <outline>
    <contour>
      <point x="406" y="471" type="curve" smooth="yes"/>
      <point x="380" y="539"/>
      <point x="329" y="572"/>
      <point x="253" y="572" type="curve" smooth="yes"/>
      <point x="240" y="572" type="line" smooth="yes"/>
      <point x="123" y="572"/>
      <point x="49" y="472"/>
      <point x="49" y="315" type="curve" smooth="yes"/>
      <point x="49" y="254" type="line" smooth="yes"/>
      <point x="49" y="97"/>
      <point x="122" y="-5"/>
      <point x="240" y="-5" type="curve" smooth="yes"/>
      <point x="253" y="-5" type="line" smooth="yes"/>
      <point x="318" y="-5"/>
      <point x="371" y="27"/>
      <point x="405" y="85" type="curve" smooth="yes"/>
      <point x="406.024" y="87.049"/>
      <point x="406.349" y="89.447"/>
      <point x="405.975" y="91.717" type="curve" smooth="yes"/>
      <point x="405.252" y="96.097"/>
      <point x="401.927" y="100"/>
      <point x="396" y="100" type="curve" smooth="yes"/>
      <point x="392" y="100"/>
      <point x="389" y="98"/>
      <point x="387" y="95" type="curve" smooth="yes"/>
      <point x="357" y="41"/>
      <point x="312" y="15"/>
      <point x="253" y="15" type="curve" smooth="yes"/>
      <point x="240" y="15" type="line" smooth="yes"/>
      <point x="134" y="15"/>
      <point x="69" y="105"/>
      <point x="69" y="254" type="curve" smooth="yes"/>
      <point x="69" y="315" type="line" smooth="yes"/>
      <point x="69" y="464"/>
      <point x="134" y="553"/>
      <point x="240" y="553" type="curve" smooth="yes"/>
      <point x="253" y="553" type="line" smooth="yes"/>
      <point x="322" y="553"/>
      <point x="364" y="525"/>
      <point x="388" y="463" type="curve" smooth="yes"/>
      <point x="389" y="460"/>
      <point x="393" y="457"/>
      <point x="397" y="457" type="curve" smooth="yes"/>
      <point x="402.579" y="457"/>
      <point x="406.888" y="461.447"/>
      <point x="406.888" y="466.797" type="curve" smooth="yes"/>
      <point x="406.888" y="468.159"/>
      <point x="406.609" y="469.579"/>
    </contour>
    <contour>
      <point x="236" y="680" type="curve" smooth="yes"/>
      <point x="236" y="563" type="line" smooth="yes"/>
      <point x="236" y="557"/>
      <point x="240" y="553"/>
      <point x="246" y="553" type="curve" smooth="yes"/>
      <point x="252" y="553"/>
      <point x="256" y="557"/>
      <point x="256" y="563" type="curve" smooth="yes"/>
      <point x="256" y="680" type="line" smooth="yes"/>
      <point x="256" y="686"/>
      <point x="252" y="690"/>
      <point x="246" y="690" type="curve" smooth="yes"/>
      <point x="240" y="690"/>
      <point x="236" y="686"/>
    </contour>
    <contour>
      <point x="236" y="5" type="curve" smooth="yes"/>
      <point x="236" y="-112" type="line" smooth="yes"/>
      <point x="236" y="-117"/>
      <point x="240" y="-121"/>
      <point x="246" y="-121" type="curve" smooth="yes"/>
      <point x="252" y="-121"/>
      <point x="256" y="-117"/>
      <point x="256" y="-112" type="curve" smooth="yes"/>
      <point x="256" y="5" type="line" smooth="yes"/>
      <point x="256" y="11"/>
      <point x="252" y="15"/>
      <point x="246" y="15" type="curve" smooth="yes"/>
      <point x="240" y="15"/>
      <point x="236" y="11"/>
    </contour>
  </outline>
</glyph>
<glyph name="sterling" format="2">
  <advance width="475"/>
  <unicode hex="00A3"/>
  <outline>
    <contour>
      <point x="435" y="20" type="curve" smooth="yes"/>
      <point x="30" y="20" type="line"/>
      <point x="35" y="1" type="line"/>
      <point x="161" y="67"/>
      <point x="192" y="133"/>
      <point x="192" y="199" type="curve" smooth="yes"/>
      <point x="192" y="254"/>
      <point x="171" y="309"/>
      <point x="149" y="366" type="curve" smooth="yes"/>
      <point x="125" y="429"/>
      <point x="100" y="495"/>
      <point x="100" y="568" type="curve"/>
      <point x="100" y="568"/>
      <point x="100" y="569"/>
      <point x="100" y="569" type="curve"/>
      <point x="101" y="661"/>
      <point x="166" y="732"/>
      <point x="256" y="732" type="curve" smooth="yes"/>
      <point x="258" y="732" type="line" smooth="yes"/>
      <point x="321" y="732"/>
      <point x="373" y="697"/>
      <point x="401" y="644" type="curve" smooth="yes"/>
      <point x="403" y="641"/>
      <point x="406" y="639"/>
      <point x="410" y="639" type="curve" smooth="yes"/>
      <point x="415.957" y="639"/>
      <point x="419.141" y="643.435"/>
      <point x="419.141" y="648.177" type="curve" smooth="yes"/>
      <point x="419.141" y="649.804"/>
      <point x="418.766" y="651.467"/>
      <point x="418" y="653" type="curve" smooth="yes"/>
      <point x="388" y="712"/>
      <point x="328" y="752"/>
      <point x="258" y="752" type="curve" smooth="yes"/>
      <point x="256" y="752" type="line" smooth="yes"/>
      <point x="156" y="752"/>
      <point x="81" y="670"/>
      <point x="80" y="569" type="curve"/>
      <point x="80" y="569"/>
      <point x="80" y="568"/>
      <point x="80" y="568" type="curve"/>
      <point x="80" y="492"/>
      <point x="107" y="422"/>
      <point x="131" y="359" type="curve" smooth="yes"/>
      <point x="153" y="302"/>
      <point x="173" y="250"/>
      <point x="173" y="199" type="curve" smooth="yes"/>
      <point x="173" y="138"/>
      <point x="145" y="81"/>
      <point x="25" y="19" type="curve"/>
      <point x="30" y="0" type="line"/>
      <point x="435" y="0" type="line" smooth="yes"/>
      <point x="441" y="0"/>
      <point x="445" y="4"/>
      <point x="445" y="10" type="curve" smooth="yes"/>
      <point x="445" y="16"/>
      <point x="441" y="20"/>
    </contour>
    <contour>
      <point x="374" y="383" type="curve" smooth="yes"/>
      <point x="48" y="383" type="line" smooth="yes"/>
      <point x="42" y="383"/>
      <point x="38" y="379"/>
      <point x="38" y="373" type="curve" smooth="yes"/>
      <point x="38" y="367"/>
      <point x="42" y="363"/>
      <point x="48" y="363" type="curve" smooth="yes"/>
      <point x="374" y="363" type="line" smooth="yes"/>
      <point x="380" y="363"/>
      <point x="384" y="367"/>
      <point x="384" y="373" type="curve" smooth="yes"/>
      <point x="384" y="379"/>
      <point x="380" y="383"/>
    </contour>
  </outline>
</glyph>
<glyph name="currency" format="2">
  <advance width="460"/>
  <unicode hex="00A4"/>
  <outline>
    <contour>
      <point x="230" y="119" type="curve" smooth="yes"/>
      <point x="329" y="119"/>
      <point x="410" y="203"/>
      <point x="410" y="304" type="curve" smooth="yes"/>
      <point x="410" y="406"/>
      <point x="329" y="489"/>
      <point x="230" y="489" type="curve" smooth="yes"/>
      <point x="131" y="489"/>
      <point x="50" y="406"/>
      <point x="50" y="304" type="curve" smooth="yes"/>
      <point x="50" y="203"/>
      <point x="131" y="119"/>
    </contour>
    <contour>
      <point x="230" y="139" type="curve" smooth="yes"/>
      <point x="140" y="139"/>
      <point x="70" y="212"/>
      <point x="70" y="304" type="curve" smooth="yes"/>
      <point x="70" y="397"/>
      <point x="140" y="469"/>
      <point x="230" y="469" type="curve" smooth="yes"/>
      <point x="320" y="469"/>
      <point x="390" y="397"/>
      <point x="390" y="304" type="curve" smooth="yes"/>
      <point x="390" y="212"/>
      <point x="320" y="139"/>
    </contour>
    <contour>
      <point x="423" y="517" type="curve" smooth="yes"/>
      <point x="343" y="435" type="line" smooth="yes"/>
      <point x="342" y="433"/>
      <point x="341" y="431"/>
      <point x="341" y="428" type="curve" smooth="yes"/>
      <point x="341" y="422"/>
      <point x="344" y="418"/>
      <point x="350" y="418" type="curve" smooth="yes"/>
      <point x="353" y="418"/>
      <point x="355" y="419"/>
      <point x="357" y="421" type="curve" smooth="yes"/>
      <point x="437" y="503" type="line" smooth="yes"/>
      <point x="439" y="505"/>
      <point x="440" y="507"/>
      <point x="440" y="510" type="curve" smooth="yes"/>
      <point x="440" y="516"/>
      <point x="436" y="520"/>
      <point x="430" y="520" type="curve" smooth="yes"/>
      <point x="427" y="520"/>
      <point x="425" y="519"/>
    </contour>
    <contour>
      <point x="437" y="106" type="curve" smooth="yes"/>
      <point x="356" y="189" type="line" smooth="yes"/>
      <point x="354" y="190"/>
      <point x="352" y="191"/>
      <point x="349" y="191" type="curve" smooth="yes"/>
      <point x="343" y="191"/>
      <point x="340" y="188"/>
      <point x="340" y="182" type="curve" smooth="yes"/>
      <point x="340" y="179"/>
      <point x="341" y="177"/>
      <point x="342" y="175" type="curve" smooth="yes"/>
      <point x="423" y="92" type="line" smooth="yes"/>
      <point x="425" y="90"/>
      <point x="427" y="89"/>
      <point x="430" y="89" type="curve" smooth="yes"/>
      <point x="436" y="89"/>
      <point x="440" y="93"/>
      <point x="440" y="99" type="curve" smooth="yes"/>
      <point x="440" y="102"/>
      <point x="439" y="104"/>
    </contour>
    <contour>
      <point x="103" y="188" type="curve" smooth="yes"/>
      <point x="23" y="106" type="line" smooth="yes"/>
      <point x="21" y="104"/>
      <point x="20" y="102"/>
      <point x="20" y="99" type="curve" smooth="yes"/>
      <point x="20" y="93"/>
      <point x="24" y="89"/>
      <point x="30" y="89" type="curve" smooth="yes"/>
      <point x="33" y="89"/>
      <point x="35" y="90"/>
      <point x="37" y="92" type="curve" smooth="yes"/>
      <point x="116" y="174" type="line" smooth="yes"/>
      <point x="118" y="176"/>
      <point x="119" y="178"/>
      <point x="119" y="181" type="curve" smooth="yes"/>
      <point x="119" y="187"/>
      <point x="115" y="190"/>
      <point x="110" y="190" type="curve" smooth="yes"/>
      <point x="107" y="190"/>
      <point x="105" y="190"/>
    </contour>
    <contour>
      <point x="23" y="503" type="curve" smooth="yes"/>
      <point x="103" y="421" type="line" smooth="yes"/>
      <point x="105" y="419"/>
      <point x="107" y="418"/>
      <point x="110" y="418" type="curve" smooth="yes"/>
      <point x="115" y="418"/>
      <point x="119" y="422"/>
      <point x="119" y="428" type="curve" smooth="yes"/>
      <point x="119" y="431"/>
      <point x="118" y="433"/>
      <point x="116" y="435" type="curve" smooth="yes"/>
      <point x="37" y="517" type="line" smooth="yes"/>
      <point x="35" y="519"/>
      <point x="33" y="520"/>
      <point x="30" y="520" type="curve" smooth="yes"/>
      <point x="24" y="520"/>
      <point x="20" y="516"/>
      <point x="20" y="510" type="curve" smooth="yes"/>
      <point x="20" y="507"/>
      <point x="21" y="505"/>
    </contour>
  </outline>
</glyph>
<glyph name="yen" format="2">
  <advance width="435"/>
  <unicode hex="00A5"/>
  <outline>
    <contour>
      <point x="21" y="732" type="curve" smooth="yes"/>
      <point x="218" y="344" type="line"/>
      <point x="415" y="732" type="line" smooth="yes"/>
      <point x="415.773" y="733.546"/>
      <point x="416.081" y="735.291"/>
      <point x="415.976" y="737.031" type="curve" smooth="yes"/>
      <point x="415.673" y="742.041"/>
      <point x="411.939" y="747"/>
      <point x="406" y="747" type="curve" smooth="yes"/>
      <point x="402" y="747"/>
      <point x="399" y="745"/>
      <point x="397" y="742" type="curve" smooth="yes"/>
      <point x="218" y="388" type="line"/>
      <point x="38" y="742" type="line" smooth="yes"/>
      <point x="37" y="745"/>
      <point x="34" y="747"/>
      <point x="30" y="747" type="curve" smooth="yes"/>
      <point x="23.801" y="747"/>
      <point x="20.004" y="741.596"/>
      <point x="20.004" y="736.372" type="curve" smooth="yes"/>
      <point x="20.004" y="734.854"/>
      <point x="20.325" y="733.351"/>
    </contour>
    <contour>
      <point x="208" y="366" type="curve" smooth="yes"/>
      <point x="208" y="10" type="line" smooth="yes"/>
      <point x="208" y="4"/>
      <point x="212" y="0"/>
      <point x="218" y="0" type="curve" smooth="yes"/>
      <point x="224" y="0"/>
      <point x="228" y="4"/>
      <point x="228" y="10" type="curve" smooth="yes"/>
      <point x="228" y="366" type="line" smooth="yes"/>
      <point x="228" y="372"/>
      <point x="224" y="376"/>
      <point x="218" y="376" type="curve" smooth="yes"/>
      <point x="212" y="376"/>
      <point x="208" y="372"/>
    </contour>
    <contour>
      <point x="381" y="352" type="curve" smooth="yes"/>
      <point x="55" y="352" type="line" smooth="yes"/>
      <point x="49" y="352"/>
      <point x="45" y="348"/>
      <point x="45" y="342" type="curve" smooth="yes"/>
      <point x="45" y="337"/>
      <point x="49" y="333"/>
      <point x="55" y="333" type="curve" smooth="yes"/>
      <point x="381" y="333" type="line" smooth="yes"/>
      <point x="387" y="333"/>
      <point x="391" y="337"/>
      <point x="391" y="342" type="curve" smooth="yes"/>
      <point x="391" y="348"/>
      <point x="387" y="352"/>
    </contour>
    <contour>
      <point x="381" y="219" type="curve" smooth="yes"/>
      <point x="55" y="219" type="line" smooth="yes"/>
      <point x="49" y="219"/>
      <point x="45" y="215"/>
      <point x="45" y="209" type="curve" smooth="yes"/>
      <point x="45" y="203"/>
      <point x="49" y="199"/>
      <point x="55" y="199" type="curve" smooth="yes"/>
      <point x="381" y="199" type="line" smooth="yes"/>
      <point x="387" y="199"/>
      <point x="391" y="203"/>
      <point x="391" y="209" type="curve" smooth="yes"/>
      <point x="391" y="215"/>
      <point x="387" y="219"/>
    </contour>
  </outline>
</glyph>
<glyph name="brokenbar" format="2">
  <advance width="241"/>
  <unicode hex="00A6"/>
  <outline>
    <contour>
      <point x="109" y="474" type="curve" smooth="yes"/>
      <point x="109" y="792" type="line" smooth="yes"/>
      <point x="109" y="797"/>
      <point x="105" y="801"/>
      <point x="99" y="801" type="curve" smooth="yes"/>
      <point x="93" y="801"/>
      <point x="89" y="797"/>
      <point x="89" y="792" type="curve" smooth="yes"/>
      <point x="89" y="474" type="line" smooth="yes"/>
      <point x="89" y="468"/>
      <point x="93" y="464"/>
      <point x="99" y="464" type="curve" smooth="yes"/>
      <point x="105" y="464"/>
      <point x="109" y="468"/>
    </contour>
    <contour>
      <point x="89" y="297" type="curve" smooth="yes"/>
      <point x="89" y="-21" type="line" smooth="yes"/>
      <point x="89" y="-27"/>
      <point x="93" y="-31"/>
      <point x="99" y="-31" type="curve" smooth="yes"/>
      <point x="105" y="-31"/>
      <point x="109" y="-27"/>
      <point x="109" y="-21" type="curve" smooth="yes"/>
      <point x="109" y="297" type="line" smooth="yes"/>
      <point x="109" y="303"/>
      <point x="105" y="307"/>
      <point x="99" y="307" type="curve" smooth="yes"/>
      <point x="93" y="307"/>
      <point x="89" y="303"/>
    </contour>
  </outline>
</glyph>
<glyph name="section" format="2">
  <advance width="444"/>
  <unicode hex="00A7"/>
  <outline>
    <contour>
      <point x="41" y="14" type="curve" smooth="yes"/>
      <point x="70" y="-50"/>
      <point x="136" y="-97"/>
      <point x="226" y="-97" type="curve" smooth="yes"/>
      <point x="329" y="-97"/>
      <point x="415" y="-10"/>
      <point x="415" y="94" type="curve" smooth="yes"/>
      <point x="415" y="206"/>
      <point x="337" y="249"/>
      <point x="236" y="303" type="curve" smooth="yes"/>
      <point x="128" y="360"/>
      <point x="77" y="388"/>
      <point x="77" y="477" type="curve" smooth="yes"/>
      <point x="77" y="569"/>
      <point x="144" y="642"/>
      <point x="234" y="642" type="curve" smooth="yes"/>
      <point x="297" y="642"/>
      <point x="350" y="606"/>
      <point x="378" y="552" type="curve" smooth="yes"/>
      <point x="380" y="549"/>
      <point x="383" y="547"/>
      <point x="387" y="547" type="curve" smooth="yes"/>
      <point x="393.199" y="547"/>
      <point x="396.996" y="552.404"/>
      <point x="396.996" y="557.628" type="curve" smooth="yes"/>
      <point x="396.996" y="559.146"/>
      <point x="396.675" y="560.649"/>
      <point x="396" y="562" type="curve" smooth="yes"/>
      <point x="365" y="621"/>
      <point x="304" y="661"/>
      <point x="234" y="661" type="curve" smooth="yes"/>
      <point x="134" y="661"/>
      <point x="57" y="578"/>
      <point x="57" y="477" type="curve" smooth="yes"/>
      <point x="57" y="368"/>
      <point x="163" y="320"/>
      <point x="226" y="285" type="curve" smooth="yes"/>
      <point x="298" y="247"/>
      <point x="395" y="199"/>
      <point x="395" y="94" type="curve" smooth="yes"/>
      <point x="395" y="-1"/>
      <point x="320" y="-77"/>
      <point x="226" y="-77" type="curve" smooth="yes"/>
      <point x="143" y="-77"/>
      <point x="86" y="-37"/>
      <point x="59" y="22" type="curve" smooth="yes"/>
      <point x="57.284" y="25.749"/>
      <point x="54" y="28"/>
      <point x="50" y="28" type="curve" smooth="yes"/>
      <point x="44.421" y="28"/>
      <point x="40.112" y="22.918"/>
      <point x="40.112" y="17.817" type="curve" smooth="yes"/>
      <point x="40.112" y="16.518"/>
      <point x="40.391" y="15.218"/>
    </contour>
    <contour>
      <point x="367" y="-1" type="curve"/>
      <point x="386.105" y="17.338" type="line"/>
      <point x="375.468" y="124.414"/>
      <point x="272.431" y="172.889"/>
      <point x="208" y="207" type="curve" smooth="yes"/>
      <point x="128" y="250"/>
      <point x="49" y="291"/>
      <point x="49" y="381" type="curve" smooth="yes"/>
      <point x="49" y="417"/>
      <point x="58" y="447"/>
      <point x="75" y="474" type="curve" smooth="yes"/>
      <point x="76.131" y="475.414"/>
      <point x="76.702" y="477.227"/>
      <point x="76.737" y="479.102" type="curve" smooth="yes"/>
      <point x="76.824" y="483.856"/>
      <point x="73.455" y="489"/>
      <point x="67" y="489" type="curve" smooth="yes"/>
      <point x="63" y="489"/>
      <point x="60.733" y="486.645"/>
      <point x="59" y="484" type="curve" smooth="yes"/>
      <point x="40" y="455"/>
      <point x="30" y="418"/>
      <point x="30" y="381" type="curve" smooth="yes"/>
      <point x="30" y="280"/>
      <point x="113" y="236"/>
      <point x="198" y="190" type="curve" smooth="yes"/>
      <point x="308" y="131"/>
      <point x="367" y="100"/>
    </contour>
  </outline>
</glyph>
<glyph name="copyright" format="2">
  <advance width="602"/>
  <unicode hex="00A9"/>
  <outline>
    <contour>
      <point x="452" y="486" type="curve" smooth="yes"/>
      <point x="429" y="546"/>
      <point x="384" y="575"/>
      <point x="317" y="575" type="curve" smooth="yes"/>
      <point x="306" y="575" type="line" smooth="yes"/>
      <point x="202" y="575"/>
      <point x="137" y="487"/>
      <point x="137" y="347" type="curve" smooth="yes"/>
      <point x="137" y="295" type="line" smooth="yes"/>
      <point x="137" y="156"/>
      <point x="202" y="67"/>
      <point x="306" y="67" type="curve" smooth="yes"/>
      <point x="317" y="67" type="line" smooth="yes"/>
      <point x="374" y="67"/>
      <point x="421" y="95"/>
      <point x="451" y="147" type="curve" smooth="yes"/>
      <point x="451.908" y="148.573"/>
      <point x="452.324" y="150.394"/>
      <point x="452.269" y="152.213" type="curve" smooth="yes"/>
      <point x="452.123" y="157.113"/>
      <point x="448.564" y="162"/>
      <point x="442" y="162" type="curve" smooth="yes"/>
      <point x="438" y="162"/>
      <point x="434.693" y="160.183"/>
      <point x="433" y="157" type="curve" smooth="yes"/>
      <point x="408" y="110"/>
      <point x="368" y="87"/>
      <point x="317" y="87" type="curve" smooth="yes"/>
      <point x="306" y="87" type="line" smooth="yes"/>
      <point x="213" y="87"/>
      <point x="157" y="164"/>
      <point x="157" y="295" type="curve" smooth="yes"/>
      <point x="157" y="347" type="line" smooth="yes"/>
      <point x="157" y="479"/>
      <point x="213" y="556"/>
      <point x="306" y="556" type="curve" smooth="yes"/>
      <point x="317" y="556" type="line" smooth="yes"/>
      <point x="377" y="556"/>
      <point x="414" y="532"/>
      <point x="434" y="478" type="curve" smooth="yes"/>
      <point x="435.098" y="475.035"/>
      <point x="439" y="472"/>
      <point x="443" y="472" type="curve" smooth="yes"/>
      <point x="448.579" y="472"/>
      <point x="452.888" y="476.447"/>
      <point x="452.888" y="481.797" type="curve" smooth="yes"/>
      <point x="452.888" y="483.159"/>
      <point x="452.553" y="484.557"/>
    </contour>
    <contour>
      <point x="30" y="387" type="curve" smooth="yes"/>
      <point x="30" y="257" type="line" smooth="yes"/>
      <point x="30" y="27"/>
      <point x="125" y="-77"/>
      <point x="292" y="-77" type="curve" smooth="yes"/>
      <point x="310" y="-77" type="line" smooth="yes"/>
      <point x="477" y="-77"/>
      <point x="572" y="27"/>
      <point x="572" y="257" type="curve" smooth="yes"/>
      <point x="572" y="387" type="line" smooth="yes"/>
      <point x="572" y="617"/>
      <point x="477" y="720"/>
      <point x="310" y="720" type="curve" smooth="yes"/>
      <point x="292" y="720" type="line" smooth="yes"/>
      <point x="125" y="720"/>
      <point x="30" y="617"/>
    </contour>
    <contour>
      <point x="49" y="387" type="line" smooth="yes"/>
      <point x="49" y="607"/>
      <point x="134" y="700"/>
      <point x="292" y="700" type="curve" smooth="yes"/>
      <point x="310" y="700" type="line" smooth="yes"/>
      <point x="468" y="700"/>
      <point x="553" y="607"/>
      <point x="553" y="387" type="curve" smooth="yes"/>
      <point x="553" y="257" type="line" smooth="yes"/>
      <point x="553" y="37"/>
      <point x="468" y="-57"/>
      <point x="310" y="-57" type="curve" smooth="yes"/>
      <point x="292" y="-57" type="line" smooth="yes"/>
      <point x="134" y="-57"/>
      <point x="49" y="37"/>
      <point x="49" y="257" type="curve" smooth="yes"/>
    </contour>
  </outline>
</glyph>
<glyph name="logicalnot" format="2">
  <advance width="493"/>
  <unicode hex="00AC"/>
  <outline>
    <contour>
      <point x="461" y="80" type="curve" smooth="yes"/>
      <point x="461" y="281" type="line" smooth="yes"/>
      <point x="461" y="292.05"/>
      <point x="455.05" y="298"/>
      <point x="444" y="298" type="curve" smooth="yes"/>
      <point x="42" y="298" type="line" smooth="yes"/>
      <point x="37" y="298"/>
      <point x="33" y="294"/>
      <point x="33" y="288" type="curve" smooth="yes"/>
      <point x="33" y="282"/>
      <point x="37" y="278"/>
      <point x="42" y="278" type="curve" smooth="yes"/>
      <point x="441" y="278" type="line"/>
      <point x="441" y="80" type="line" smooth="yes"/>
      <point x="441" y="74"/>
      <point x="445" y="70"/>
      <point x="451" y="70" type="curve" smooth="yes"/>
      <point x="457" y="70"/>
      <point x="461" y="74"/>
    </contour>
  </outline>
</glyph>
<glyph name="registered" format="2">
  <advance width="499"/>
  <unicode hex="00AE"/>
  <outline>
    <contour>
      <point x="53" y="547" type="curve" smooth="yes"/>
      <point x="53" y="468" type="line" smooth="yes"/>
      <point x="53" y="325"/>
      <point x="126" y="260"/>
      <point x="255" y="260" type="curve" smooth="yes"/>
      <point x="266" y="260" type="line" smooth="yes"/>
      <point x="395" y="260"/>
      <point x="468" y="325"/>
      <point x="468" y="468" type="curve" smooth="yes"/>
      <point x="468" y="547" type="line" smooth="yes"/>
      <point x="468" y="689"/>
      <point x="395" y="753"/>
      <point x="266" y="753" type="curve" smooth="yes"/>
      <point x="255" y="753" type="line" smooth="yes"/>
      <point x="126" y="753"/>
      <point x="53" y="689"/>
    </contour>
    <contour>
      <point x="73" y="547" type="line" smooth="yes"/>
      <point x="73" y="678"/>
      <point x="135" y="733"/>
      <point x="255" y="733" type="curve" smooth="yes"/>
      <point x="266" y="733" type="line" smooth="yes"/>
      <point x="386" y="733"/>
      <point x="448" y="678"/>
      <point x="448" y="547" type="curve" smooth="yes"/>
      <point x="448" y="468" type="line" smooth="yes"/>
      <point x="448" y="335"/>
      <point x="386" y="279"/>
      <point x="266" y="279" type="curve" smooth="yes"/>
      <point x="255" y="279" type="line" smooth="yes"/>
      <point x="135" y="279"/>
      <point x="73" y="335"/>
      <point x="73" y="468" type="curve" smooth="yes"/>
    </contour>
    <contour>
      <point x="190" y="362" type="curve" smooth="yes"/>
      <point x="190" y="646" type="line"/>
      <point x="285" y="646" type="line" smooth="yes"/>
      <point x="321" y="646"/>
      <point x="348" y="635"/>
      <point x="348" y="589" type="curve" smooth="yes"/>
      <point x="348" y="585" type="line" smooth="yes"/>
      <point x="348" y="540"/>
      <point x="321" y="527"/>
      <point x="285" y="527" type="curve" smooth="yes"/>
      <point x="181" y="527" type="line" smooth="yes"/>
      <point x="175" y="527"/>
      <point x="171" y="523"/>
      <point x="171" y="517" type="curve" smooth="yes"/>
      <point x="171" y="511"/>
      <point x="175" y="507"/>
      <point x="181" y="507" type="curve" smooth="yes"/>
      <point x="285" y="507" type="line" smooth="yes"/>
      <point x="326" y="507"/>
      <point x="368" y="527"/>
      <point x="368" y="585" type="curve" smooth="yes"/>
      <point x="368" y="589" type="line" smooth="yes"/>
      <point x="368" y="649"/>
      <point x="326" y="666"/>
      <point x="285" y="666" type="curve" smooth="yes"/>
      <point x="188" y="666" type="line" smooth="yes"/>
      <point x="176.95" y="666"/>
      <point x="171" y="660.05"/>
      <point x="171" y="649" type="curve" smooth="yes"/>
      <point x="171" y="362" type="line" smooth="yes"/>
      <point x="171" y="356"/>
      <point x="175" y="352"/>
      <point x="181" y="352" type="curve" smooth="yes"/>
      <point x="187" y="352"/>
      <point x="190" y="356"/>
    </contour>
    <contour>
      <point x="276" y="513" type="curve" smooth="yes"/>
      <point x="353" y="358" type="line" smooth="yes"/>
      <point x="355" y="354"/>
      <point x="358" y="352"/>
      <point x="362" y="352" type="curve" smooth="yes"/>
      <point x="368.199" y="352"/>
      <point x="371.996" y="357.404"/>
      <point x="371.996" y="362.163" type="curve" smooth="yes"/>
      <point x="371.996" y="363.546"/>
      <point x="371.675" y="364.874"/>
      <point x="371" y="366" type="curve" smooth="yes"/>
      <point x="294" y="521" type="line" smooth="yes"/>
      <point x="292" y="525"/>
      <point x="289" y="527"/>
      <point x="285" y="527" type="curve" smooth="yes"/>
      <point x="278.801" y="527"/>
      <point x="275.004" y="521.596"/>
      <point x="275.004" y="516.837" type="curve" smooth="yes"/>
      <point x="275.004" y="515.454"/>
      <point x="275.325" y="514.126"/>
    </contour>
  </outline>
</glyph>
<glyph name="degree" format="2">
  <advance width="310"/>
  <unicode hex="00B0"/>
  <outline>
    <contour>
      <point x="25" y="617" type="curve" smooth="yes"/>
      <point x="25" y="615" type="line" smooth="yes"/>
      <point x="25" y="525"/>
      <point x="87" y="483"/>
      <point x="151" y="483" type="curve" smooth="yes"/>
      <point x="159" y="483" type="line" smooth="yes"/>
      <point x="223" y="483"/>
      <point x="285" y="525"/>
      <point x="285" y="615" type="curve" smooth="yes"/>
      <point x="285" y="617" type="line" smooth="yes"/>
      <point x="285" y="707"/>
      <point x="223" y="747"/>
      <point x="159" y="747" type="curve" smooth="yes"/>
      <point x="151" y="747" type="line" smooth="yes"/>
      <point x="87" y="747"/>
      <point x="25" y="707"/>
    </contour>
    <contour>
      <point x="44" y="617" type="line" smooth="yes"/>
      <point x="44" y="695"/>
      <point x="94" y="727"/>
      <point x="151" y="727" type="curve" smooth="yes"/>
      <point x="159" y="727" type="line" smooth="yes"/>
      <point x="216" y="727"/>
      <point x="266" y="695"/>
      <point x="266" y="617" type="curve" smooth="yes"/>
      <point x="266" y="615" type="line" smooth="yes"/>
      <point x="266" y="536"/>
      <point x="216" y="502"/>
      <point x="159" y="502" type="curve" smooth="yes"/>
      <point x="151" y="502" type="line" smooth="yes"/>
      <point x="94" y="502"/>
      <point x="44" y="536"/>
      <point x="44" y="615" type="curve" smooth="yes"/>
    </contour>
  </outline>
</glyph>
<glyph name="plusminus" format="2">
  <advance width="500"/>
  <unicode hex="00B1"/>
  <outline>
    <contour>
      <point x="457" y="25" type="curve" smooth="yes"/>
      <point x="43" y="25" type="line" smooth="yes"/>
      <point x="37.477" y="25"/>
      <point x="33" y="20.523"/>
      <point x="33" y="15" type="curve" smooth="yes"/>
      <point x="33" y="9.477"/>
      <point x="37.477" y="5"/>
      <point x="43" y="5" type="curve" smooth="yes"/>
      <point x="457" y="5" type="line" smooth="yes"/>
      <point x="462.523" y="5"/>
      <point x="467" y="9.477"/>
      <point x="467" y="15" type="curve" smooth="yes"/>
      <point x="467" y="20.523"/>
      <point x="462.523" y="25"/>
    </contour>
    <contour>
      <point x="240" y="498.895" type="curve" smooth="yes"/>
      <point x="240" y="130.688" type="line" smooth="yes"/>
      <point x="240" y="125.165"/>
      <point x="244.477" y="120.688"/>
      <point x="250" y="120.688" type="curve" smooth="yes"/>
      <point x="255.523" y="120.688"/>
      <point x="260" y="125.165"/>
      <point x="260" y="130.688" type="curve" smooth="yes"/>
      <point x="260" y="498.895" type="line" smooth="yes"/>
      <point x="260" y="504.418"/>
      <point x="255.523" y="508.895"/>
      <point x="250" y="508.895" type="curve" smooth="yes"/>
      <point x="244.477" y="508.895"/>
      <point x="240" y="504.418"/>
    </contour>
    <contour>
      <point x="457" y="324.792" type="curve" smooth="yes"/>
      <point x="43" y="324.792" type="line" smooth="yes"/>
      <point x="37.477" y="324.792"/>
      <point x="33" y="320.315"/>
      <point x="33" y="314.792" type="curve" smooth="yes"/>
      <point x="33" y="309.269"/>
      <point x="37.477" y="304.792"/>
      <point x="43" y="304.792" type="curve" smooth="yes"/>
      <point x="457" y="304.792" type="line" smooth="yes"/>
      <point x="462.523" y="304.792"/>
      <point x="467" y="309.269"/>
      <point x="467" y="314.792" type="curve" smooth="yes"/>
      <point x="467" y="320.315"/>
      <point x="462.523" y="324.792"/>
    </contour>
  </outline>
</glyph>
<glyph name="micro" format="2">
  <advance width="493"/>
  <unicode hex="00B5"/>
  <outline>
    <contour>
      <point x="421" y="10" type="curve" smooth="yes"/>
      <point x="421" y="558" type="line" smooth="yes"/>
      <point x="421" y="564"/>
      <point x="418" y="568"/>
      <point x="412" y="568" type="curve" smooth="yes"/>
      <point x="406" y="568"/>
      <point x="402" y="564"/>
      <point x="402" y="558" type="curve" smooth="yes"/>
      <point x="402" y="10" type="line" smooth="yes"/>
      <point x="402" y="4"/>
      <point x="406" y="0"/>
      <point x="412" y="0" type="curve" smooth="yes"/>
      <point x="418" y="0"/>
      <point x="421" y="4"/>
    </contour>
    <contour>
      <point x="402" y="254" type="curve" smooth="yes"/>
      <point x="402" y="112"/>
      <point x="327" y="15"/>
      <point x="219" y="15" type="curve" smooth="yes"/>
      <point x="206" y="15" type="line" smooth="yes"/>
      <point x="125" y="15"/>
      <point x="80" y="67"/>
      <point x="80" y="162" type="curve" smooth="yes"/>
      <point x="79" y="558" type="line" smooth="yes"/>
      <point x="79" y="564"/>
      <point x="75" y="568"/>
      <point x="69" y="568" type="curve" smooth="yes"/>
      <point x="63" y="568"/>
      <point x="59" y="564"/>
      <point x="59" y="558" type="curve" smooth="yes"/>
      <point x="60" y="162" type="line" smooth="yes"/>
      <point x="60" y="58"/>
      <point x="114" y="-5"/>
      <point x="206" y="-5" type="curve" smooth="yes"/>
      <point x="219" y="-5" type="line" smooth="yes"/>
      <point x="338" y="-5"/>
      <point x="421" y="104"/>
      <point x="421" y="254" type="curve" smooth="yes"/>
      <point x="421" y="260"/>
      <point x="418" y="264"/>
      <point x="412" y="264" type="curve" smooth="yes"/>
      <point x="406" y="264"/>
      <point x="402" y="260"/>
    </contour>
    <contour>
      <point x="80" y="-192" type="curve" smooth="yes"/>
      <point x="80" y="162" type="line" smooth="yes"/>
      <point x="80" y="168"/>
      <point x="76" y="172"/>
      <point x="70" y="172" type="curve" smooth="yes"/>
      <point x="64" y="172"/>
      <point x="60" y="168"/>
      <point x="60" y="162" type="curve" smooth="yes"/>
      <point x="60" y="-192" type="line" smooth="yes"/>
      <point x="60" y="-198"/>
      <point x="64" y="-202"/>
      <point x="70" y="-202" type="curve" smooth="yes"/>
      <point x="76" y="-202"/>
      <point x="80" y="-198"/>
    </contour>
  </outline>
</glyph>
<glyph name="paragraph" format="2">
  <advance width="441"/>
  <unicode hex="00B6"/>
  <outline>
    <contour>
      <point x="288" y="602" type="curve" smooth="yes"/>
      <point x="288" y="-81" type="line" smooth="yes"/>
      <point x="288" y="-87"/>
      <point x="292" y="-91"/>
      <point x="298" y="-91" type="curve" smooth="yes"/>
      <point x="304" y="-91"/>
      <point x="308" y="-87"/>
      <point x="308" y="-81" type="curve" smooth="yes"/>
      <point x="308" y="602" type="line" smooth="yes"/>
      <point x="308" y="608"/>
      <point x="304" y="612"/>
      <point x="298" y="612" type="curve" smooth="yes"/>
      <point x="292" y="612"/>
      <point x="288" y="608"/>
    </contour>
    <contour>
      <point x="244" y="282" type="curve" smooth="yes"/>
      <point x="207" y="282" type="line" smooth="yes"/>
      <point x="117" y="282"/>
      <point x="59" y="358"/>
      <point x="59" y="453" type="curve" smooth="yes"/>
      <point x="59" y="465" type="line" smooth="yes"/>
      <point x="59" y="562"/>
      <point x="117" y="637"/>
      <point x="207" y="637" type="curve" smooth="yes"/>
      <point x="218" y="637" type="line"/>
      <point x="391" y="637" type="line" smooth="yes"/>
      <point x="397" y="637"/>
      <point x="401" y="641"/>
      <point x="401" y="646" type="curve" smooth="yes"/>
      <point x="401" y="652"/>
      <point x="397" y="656"/>
      <point x="391" y="656" type="curve" smooth="yes"/>
      <point x="218" y="656" type="line"/>
      <point x="207" y="656" type="line" smooth="yes"/>
      <point x="107" y="656"/>
      <point x="39" y="569"/>
      <point x="39" y="465" type="curve" smooth="yes"/>
      <point x="39" y="453" type="line" smooth="yes"/>
      <point x="39" y="350"/>
      <point x="107" y="263"/>
      <point x="207" y="263" type="curve" smooth="yes"/>
      <point x="244" y="263" type="line" smooth="yes"/>
      <point x="250" y="263"/>
      <point x="254" y="266"/>
      <point x="254" y="272" type="curve" smooth="yes"/>
      <point x="254" y="278"/>
      <point x="250" y="282"/>
    </contour>
    <contour>
      <point x="352" y="602" type="curve" smooth="yes"/>
      <point x="352" y="-81" type="line" smooth="yes"/>
      <point x="352" y="-87"/>
      <point x="356" y="-91"/>
      <point x="362" y="-91" type="curve" smooth="yes"/>
      <point x="368" y="-91"/>
      <point x="372" y="-87"/>
      <point x="372" y="-81" type="curve" smooth="yes"/>
      <point x="372" y="602" type="line" smooth="yes"/>
      <point x="372" y="608"/>
      <point x="368" y="612"/>
      <point x="362" y="612" type="curve" smooth="yes"/>
      <point x="356" y="612"/>
      <point x="352" y="608"/>
    </contour>
  </outline>
</glyph>
<glyph name="AE" format="2">
  <advance width="773.21"/>
  <unicode hex="00C6"/>
  <anchor x="509.21" y="747" name="top"/>
  <anchor x="560.21" y="-5" name="bottom"/>
  <anchor x="689.21" y="5" name="ogonek"/>
  <anchor x="363.21" y="753" name="topleft"/>
  <outline>
    <contour>
      <point x="413.35" y="741.639" type="curve" smooth="yes"/>
      <point x="31.049" y="14.639" type="line" smooth="yes"/>
      <point x="30.375" y="13.354"/>
      <point x="30.035" y="11.908"/>
      <point x="30.006" y="10.437" type="curve" smooth="yes"/>
      <point x="29.906" y="5.364"/>
      <point x="33.511" y="0"/>
      <point x="39.91" y="0" type="curve" smooth="yes"/>
      <point x="43.758" y="0"/>
      <point x="47.099" y="2.174"/>
      <point x="48.77" y="5.361" type="curve" smooth="yes"/>
      <point x="431.07" y="732.361" type="line" smooth="yes"/>
      <point x="431.803" y="733.754"/>
      <point x="432.142" y="745.401"/>
      <point x="432.116" y="747" type="curve"/>
      <point x="422.21" y="747" type="line"/>
      <point x="418.361" y="747"/>
      <point x="415.025" y="744.824"/>
    </contour>
    <contour>
      <point x="161.21" y="227" type="curve" smooth="yes"/>
      <point x="416.21" y="227" type="line" smooth="yes"/>
      <point x="421.733" y="227"/>
      <point x="426.21" y="231.477"/>
      <point x="426.21" y="237" type="curve" smooth="yes"/>
      <point x="426.21" y="242.523"/>
      <point x="421.733" y="247"/>
      <point x="416.21" y="247" type="curve" smooth="yes"/>
      <point x="161.21" y="247" type="line" smooth="yes"/>
      <point x="155.687" y="247"/>
      <point x="151.21" y="242.523"/>
      <point x="151.21" y="237" type="curve" smooth="yes"/>
      <point x="151.21" y="231.477"/>
      <point x="155.687" y="227"/>
    </contour>
    <contour>
      <point x="205.21" y="311" type="curve" smooth="yes"/>
      <point x="417.21" y="311" type="line" smooth="yes"/>
      <point x="422.733" y="311"/>
      <point x="427.21" y="315.477"/>
      <point x="427.21" y="321" type="curve" smooth="yes"/>
      <point x="427.21" y="326.523"/>
      <point x="422.733" y="331"/>
      <point x="417.21" y="331" type="curve" smooth="yes"/>
      <point x="205.21" y="331" type="line" smooth="yes"/>
      <point x="199.687" y="331"/>
      <point x="195.21" y="326.523"/>
      <point x="195.21" y="321" type="curve" smooth="yes"/>
      <point x="195.21" y="315.477"/>
      <point x="199.687" y="311"/>
    </contour>
    <component base="E" xOffset="342.21"/>
  </outline>
</glyph>
<glyph name="multiply" format="2">
  <advance width="493"/>
  <unicode hex="00D7"/>
  <outline>
    <contour>
      <point x="383" y="485" type="curve" smooth="yes"/>
      <point x="95" y="100" type="line"/>
      <point x="94" y="98"/>
      <point x="93" y="96"/>
      <point x="93" y="94" type="curve" smooth="yes"/>
      <point x="93" y="88"/>
      <point x="97" y="84"/>
      <point x="103" y="84" type="curve" smooth="yes"/>
      <point x="106" y="84"/>
      <point x="109" y="86"/>
      <point x="111" y="88" type="curve" smooth="yes"/>
      <point x="399" y="473" type="line"/>
      <point x="400" y="475"/>
      <point x="401" y="477"/>
      <point x="401" y="479" type="curve" smooth="yes"/>
      <point x="401" y="485"/>
      <point x="397" y="489"/>
      <point x="391" y="489" type="curve" smooth="yes"/>
      <point x="388" y="489"/>
      <point x="385" y="487"/>
    </contour>
    <contour>
      <point x="399" y="100" type="curve"/>
      <point x="111" y="485" type="line" smooth="yes"/>
      <point x="109" y="487"/>
      <point x="106" y="489"/>
      <point x="103" y="489" type="curve" smooth="yes"/>
      <point x="97" y="489"/>
      <point x="93" y="485"/>
      <point x="93" y="479" type="curve" smooth="yes"/>
      <point x="93" y="477"/>
      <point x="94" y="475"/>
      <point x="95" y="473" type="curve"/>
      <point x="383" y="88" type="line" smooth="yes"/>
      <point x="385" y="86"/>
      <point x="388" y="84"/>
      <point x="391" y="84" type="curve" smooth="yes"/>
      <point x="397" y="84"/>
      <point x="401" y="88"/>
      <point x="401" y="94" type="curve" smooth="yes"/>
      <point x="401" y="96"/>
      <point x="400" y="98"/>
    </contour>
  </outline>
</glyph>
<glyph name="Oslash" format="2">
  <advance width="548"/>
  <unicode hex="00D8"/>
  <anchor x="273" y="-5" name="bottom"/>
  <anchor x="273" y="374" name="center"/>
  <anchor x="493" y="5" name="ogonek"/>
  <anchor x="277" y="747" name="top"/>
  <anchor x="20" y="753" name="topleft"/>
  <anchor x="527" y="753" name="topright"/>
  <outline>
    <contour>
      <point x="59" y="479" type="curve" smooth="yes"/>
      <point x="59" y="268" type="line" smooth="yes"/>
      <point x="59" y="95"/>
      <point x="134" y="-5"/>
      <point x="266" y="-5" type="curve" smooth="yes"/>
      <point x="280" y="-5" type="line" smooth="yes"/>
      <point x="413" y="-5"/>
      <point x="488" y="95"/>
      <point x="488" y="268" type="curve" smooth="yes"/>
      <point x="488" y="479" type="line" smooth="yes"/>
      <point x="488" y="653"/>
      <point x="413" y="752"/>
      <point x="280" y="752" type="curve" smooth="yes"/>
      <point x="266" y="752" type="line" smooth="yes"/>
      <point x="134" y="752"/>
      <point x="59" y="653"/>
    </contour>
    <contour>
      <point x="79" y="479" type="line" smooth="yes"/>
      <point x="79" y="645"/>
      <point x="145" y="732"/>
      <point x="266" y="732" type="curve" smooth="yes"/>
      <point x="280" y="732" type="line" smooth="yes"/>
      <point x="402" y="732"/>
      <point x="468" y="645"/>
      <point x="468" y="479" type="curve" smooth="yes"/>
      <point x="468" y="268" type="line" smooth="yes"/>
      <point x="468" y="103"/>
      <point x="402" y="15"/>
      <point x="280" y="15" type="curve" smooth="yes"/>
      <point x="266" y="15" type="line" smooth="yes"/>
      <point x="145" y="15"/>
      <point x="79" y="103"/>
      <point x="79" y="268" type="curve" smooth="yes"/>
    </contour>
    <component base="slash" xOffset="108"/>
  </outline>
</glyph>
<glyph name="Thorn" format="2">
  <advance width="344"/>
  <unicode hex="00DE"/>
  <anchor x="148" y="-5" name="bottom"/>
  <anchor x="148" y="753" name="top"/>
  <outline>
    <contour>
      <point x="25" y="606" type="curve" smooth="yes"/>
      <point x="150" y="606" type="line"/>
      <point x="161" y="606" type="line" smooth="yes"/>
      <point x="251" y="606"/>
      <point x="309" y="532"/>
      <point x="309" y="434" type="curve" smooth="yes"/>
      <point x="309" y="423" type="line" smooth="yes"/>
      <point x="309" y="328"/>
      <point x="251" y="253"/>
      <point x="161" y="253" type="curve" smooth="yes"/>
      <point x="25" y="253" type="line" smooth="yes"/>
      <point x="19" y="253"/>
      <point x="15" y="249"/>
      <point x="15" y="243" type="curve" smooth="yes"/>
      <point x="15" y="237"/>
      <point x="19" y="233"/>
      <point x="25" y="233" type="curve" smooth="yes"/>
      <point x="161" y="233" type="line" smooth="yes"/>
      <point x="262" y="233"/>
      <point x="329" y="320"/>
      <point x="329" y="423" type="curve" smooth="yes"/>
      <point x="329" y="434" type="line" smooth="yes"/>
      <point x="329" y="540"/>
      <point x="262" y="626"/>
      <point x="161" y="626" type="curve" smooth="yes"/>
      <point x="150" y="626" type="line"/>
      <point x="25" y="626" type="line" smooth="yes"/>
      <point x="19" y="626"/>
      <point x="15" y="622"/>
      <point x="15" y="616" type="curve" smooth="yes"/>
      <point x="15" y="610"/>
      <point x="19" y="606"/>
    </contour>
    <contour>
      <point x="91" y="606" type="curve" smooth="yes"/>
      <point x="181" y="606"/>
      <point x="239" y="532"/>
      <point x="239" y="434" type="curve" smooth="yes"/>
      <point x="239" y="423" type="line" smooth="yes"/>
      <point x="239" y="328"/>
      <point x="181" y="253"/>
      <point x="91" y="253" type="curve" smooth="yes"/>
      <point x="85" y="253"/>
      <point x="81" y="249"/>
      <point x="81" y="243" type="curve" smooth="yes"/>
      <point x="81" y="237"/>
      <point x="85" y="233"/>
      <point x="91" y="233" type="curve" smooth="yes"/>
      <point x="192" y="233"/>
      <point x="259" y="320"/>
      <point x="259" y="423" type="curve" smooth="yes"/>
      <point x="259" y="434" type="line" smooth="yes"/>
      <point x="259" y="540"/>
      <point x="192" y="626"/>
      <point x="91" y="626" type="curve" smooth="yes"/>
      <point x="85" y="626"/>
      <point x="81" y="622"/>
      <point x="81" y="616" type="curve" smooth="yes"/>
      <point x="81" y="610"/>
      <point x="85" y="606"/>
    </contour>
    <contour>
      <point x="35" y="10" type="curve" smooth="yes"/>
      <point x="35" y="737" type="line" smooth="yes"/>
      <point x="35" y="743"/>
      <point x="31" y="747"/>
      <point x="25" y="747" type="curve" smooth="yes"/>
      <point x="19" y="747"/>
      <point x="15" y="743"/>
      <point x="15" y="737" type="curve" smooth="yes"/>
      <point x="15" y="10" type="line" smooth="yes"/>
      <point x="15" y="4"/>
      <point x="19" y="0"/>
      <point x="25" y="0" type="curve" smooth="yes"/>
      <point x="31" y="0"/>
      <point x="35" y="4"/>
    </contour>
  </outline>
</glyph>
<glyph name="divide" format="2">
  <advance width="493"/>
  <unicode hex="00F7"/>
  <outline>
    <contour>
      <point x="451" y="298" type="curve" smooth="yes"/>
      <point x="42" y="298" type="line" smooth="yes"/>
      <point x="37" y="298"/>
      <point x="33" y="294"/>
      <point x="33" y="288" type="curve" smooth="yes"/>
      <point x="33" y="282"/>
      <point x="37" y="278"/>
      <point x="42" y="278" type="curve" smooth="yes"/>
      <point x="451" y="278" type="line" smooth="yes"/>
      <point x="457" y="278"/>
      <point x="461" y="282"/>
      <point x="461" y="288" type="curve" smooth="yes"/>
      <point x="461" y="294"/>
      <point x="457" y="298"/>
    </contour>
    <contour>
      <point x="250" y="-5" type="curve" smooth="yes"/>
      <point x="266" y="-5"/>
      <point x="280" y="9"/>
      <point x="280" y="25" type="curve" smooth="yes"/>
      <point x="280" y="41"/>
      <point x="266" y="54"/>
      <point x="250" y="54" type="curve" smooth="yes"/>
      <point x="234" y="54"/>
      <point x="220" y="41"/>
      <point x="220" y="25" type="curve" smooth="yes"/>
      <point x="220" y="9"/>
      <point x="234" y="-5"/>
    </contour>
    <contour>
      <point x="250" y="583" type="curve" smooth="yes"/>
      <point x="234" y="583"/>
      <point x="220" y="569"/>
      <point x="220" y="553" type="curve" smooth="yes"/>
      <point x="220" y="537"/>
      <point x="234" y="524"/>
      <point x="250" y="524" type="curve" smooth="yes"/>
      <point x="266" y="524"/>
      <point x="280" y="537"/>
      <point x="280" y="553" type="curve" smooth="yes"/>
      <point x="280" y="569"/>
      <point x="266" y="583"/>
    </contour>
  </outline>
</glyph>
<glyph name="oslash" format="2">
  <advance width="494"/>
  <unicode hex="00F8"/>
  <anchor x="248" y="-5" name="bottom"/>
  <anchor x="248" y="284" name="center"/>
  <anchor x="444" y="5" name="ogonek"/>
  <anchor x="251" y="570" name="top"/>
  <anchor x="474" y="573" name="topright"/>
  <outline>
    <contour>
      <point x="50" y="315" type="curve" smooth="yes"/>
      <point x="50" y="254" type="line" smooth="yes"/>
      <point x="50" y="105"/>
      <point x="118" y="-5"/>
      <point x="241" y="-5" type="curve" smooth="yes"/>
      <point x="254" y="-5" type="line" smooth="yes"/>
      <point x="376" y="-5"/>
      <point x="444" y="105"/>
      <point x="444" y="254" type="curve" smooth="yes"/>
      <point x="444" y="315" type="line" smooth="yes"/>
      <point x="444" y="464"/>
      <point x="376" y="572"/>
      <point x="254" y="572" type="curve" smooth="yes"/>
      <point x="241" y="572" type="line" smooth="yes"/>
      <point x="118" y="572"/>
      <point x="50" y="464"/>
    </contour>
    <contour>
      <point x="70" y="315" type="line" smooth="yes"/>
      <point x="70" y="457"/>
      <point x="130" y="553"/>
      <point x="241" y="553" type="curve" smooth="yes"/>
      <point x="254" y="553" type="line" smooth="yes"/>
      <point x="364" y="553"/>
      <point x="424" y="457"/>
      <point x="424" y="315" type="curve" smooth="yes"/>
      <point x="424" y="254" type="line" smooth="yes"/>
      <point x="424" y="112"/>
      <point x="363" y="15"/>
      <point x="254" y="15" type="curve" smooth="yes"/>
      <point x="241" y="15" type="line" smooth="yes"/>
      <point x="131" y="15"/>
      <point x="70" y="112"/>
      <point x="70" y="254" type="curve" smooth="yes"/>
    </contour>
    <contour>
      <point x="403.162" y="565" type="curve" smooth="yes"/>
      <point x="92.424" y="14.837" type="line" smooth="yes"/>
      <point x="91.505" y="13.22"/>
      <point x="91.114" y="11.351"/>
      <point x="91.204" y="9.498" type="curve" smooth="yes"/>
      <point x="91.441" y="4.661"/>
      <point x="94.976" y="-0.082"/>
      <point x="101.132" y="-0.082" type="curve" smooth="yes"/>
      <point x="104.867" y="-0.082"/>
      <point x="108.127" y="1.964"/>
      <point x="109.84" y="5" type="curve" smooth="yes"/>
      <point x="420.578" y="555.163" type="line" smooth="yes"/>
      <point x="421.665" y="557.082"/>
      <point x="422.017" y="559.35"/>
      <point x="421.698" y="561.53" type="curve" smooth="yes"/>
      <point x="421.046" y="565.989"/>
      <point x="417.589" y="570.082"/>
      <point x="411.87" y="570.082" type="curve" smooth="yes"/>
      <point x="408.135" y="570.082"/>
      <point x="404.879" y="568.034"/>
    </contour>
  </outline>
</glyph>
<glyph name="dotlessi" format="2">
  <advance width="257"/>
  <unicode hex="0131"/>
  <anchor x="197" y="-5" name="bottom"/>
  <anchor x="197" y="573" name="top"/>
  <outline>
    <contour>
      <point x="50" y="550" type="curve" smooth="yes"/>
      <point x="188" y="550" type="line"/>
      <point x="188" y="10" type="line" smooth="yes"/>
      <point x="188" y="4"/>
      <point x="191" y="0"/>
      <point x="197" y="0" type="curve" smooth="yes"/>
      <point x="203" y="0"/>
      <point x="207" y="4"/>
      <point x="207" y="10" type="curve" smooth="yes"/>
      <point x="207" y="550" type="line" smooth="yes"/>
      <point x="207" y="563"/>
      <point x="200" y="570"/>
      <point x="187" y="570" type="curve" smooth="yes"/>
      <point x="50" y="570" type="line" smooth="yes"/>
      <point x="44" y="570"/>
      <point x="40" y="566"/>
      <point x="40" y="560" type="curve" smooth="yes"/>
      <point x="40" y="554"/>
      <point x="44" y="550"/>
    </contour>
    <contour>
      <point x="50" y="431" type="curve" smooth="yes"/>
      <point x="197" y="431" type="line" smooth="yes"/>
      <point x="203" y="431"/>
      <point x="207" y="435"/>
      <point x="207" y="441" type="curve" smooth="yes"/>
      <point x="207" y="447"/>
      <point x="203" y="451"/>
      <point x="197" y="451" type="curve" smooth="yes"/>
      <point x="50" y="451" type="line" smooth="yes"/>
      <point x="44" y="451"/>
      <point x="40" y="447"/>
      <point x="40" y="441" type="curve" smooth="yes"/>
      <point x="40" y="435"/>
      <point x="44" y="431"/>
    </contour>
  </outline>
</glyph>
<glyph name="Lslash" format="2">
  <advance width="395"/>
  <unicode hex="0141"/>
  <anchor x="239.42" y="-5.0" name="bottom"/>
  <anchor x="198" y="374" name="center"/>
  <anchor x="198" y="753" name="top"/>
  <anchor x="376" y="753" name="topright"/>
  <outline>
    <contour>
      <point x="37.538" y="202.433" type="curve" smooth="yes"/>
      <point x="324.538" y="450.433" type="line" smooth="yes"/>
      <point x="326.659" y="452.267"/>
      <point x="328" y="454.977"/>
      <point x="328" y="458" type="curve" smooth="yes"/>
      <point x="328" y="463.523"/>
      <point x="323.523" y="468"/>
      <point x="318" y="468" type="curve" smooth="yes"/>
      <point x="315.5" y="468"/>
      <point x="313.215" y="467.083"/>
      <point x="311.462" y="465.567" type="curve" smooth="yes"/>
      <point x="24.462" y="217.567" type="line" smooth="yes"/>
      <point x="22.341" y="215.733"/>
      <point x="21" y="213.023"/>
      <point x="21" y="210" type="curve" smooth="yes"/>
      <point x="21" y="204.477"/>
      <point x="25.477" y="200"/>
      <point x="31" y="200" type="curve" smooth="yes"/>
      <point x="33.5" y="200"/>
      <point x="35.785" y="200.917"/>
    </contour>
    <component base="L"/>
  </outline>
</glyph>
<glyph name="eng" format="2">
  <advance width="472"/>
  <unicode hex="014B"/>
  <anchor x="242" y="-5" name="bottom"/>
  <anchor x="242" y="573" name="top"/>
  <outline>
    <contour>
      <point x="403" y="16" type="curve" smooth="yes"/>
      <point x="403" y="-144" type="line" smooth="yes"/>
      <point x="403" y="-197.123"/>
      <point x="332.915" y="-214.011"/>
      <point x="285.854" y="-169.718" type="curve" smooth="yes"/>
      <point x="284.064" y="-168.033"/>
      <point x="281.652" y="-167"/>
      <point x="279" y="-167" type="curve" smooth="yes"/>
      <point x="273.477" y="-167"/>
      <point x="269" y="-171.477"/>
      <point x="269" y="-177" type="curve" smooth="yes"/>
      <point x="269" y="-179.87"/>
      <point x="270.209" y="-182.458"/>
      <point x="272.146" y="-184.282" type="curve" smooth="yes"/>
      <point x="328.832" y="-237.634"/>
      <point x="422" y="-214.877"/>
      <point x="422" y="-144" type="curve" smooth="yes"/>
      <point x="422" y="16" type="line" smooth="yes"/>
      <point x="422" y="21.523"/>
      <point x="418.523" y="26"/>
      <point x="413" y="26" type="curve" smooth="yes"/>
      <point x="407.477" y="26"/>
      <point x="403" y="21.523"/>
    </contour>
    <component base="n"/>
  </outline>
</glyph>
<glyph name="Tbar" format="2">
  <advance width="450"/>
  <unicode hex="0166"/>
  <anchor x="227.13" y="-5.0" name="bottom"/>
  <anchor x="227.13" y="374.0" name="center"/>
  <anchor x="227.13" y="753.0" name="top"/>
  <outline>
    <contour>
      <point x="425" y="365" type="curve" smooth="yes"/>
      <point x="25" y="365" type="line" smooth="yes"/>
      <point x="19.477" y="365"/>
      <point x="15" y="360.523"/>
      <point x="15" y="355" type="curve" smooth="yes"/>
      <point x="15" y="349.477"/>
      <point x="19.477" y="345"/>
      <point x="25" y="345" type="curve" smooth="yes"/>
      <point x="425" y="345" type="line" smooth="yes"/>
      <point x="430.523" y="345"/>
      <point x="435" y="349.477"/>
      <point x="435" y="355" type="curve" smooth="yes"/>
      <point x="435" y="360.523"/>
      <point x="430.523" y="365"/>
    </contour>
    <component base="T" xOffset="5"/>
  </outline>
</glyph>
<glyph name="tbar" format="2">
  <advance width="356"/>
  <unicode hex="0167"/>
  <anchor x="237" y="0" name="bottom"/>
  <anchor x="156.0" y="672.893" name="top"/>
  <anchor x="360.64" y="776.863" name="topright"/>
  <outline>
    <contour>
      <point x="30" y="265" type="curve" smooth="yes"/>
      <point x="313" y="265" type="line" smooth="yes"/>
      <point x="318.523" y="265"/>
      <point x="323" y="269.477"/>
      <point x="323" y="275" type="curve" smooth="yes"/>
      <point x="323" y="280.523"/>
      <point x="318.523" y="285"/>
      <point x="313" y="285" type="curve" smooth="yes"/>
      <point x="30" y="285" type="line" smooth="yes"/>
      <point x="24.477" y="285"/>
      <point x="20" y="280.523"/>
      <point x="20" y="275" type="curve" smooth="yes"/>
      <point x="20" y="269.477"/>
      <point x="24.477" y="265"/>
    </contour>
    <component base="t"/>
  </outline>
</glyph>
<glyph name="florin" format="2">
  <advance width="493"/>
  <unicode hex="0192"/>
  <outline>
    <contour>
      <point x="28" y="14" type="curve"/>
      <point x="44" y="3"/>
      <point x="77" y="-5"/>
      <point x="104" y="-5" type="curve" smooth="yes"/>
      <point x="163" y="-5"/>
      <point x="193" y="33"/>
      <point x="213" y="127" type="curve" smooth="yes"/>
      <point x="301" y="549" type="line" smooth="yes"/>
      <point x="319" y="639"/>
      <point x="342" y="666"/>
      <point x="391" y="666" type="curve" smooth="yes"/>
      <point x="415" y="666"/>
      <point x="441" y="659"/>
      <point x="457" y="650" type="curve" smooth="yes"/>
      <point x="463" y="647"/>
      <point x="472" y="651"/>
      <point x="472" y="659" type="curve" smooth="yes"/>
      <point x="472" y="663"/>
      <point x="470" y="666"/>
      <point x="467" y="668" type="curve" smooth="yes"/>
      <point x="449" y="677"/>
      <point x="417" y="686"/>
      <point x="391" y="686" type="curve" smooth="yes"/>
      <point x="331" y="686"/>
      <point x="301" y="648"/>
      <point x="281" y="553" type="curve" smooth="yes"/>
      <point x="193" y="131" type="line" smooth="yes"/>
      <point x="176" y="42"/>
      <point x="152" y="15"/>
      <point x="104" y="15" type="curve" smooth="yes"/>
      <point x="79" y="15"/>
      <point x="52" y="21"/>
      <point x="38" y="30" type="curve" smooth="yes"/>
      <point x="33" y="34"/>
      <point x="23" y="31"/>
      <point x="23" y="22" type="curve" smooth="yes"/>
      <point x="23" y="18"/>
      <point x="25" y="15"/>
    </contour>
    <contour>
      <point x="405" y="355" type="curve" smooth="yes"/>
      <point x="68" y="355" type="line" smooth="yes"/>
      <point x="62" y="355"/>
      <point x="58" y="351"/>
      <point x="58" y="345" type="curve" smooth="yes"/>
      <point x="58" y="340"/>
      <point x="62" y="336"/>
      <point x="68" y="336" type="curve" smooth="yes"/>
      <point x="405" y="336" type="line" smooth="yes"/>
      <point x="411" y="336"/>
      <point x="415" y="340"/>
      <point x="415" y="345" type="curve" smooth="yes"/>
      <point x="415" y="351"/>
      <point x="411" y="355"/>
    </contour>
  </outline>
</glyph>
<glyph name="Nhookleft" format="2">
  <advance width="448.93"/>
  <unicode hex="019D"/>
  <anchor x="224.91" y="-5.0" name="bottom"/>
  <anchor x="224.91" y="753.0" name="top"/>
  <outline>
    <contour>
      <point x="69" y="16" type="curve" smooth="yes"/>
      <point x="69" y="-144" type="line" smooth="yes"/>
      <point x="69" y="-197.123"/>
      <point x="-1.085" y="-214.011"/>
      <point x="-48.146" y="-169.718" type="curve" smooth="yes"/>
      <point x="-49.936" y="-168.033"/>
      <point x="-52.348" y="-167"/>
      <point x="-55" y="-167" type="curve" smooth="yes"/>
      <point x="-60.523" y="-167"/>
      <point x="-65" y="-171.477"/>
      <point x="-65" y="-177" type="curve" smooth="yes"/>
      <point x="-65" y="-179.87"/>
      <point x="-63.791" y="-182.458"/>
      <point x="-61.854" y="-184.282" type="curve" smooth="yes"/>
      <point x="-5.168" y="-237.634"/>
      <point x="89" y="-214.877"/>
      <point x="89" y="-144" type="curve" smooth="yes"/>
      <point x="89" y="16" type="line" smooth="yes"/>
      <point x="89" y="21.523"/>
      <point x="84.523" y="26"/>
      <point x="79" y="26" type="curve" smooth="yes"/>
      <point x="73.477" y="26"/>
      <point x="69" y="21.523"/>
    </contour>
    <component base="N"/>
  </outline>
</glyph>
<glyph name="nhookleft" format="2">
  <advance width="472"/>
  <unicode hex="0272"/>
  <anchor x="242" y="-5" name="bottom"/>
  <anchor x="242" y="573" name="top"/>
  <outline>
    <contour>
      <point x="60" y="15.999" type="curve" smooth="yes"/>
      <point x="60" y="-144.001" type="line" smooth="yes"/>
      <point x="60" y="-197.124"/>
      <point x="-10.085" y="-214.012"/>
      <point x="-57.146" y="-169.719" type="curve" smooth="yes"/>
      <point x="-58.936" y="-168.034"/>
      <point x="-61.348" y="-167.001"/>
      <point x="-64" y="-167.001" type="curve" smooth="yes"/>
      <point x="-69.523" y="-167.001"/>
      <point x="-74" y="-171.478"/>
      <point x="-74" y="-177.001" type="curve" smooth="yes"/>
      <point x="-74" y="-179.871"/>
      <point x="-72.791" y="-182.459"/>
      <point x="-70.854" y="-184.283" type="curve" smooth="yes"/>
      <point x="-14.168" y="-237.635"/>
      <point x="80" y="-214.878"/>
      <point x="80" y="-144.001" type="curve" smooth="yes"/>
      <point x="80" y="15.999" type="line" smooth="yes"/>
      <point x="80" y="21.522"/>
      <point x="75.523" y="25.999"/>
      <point x="70" y="25.999" type="curve" smooth="yes"/>
      <point x="64.477" y="25.999"/>
      <point x="60" y="21.522"/>
    </contour>
    <component base="n"/>
  </outline>
</glyph>
